<svg width="427" height="427" xmlns="http://www.w3.org/2000/svg" xmlns:xlink="http://www.w3.org/1999/xlink" xml:space="preserve" overflow="hidden"><g transform="translate(-749 -206)"><g><g><g><g><path d="M857.85 522.162 1065.16 522.162 857.85 314.848Z" fill="#1BA0EA" fill-rule="nonzero" fill-opacity="1"/><g><path d="M-103.662 0.00257251 305.729 0.00257251" stroke="#000000" stroke-width="2.91453" stroke-linecap="butt" stroke-linejoin="miter" stroke-miterlimit="10" stroke-opacity="1" fill="none" fill-rule="nonzero" transform="matrix(1 0 0 -1 857.848 522.164)"/></g><path d="M3.7952 0.00257251C-0.95211 0.952036-5.68505 2.83657-11.3674 6.1597-5.68505 1.9015-5.68505-1.89635-11.3674-6.15455-5.68505-2.84582-0.95211-0.946891 3.7952 0.00257251Z" stroke="#000000" stroke-width="2.91453" stroke-linecap="butt" stroke-linejoin="round" stroke-miterlimit="10" stroke-opacity="1" fill="#000000" fill-rule="nonzero" fill-opacity="1" transform="matrix(1 0 0 -1 1163.58 522.164)"/><path d="M0.00232681-103.662 0.00232681 305.73" stroke="#000000" stroke-width="2.91453" stroke-linecap="butt" stroke-linejoin="miter" stroke-miterlimit="10" stroke-opacity="1" fill="none" fill-rule="nonzero" transform="matrix(1 0 0 -1 857.848 522.164)"/><path d="M3.79546-0.00232681C-0.951865 0.947136-5.68479 2.84606-11.3672 6.1548-5.68479 1.8966-5.68479-1.90125-11.3672-6.15945-5.68479-2.83633-0.951865-0.951788 3.79546-0.00232681Z" stroke="#000000" stroke-width="2.91453" stroke-linecap="butt" stroke-linejoin="round" stroke-miterlimit="10" stroke-opacity="1" fill="#000000" fill-rule="nonzero" fill-opacity="1" transform="matrix(0 -1 -1 0 857.848 216.432)"/><path d="M-51.8297 259.148 259.148-51.8293" stroke="#000000" stroke-width="2.1859" stroke-linecap="butt" stroke-linejoin="miter" stroke-miterlimit="10" stroke-opacity="1" fill="none" fill-rule="nonzero" transform="matrix(1 0 0 -1 857.848 522.164)"/><path d="M1069.31 522.162C1069.31 519.874 1067.45 518.019 1065.16 518.019 1062.88 518.019 1061.02 519.874 1061.02 522.162 1061.02 524.449 1062.88 526.305 1065.16 526.305 1067.45 526.305 1069.31 524.449 1069.31 522.162Z" fill="#000000" fill-rule="nonzero" fill-opacity="1"/><path d="M998.496 563.071C998.496 562.956 998.496 562.899 997.978 562.381 994.18 558.583 993.202 552.829 993.202 548.168 993.202 542.874 994.353 537.58 998.093 533.782 998.496 533.436 998.496 533.379 998.496 533.264 998.496 533.091 998.381 532.976 998.151 532.976 997.863 532.976 995.158 535.048 993.375 538.903 991.821 542.241 991.418 545.636 991.418 548.168 991.418 550.527 991.763 554.21 993.432 557.662 995.273 561.402 997.863 563.359 998.151 563.359 998.381 563.359 998.496 563.244 998.496 563.071Z" fill="#000000" fill-rule="nonzero" fill-opacity="1"/><path d="M1002.52 539.594 1002.81 539.594 1006.55 537.925C1006.61 537.867 1006.61 537.867 1006.66 537.867 1006.84 537.867 1006.89 538.155 1006.89 538.846L1006.89 552.944C1006.89 554.497 1006.55 554.785 1004.99 554.9L1003.38 554.958 1003.38 555.878C1007.81 555.763 1007.81 555.763 1008.16 555.763 1008.56 555.763 1009.19 555.763 1010.17 555.821 1010.52 555.821 1011.55 555.821 1012.76 555.878L1012.76 554.958 1011.21 554.9C1009.6 554.785 1009.31 554.497 1009.31 552.944L1009.31 535.681 1008.91 535.566C1007.01 536.544 1004.94 537.407 1002.29 538.328Z" fill="#000000" fill-rule="nonzero" fill-opacity="1"/><path d="M1021.06 552.196C1020.31 552.426 1019.74 552.598 1018.24 553.059 1018.01 555.245 1017.26 557.144 1015.6 559.964L1016 560.252 1017.21 559.734C1019.57 556.684 1020.66 554.843 1021.47 552.598Z" fill="#000000" fill-rule="nonzero" fill-opacity="1"/><path d="M1034.91 535.681C1030.43 535.681 1028.12 539.306 1028.12 546.326 1028.12 549.721 1028.7 552.656 1029.73 554.094 1030.77 555.533 1032.38 556.339 1034.17 556.339 1038.6 556.339 1040.78 552.541 1040.78 545.118 1040.78 538.73 1038.88 535.681 1034.91 535.681ZM1034.4 536.716C1037.22 536.716 1038.37 539.594 1038.37 546.556 1038.37 552.771 1037.27 555.303 1034.57 555.303 1031.75 555.303 1030.54 552.368 1030.54 545.29 1030.54 539.133 1031.63 536.716 1034.4 536.716Z" fill="#000000" fill-rule="nonzero" fill-opacity="1"/><path d="M1051.02 548.168C1051.02 545.808 1050.68 542.125 1049.01 538.673 1047.17 534.933 1044.58 532.976 1044.23 532.976 1044.06 532.976 1043.94 533.091 1043.94 533.264 1043.94 533.379 1043.94 533.436 1044.52 533.954 1047.51 537.004 1049.24 541.838 1049.24 548.168 1049.24 553.346 1048.09 558.698 1044.35 562.553 1043.94 562.899 1043.94 562.956 1043.94 563.071 1043.94 563.244 1044.06 563.359 1044.23 563.359 1044.58 563.359 1047.28 561.287 1049.07 557.432 1050.62 554.094 1051.02 550.699 1051.02 548.168Z" fill="#000000" fill-rule="nonzero" fill-opacity="1"/><path d="M861.994 314.848C861.994 312.561 860.138 310.705 857.85 310.705 855.563 310.705 853.707 312.561 853.707 314.848 853.707 317.136 855.563 318.991 857.85 318.991 860.138 318.991 861.994 317.136 861.994 314.848Z" fill="#000000" fill-rule="nonzero" fill-opacity="1"/><path d="M879.09 303.744C879.09 303.629 879.09 303.571 878.572 303.053 874.774 299.256 873.796 293.501 873.796 288.84 873.796 283.546 874.946 278.252 878.687 274.454 879.09 274.109 879.09 274.052 879.09 273.937 879.09 273.764 878.975 273.649 878.744 273.649 878.457 273.649 875.752 275.72 873.968 279.576 872.415 282.913 872.012 286.308 872.012 288.84 872.012 291.199 872.357 294.882 874.026 298.335 875.867 302.075 878.457 304.032 878.744 304.032 878.975 304.032 879.09 303.917 879.09 303.744Z" fill="#000000" fill-rule="nonzero" fill-opacity="1"/><path d="M888.81 276.353C884.321 276.353 882.02 279.979 882.02 286.999 882.02 290.394 882.595 293.329 883.631 294.767 884.667 296.206 886.278 297.011 888.062 297.011 892.492 297.011 894.679 293.214 894.679 285.79 894.679 279.403 892.78 276.353 888.81 276.353ZM888.292 277.389C891.112 277.389 892.262 280.266 892.262 287.229 892.262 293.444 891.169 295.976 888.464 295.976 885.645 295.976 884.436 293.041 884.436 285.963 884.436 279.806 885.53 277.389 888.292 277.389Z" fill="#000000" fill-rule="nonzero" fill-opacity="1"/><path d="M901.656 292.868C900.908 293.098 900.333 293.271 898.837 293.731 898.606 295.918 897.858 297.817 896.19 300.637L896.592 300.924 897.801 300.406C900.16 297.357 901.253 295.515 902.059 293.271Z" fill="#000000" fill-rule="nonzero" fill-opacity="1"/><path d="M909.81 280.266 910.098 280.266 913.838 278.598C913.896 278.54 913.896 278.54 913.953 278.54 914.126 278.54 914.183 278.828 914.183 279.518L914.183 293.616C914.183 295.17 913.838 295.458 912.284 295.573L910.673 295.63 910.673 296.551C915.104 296.436 915.104 296.436 915.449 296.436 915.852 296.436 916.485 296.436 917.463 296.493 917.809 296.493 918.844 296.493 920.053 296.551L920.053 295.63 918.499 295.573C916.888 295.458 916.6 295.17 916.6 293.616L916.6 276.353 916.197 276.238C914.298 277.216 912.227 278.08 909.58 279Z" fill="#000000" fill-rule="nonzero" fill-opacity="1"/><path d="M931.616 288.84C931.616 286.481 931.27 282.798 929.602 279.346 927.76 275.605 925.171 273.649 924.826 273.649 924.653 273.649 924.538 273.764 924.538 273.937 924.538 274.052 924.538 274.109 925.113 274.627 928.105 277.677 929.832 282.51 929.832 288.84 929.832 294.019 928.681 299.371 924.941 303.226 924.538 303.571 924.538 303.629 924.538 303.744 924.538 303.917 924.653 304.032 924.826 304.032 925.171 304.032 927.875 301.96 929.659 298.105 931.213 294.767 931.616 291.372 931.616 288.84Z" fill="#000000" fill-rule="nonzero" fill-opacity="1"/><path d="M931.925 443.213C931.695 440.911 931.35 439.185 929.22 439.185 926.343 439.185 924.387 441.256 924.387 442.12 924.387 442.35 924.559 442.35 924.732 442.35 925.077 442.35 926.401 441.947 926.919 440.911L926.976 440.854C928.645 440.854 929.048 441.832 929.393 444.939L929.796 449.428C928.703 450.003 924.617 452.477 922.43 454.031 918.92 456.448 918.863 457.369 918.863 458.232 918.863 459.267 919.438 459.958 920.359 459.958 921.279 459.958 922.66 458.98 922.66 458.519 922.66 458.347 922.545 458.289 922.43 458.289 922.2 458.232 921.452 458.117 921.452 456.966 921.452 456.103 921.452 455.757 924.674 453.628 926.516 452.42 928.3 451.442 929.911 450.406 929.911 450.463 930.314 455.009 930.429 455.527 930.659 457.944 930.832 459.958 933.133 459.958 936.01 459.958 937.967 457.886 937.967 457.023 937.967 456.851 937.794 456.851 937.622 456.851 937.334 456.851 936.01 457.196 935.435 458.232 935.32 458.289 935.147 458.289 935.09 458.289 933.364 458.289 933.191 456.39 932.961 453.801 932.846 452.823 932.788 452.075 932.443 448.91 941.938 443.27 941.938 442.177 941.938 440.911 941.938 439.875 941.362 439.185 940.499 439.185 939.521 439.185 938.14 440.221 938.14 440.681 938.14 440.854 938.312 440.854 938.37 440.854 938.6 440.911 939.348 441.026 939.348 442.235 939.348 442.983 939.233 443.443 936.643 445.169 935.723 445.802 934.457 446.608 932.385 447.874Z" fill="#FFFFFF" fill-rule="nonzero" fill-opacity="1"/><path d="M1135.3 503.405C1135.3 504.038 1135.25 504.383 1135.07 505.303 1135.02 505.649 1134.96 505.764 1134.96 505.936 1135.36 506.224 1135.82 506.339 1136.17 506.339 1137.15 506.339 1138.3 505.476 1139.16 504.095L1141.4 500.7 1141.69 502.714C1142.1 505.188 1142.79 506.339 1143.82 506.339 1144.45 506.339 1145.38 505.821 1146.3 504.958L1147.73 503.692 1147.5 503.117C1146.41 504.038 1145.72 504.44 1145.26 504.44 1144.8 504.44 1144.45 504.153 1144.11 503.577 1143.88 503.002 1143.53 501.966 1143.42 501.103L1142.9 498.168 1143.88 496.73C1145.26 494.831 1146.07 494.198 1146.99 494.198 1147.45 494.198 1147.79 494.428 1147.91 494.831L1148.31 494.716 1148.77 492.241C1148.42 492.069 1148.14 491.953 1147.91 491.953 1146.7 491.953 1145.55 492.989 1143.76 495.694L1142.67 497.305 1142.5 495.866C1142.15 492.989 1141.35 491.953 1139.68 491.953 1138.87 491.953 1138.24 492.184 1138.01 492.586L1136.28 495.003 1136.8 495.291C1137.66 494.313 1138.24 493.91 1138.82 493.91 1139.79 493.91 1140.43 495.061 1140.89 497.938L1141.23 499.722 1140.08 501.563C1138.82 503.462 1137.84 504.44 1136.97 504.44 1136.57 504.44 1136.23 504.325 1136.17 504.153L1135.88 503.347Z" fill="#000000" fill-rule="nonzero" fill-opacity="1"/><path d="M1151.05 499.085 1151.28 499.085 1154.1 497.819C1154.16 497.819 1154.16 497.819 1154.16 497.819 1154.33 497.819 1154.33 497.992 1154.33 498.51L1154.33 509.155C1154.33 510.249 1154.1 510.479 1152.95 510.594L1151.68 510.651 1151.68 511.284C1155.08 511.227 1155.08 511.227 1155.31 511.227 1155.6 511.227 1156.06 511.227 1156.81 511.227 1157.09 511.284 1157.84 511.284 1158.76 511.284L1158.76 510.651 1157.61 510.594C1156.4 510.479 1156.17 510.249 1156.17 509.155L1156.17 496.151 1155.89 496.035C1154.45 496.783 1152.89 497.474 1150.94 498.165Z" fill="#000000" fill-rule="nonzero" fill-opacity="1"/><path d="M870.146 233.863C870.146 234.496 870.089 234.842 869.916 235.762 869.859 236.108 869.801 236.223 869.801 236.395 870.204 236.683 870.664 236.798 871.01 236.798 871.988 236.798 873.139 235.935 874.002 234.554L876.246 231.159 876.534 233.173C876.937 235.647 877.627 236.798 878.663 236.798 879.296 236.798 880.216 236.28 881.137 235.417L882.576 234.151 882.346 233.576C881.252 234.496 880.562 234.899 880.101 234.899 879.641 234.899 879.296 234.612 878.951 234.036 878.72 233.461 878.375 232.425 878.26 231.562L877.742 228.627 878.72 227.188C880.101 225.29 880.907 224.657 881.828 224.657 882.288 224.657 882.633 224.887 882.748 225.29L883.151 225.174 883.612 222.7C883.266 222.527 882.979 222.412 882.748 222.412 881.54 222.412 880.389 223.448 878.605 226.153L877.512 227.764 877.339 226.325C876.994 223.448 876.188 222.412 874.52 222.412 873.714 222.412 873.081 222.643 872.851 223.045L871.125 225.462 871.643 225.75C872.506 224.772 873.081 224.369 873.657 224.369 874.635 224.369 875.268 225.52 875.728 228.397L876.073 230.181 874.922 232.022C873.657 233.921 872.678 234.899 871.815 234.899 871.412 234.899 871.067 234.784 871.01 234.612L870.722 233.806Z" fill="#000000" fill-rule="nonzero" fill-opacity="1"/><path d="M884.797 240.839 884.797 241.414C888.882 241.357 888.882 241.357 889.688 241.357 890.493 241.357 890.493 241.357 894.694 241.414 894.637 240.954 894.637 240.724 894.637 240.436 894.637 240.148 894.637 239.918 894.694 239.458 892.162 239.573 891.184 239.573 887.098 239.688L891.126 235.43C893.198 233.186 893.888 231.977 893.888 230.366 893.888 227.834 892.162 226.28 889.4 226.28 887.846 226.28 886.753 226.741 885.66 227.834L885.315 230.769 885.948 230.769 886.235 229.791C886.581 228.525 887.386 227.949 888.825 227.949 890.724 227.949 891.932 229.158 891.932 230.999 891.932 232.668 891.011 234.279 888.537 236.868Z" fill="#000000" fill-rule="nonzero" fill-opacity="1"/></g></g></g></g></g></svg>