<svg width="720" height="448" xmlns="http://www.w3.org/2000/svg" xmlns:xlink="http://www.w3.org/1999/xlink" xml:space="preserve" overflow="hidden"><g transform="translate(-280 -248)"><g><g><g><g><path d="M-0.000823403 0.00148096-0.000823403 390.305" stroke="#000000" stroke-width="4.46244" stroke-linecap="square" stroke-linejoin="miter" stroke-miterlimit="10" stroke-opacity="1" fill="none" fill-rule="nonzero" transform="matrix(1 0 0 -1.00094 357.664 650.017)"/><path d="M4.24109 0.000823403C-1.05587 1.05582-6.36383 3.17679-12.7158 6.89127-6.36383 2.12181-6.36383-2.12016-12.7158-6.88962-6.36383-3.17517-1.05587-1.06516 4.24109 0.000823403Z" stroke="#000000" stroke-width="4.46244" stroke-linecap="square" stroke-linejoin="round" stroke-miterlimit="10" stroke-opacity="1" fill="#000000" fill-rule="nonzero" fill-opacity="1" transform="matrix(0 -1.00094 -1 0 357.664 259.343)"/><path d="M-0.000823403 0.00148096 628.371 0.00148096" stroke="#000000" stroke-width="4.46244" stroke-linecap="square" stroke-linejoin="miter" stroke-miterlimit="10" stroke-opacity="1" fill="none" fill-rule="nonzero" transform="matrix(1 0 0 -1.00094 357.664 650.017)"/><path d="M4.23871 0.00148096C-1.05825 1.05648-6.35521 3.17746-12.7182 6.89192-6.35521 2.12246-6.35521-2.1195-12.7182-6.88898-6.35521-3.1745-1.05825-1.06451 4.23871 0.00148096Z" stroke="#000000" stroke-width="4.46244" stroke-linecap="square" stroke-linejoin="round" stroke-miterlimit="10" stroke-opacity="1" fill="#000000" fill-rule="nonzero" fill-opacity="1" transform="matrix(1 0 0 -1.00094 986.039 650.017)"/><g><path d="M19.8353 178.549C75.5852 178.549 43.452 59.5208 99.1908 59.5208 161.612 59.5208 116.137 198.385 178.546 198.385 223.538 198.385 193.086 99.1933 238.066 99.1933L277.749 99.1933C305.619 99.1933 289.553 158.712 317.422 158.712 356.214 158.712 357.983 99.1933 396.778 99.1933 435.57 99.1933 437.339 158.712 476.134 158.712 542.73 158.712 581.71 200.231 615.006 257.904" stroke="#000000" stroke-width="2.23119" stroke-linecap="butt" stroke-linejoin="miter" stroke-miterlimit="10" stroke-opacity="1" fill="none" fill-rule="nonzero" transform="matrix(1 0 0 -1.00094 357.664 650.017)"/></g><path d="M183.789 340.885C183.789 336.51 180.24 332.951 175.855 332.951 171.47 332.951 167.92 336.51 167.92 340.885 167.92 345.271 171.47 348.83 175.855 348.83 180.24 348.83 183.789 345.271 183.789 340.885Z" fill="#000000" fill-rule="nonzero" fill-opacity="1" transform="matrix(1 0 0 1.00094 281 249.235)"/><path d="M0.879164 3.60457C0.879164 6.11021 3.3848 7.86853 6.90145 7.86853 11.1214 7.86853 14.4183 5.23104 14.4183 1.84624 14.4183-0.175833 13.0995-1.5825 11.1654-1.5825L6.68165-1.5825C5.23104-1.5825 4.57165-1.8902 4.57165-2.63749 4.57165-2.98916 4.79146-3.29688 5.53873-3.91229 5.67062-4.08813 5.75854-4.13207 5.84646-4.21999 6.11021-4.21999 6.28604-4.17604 6.50582-4.17604 7.73664-4.17604 9.18728-4.70354 10.3302-5.53873 11.605-6.4179 12.2204-7.56081 12.2204-9.01145 12.2204-9.58289 12.1325-9.93456 11.9127-10.55L14.4623-10.55 15.1656-11.6929 15.0337-12.0006 11.0775-11.9127C10.0664-12.7479 9.05539-13.0556 7.6927-13.0556 6.46187-13.0556 5.05521-12.66 3.91229-12.0006 2.32979-11.1214 1.53854-9.75872 1.53854-8.04437 1.53854-5.97832 2.81333-4.57165 4.87938-4.35188L2.68145-2.63749C2.4177-2.24187 2.24187-1.84624 2.24187-1.45062 2.24187-0.659373 2.76937-0.219791 4.08813 0.175833L1.67041 1.49458C1.27479 1.71437 0.879164 2.72541 0.879164 3.60457ZM2.98916 3.56063C2.98916 2.28583 3.73646 1.18687 4.8354 0.659373 5.27499 0.48354 6.06623 0.395624 8.00039 0.395624 11.1654 0.395624 12.2204 1.01104 12.2204 2.8573 12.2204 5.23104 10.0225 7.03331 7.12123 7.03331 4.70354 7.03331 2.98916 5.58271 2.98916 3.56063ZM3.86832-8.70373C3.86832-10.8577 4.92332-12.1325 6.68165-12.1325 8.57187-12.1325 9.84664-10.55 9.84664-8.17623 9.84664-6.37395 8.70373-5.14312 6.98937-5.14312 5.14312-5.14312 3.86832-6.59373 3.86832-8.70373Z" fill="#000000" fill-rule="nonzero" fill-opacity="1" transform="matrix(1 0 0 1.00094 390.77 620.852)"/><path d="M0.571457 0.0879164C1.75833 0.0439582 2.90124 0 4.08813 0 5.23104 0 6.37395 0.0439582 7.56081 0.0879164L7.56081-0.74729 6.28604-0.835206C5.31896-0.879164 5.23104-1.09896 5.23104-2.8573L5.23104-20.001 4.96729-20.2208C3.78041-19.7812 2.8573-19.5174 0.659373-19.2098L0.659373-18.4185 2.19791-18.4185C2.68145-18.4185 2.90124-18.1108 2.90124-17.2756L2.90124-2.8573C2.90124-1.09896 2.81333-0.879164 1.84624-0.835206L0.571457-0.74729Z" fill="#000000" fill-rule="nonzero" fill-opacity="1" transform="matrix(1 0 0 1.00094 406.277 620.852)"/><path d="M0.879164-6.06623C0.879164-2.10999 3.3848 0.571457 6.98937 0.571457 11.2533 0.571457 14.3304-2.4177 14.3304-6.59373 14.3304-10.3741 11.605-13.0556 7.78062-13.0556 3.69249-13.0556 0.879164-10.1983 0.879164-6.06623ZM3.47271-6.98937C3.47271-10.3302 4.8354-12.1325 7.25312-12.1325 9.84664-12.1325 11.7369-9.36311 11.7369-5.58271 11.7369-2.37374 10.3302-0.351666 8.04437-0.351666 5.31896-0.351666 3.47271-3.03313 3.47271-6.98937Z" fill="#000000" fill-rule="nonzero" fill-opacity="1" transform="matrix(1 0 0 1.00094 414.393 620.852)"/><path d="M-0.439582-18.4185 1.14291-18.4185C1.62645-18.4185 1.84624-18.1108 1.84624-17.2756L1.84624-4.26396C1.84624-2.54958 1.80229-1.80229 1.62645 0.175833L2.06604 0.351666 3.16499-0.659373C4.3079 0.0439582 5.27499 0.351666 6.76956 0.351666 7.86853 0.351666 8.57187 0.131875 9.18728-0.263749L11.9566-2.28583C13.1875-3.16499 14.1545-5.49479 14.1545-7.51687 14.1545-10.7698 12.0885-13.0556 9.09936-13.0556 7.82456-13.0556 6.4179-12.572 5.71457-11.8248L4.17604-10.2862 4.17604-20.001 3.91229-20.2208C2.68145-19.7812 1.80229-19.5174-0.439582-19.2098ZM4.17604-2.59353 4.17604-8.57187C4.17604-8.96747 4.43979-9.49497 4.92332-9.97853 5.67062-10.7698 6.76956-11.2533 7.91248-11.2533 10.2423-11.2533 11.7369-9.36311 11.7369-6.37395 11.7369-3.25291 10.0664-1.09896 7.6927-1.09896 6.24207-1.09896 4.17604-1.97812 4.17604-2.59353Z" fill="#000000" fill-rule="nonzero" fill-opacity="1" transform="matrix(1 0 0 1.00094 429.621 620.852)"/><path d="M0.879164-3.07707C0.879164-0.923122 2.19791 0.351666 4.39582 0.351666 4.92332 0.351666 5.3629 0.263749 5.58271 0.131875L9.01145-2.28583 8.87956 0.0879164C9.62686 0.0439582 10.3302 0 11.0775 0 11.7808 0 12.4402 0.0439582 13.1435 0.0879164L13.1435-0.74729 12.0445-0.791248C11.3852-0.835206 11.2533-1.055 11.2533-2.4177L11.2533-7.51687C11.2533-11.605 10.1104-13.0556 6.85748-13.0556 5.67062-13.0556 4.52771-12.7479 3.47271-12.1325L2.02208-11.2533 2.02208-9.40706 2.72541-9.23122 3.07707-10.1104C3.64855-11.3852 3.95624-11.605 5.23104-11.605 7.86853-11.605 8.96747-10.55 9.01145-8.04437L6.28604-7.51687C2.46166-6.81354 0.879164-5.53873 0.879164-3.07707ZM3.29688-3.47271C3.29688-4.52771 3.82438-5.49479 4.70354-6.02229 5.3629-6.4179 6.90145-6.81354 9.01145-7.12123L9.01145-3.47271C8.2202-2.32979 6.46187-1.27479 5.3629-1.27479 4.26396-1.27479 3.29688-2.28583 3.29688-3.47271Z" fill="#000000" fill-rule="nonzero" fill-opacity="1" transform="matrix(1 0 0 1.00094 445.044 620.852)"/><path d="M0.571457 0.0879164C1.75833 0.0439582 2.90124 0 4.08813 0 5.23104 0 6.37395 0.0439582 7.56081 0.0879164L7.56081-0.74729 6.28604-0.835206C5.31896-0.879164 5.23104-1.09896 5.23104-2.8573L5.23104-20.001 4.96729-20.2208C3.78041-19.7812 2.8573-19.5174 0.659373-19.2098L0.659373-18.4185 2.19791-18.4185C2.68145-18.4185 2.90124-18.1108 2.90124-17.2756L2.90124-2.8573C2.90124-1.09896 2.81333-0.879164 1.84624-0.835206L0.571457-0.74729Z" fill="#000000" fill-rule="nonzero" fill-opacity="1" transform="matrix(1 0 0 1.00094 458.989 620.852)"/><path d="M0.439582 0.0879164C1.62645 0.0439582 2.81333 0 4.00021 0 5.09915 0 6.19812 0.0439582 7.29706 0.0879164L7.29706-0.74729 6.11021-0.835206C5.18707-0.879164 5.09915-1.09896 5.09915-2.8573L5.09915-8.7477C5.09915-10.0225 6.9454-11.3852 8.61581-11.3852 10.1104-11.3852 11.1654-9.93456 11.1654-7.82456L11.1654-2.8573C11.1654-1.09896 11.0775-0.879164 10.1104-0.835206L8.83561-0.74729 8.83561 0.0879164C10.0225 0.0439582 11.1654 0 12.3083 0 13.4952 0 14.6381 0.0439582 15.781 0.0879164L15.781-0.74729 14.5062-0.835206C13.5831-0.879164 13.4952-1.09896 13.4952-2.8573L13.4952-8.7477C13.4952-10.0225 15.3414-11.3852 17.0118-11.3852 18.5064-11.3852 19.5174-9.93456 19.5174-7.82456L19.5174 0.0879164C20.2647 0.0439582 21.012 0 21.7593 0 22.5945 0 23.3858 0.0439582 24.221 0.0879164L24.221-0.74729 22.9022-0.835206C21.9791-0.879164 21.8912-1.09896 21.8912-2.8573L21.8912-8.57187C21.8912-11.3412 20.2647-13.0556 17.7152-13.0556 16.7041-13.0556 15.9129-12.8358 15.4293-12.3523L13.2754-10.4621C12.3962-12.3083 11.2533-13.0556 9.31914-13.0556 8.30812-13.0556 7.51687-12.8358 7.03331-12.3523L5.09915-10.5939 5.09915-12.9677 4.8354-13.0556C3.42874-12.4841 1.97812-12.0885 0.48354-11.9127L0.48354-11.1654 1.53854-11.1654C2.63749-11.1654 2.76937-10.9456 2.76937-9.09936L2.76937-2.8573C2.76937-1.09896 2.68145-0.879164 1.71437-0.835206L0.439582-0.74729Z" fill="#000000" fill-rule="nonzero" fill-opacity="1" transform="matrix(1 0 0 1.00094 474.078 620.852)"/><path d="M0.571457 0.0879164C1.75833 0.0439582 2.90124 0 4.08813 0 5.23104 0 6.37395 0.0439582 7.56081 0.0879164L7.56081-0.74729 6.28604-0.835206C5.31896-0.879164 5.23104-1.09896 5.23104-2.8573L5.23104-12.9677 4.96729-13.0556C3.56063-12.4841 2.10999-12.0885 0.659373-11.9127L0.659373-11.1654 1.67041-11.1654C2.76937-11.1654 2.90124-10.9456 2.90124-9.09936L2.90124-2.8573C2.90124-1.09896 2.81333-0.879164 1.84624-0.835206L0.571457-0.74729ZM2.68145-16.4843C2.68145-15.6491 3.25291-15.1216 4.08813-15.1216 4.92332-15.1216 5.45082-15.6491 5.45082-16.4843 5.45082-17.3195 4.92332-17.891 4.08813-17.891 3.25291-17.891 2.68145-17.3195 2.68145-16.4843Z" fill="#000000" fill-rule="nonzero" fill-opacity="1" transform="matrix(1 0 0 1.00094 498.704 620.852)"/><path d="M0.175833 0.0879164C1.31875 0.0439582 2.46166 0 3.60457 0 4.74749 0 5.93437 0.0439582 7.07729 0.0879164L7.07729-0.74729 5.84646-0.835206C4.87938-0.879164 4.79146-1.09896 4.79146-2.8573L4.79146-8.7477C4.79146-10.0225 6.6377-11.3852 8.35206-11.3852 10.1983-11.3852 11.4291-9.97853 11.4291-7.82456L11.4291 0.0879164C12.1325 0.0439582 12.9237 0 13.627 0 14.4183 0 15.1656 0.0439582 15.9568 0.0879164L15.9568-0.74729 14.8139-0.835206C13.8468-0.879164 13.7589-1.055 13.7589-2.8573L13.7589-8.2202C13.7589-11.4731 12.2204-13.0556 9.09936-13.0556 8.08831-13.0556 7.51687-12.8798 6.90145-12.3523L4.79146-10.55 4.79146-12.9677 4.52771-13.0556C3.12105-12.4841 1.67041-12.0885 0.175833-11.9127L0.175833-11.1654 1.23083-11.1654C2.32979-11.1654 2.46166-10.9456 2.46166-9.09936L2.46166-2.8573C2.46166-1.09896 2.37374-0.879164 1.40666-0.835206L0.175833-0.74729Z" fill="#000000" fill-rule="nonzero" fill-opacity="1" transform="matrix(1 0 0 1.00094 506.709 620.852)"/><path d="M342.5 301.212C342.5 296.828 338.949 293.278 334.566 293.278 330.18 293.278 326.633 296.828 326.633 301.212 326.633 305.597 330.18 309.148 334.566 309.148 338.949 309.148 342.5 305.597 342.5 301.212Z" fill="#000000" fill-rule="nonzero" fill-opacity="1" transform="matrix(1 0 0 1.00094 281 249.235)"/><path d="M0.175833-12.0006 0.967081-11.9566C1.71437-11.9127 2.10999-11.4291 2.76937-9.18728L5.62665 0.175833 6.9454 0.175833 9.67081-6.19812C10.1544-7.38498 11.1214-9.31914 11.1214-9.31914L14.9018 0.175833 16.1766 0.175833 20.001-9.53895C20.7922-11.5171 21.1879-11.9127 21.8033-11.9566L22.5066-12.0006 22.5066-12.7919C21.5835-12.7479 20.7043-12.7039 19.7812-12.7039 18.8581-12.7039 17.9789-12.7479 17.0558-12.7919L17.0558-12.0006 18.0229-11.9566C19.1218-11.9127 19.2977-11.2094 18.902-10.1104L17.4954-6.19812 16.1766-2.72541 12.9677-10.8137C12.572-11.7808 12.3523-12.3083 12.1325-13.0556L11.5171-13.0556 7.07729-2.90124 4.74749-10.5939C4.48374-11.4291 4.61563-11.9127 5.67062-11.9566L6.81354-12.0006 6.81354-12.7919C5.67062-12.7479 4.61563-12.7039 3.47271-12.7039 2.37374-12.7039 1.27479-12.7479 0.175833-12.7919Z" fill="#000000" fill-rule="nonzero" fill-opacity="1" transform="matrix(1 0 0 1.00094 522.79 581.138)"/><path d="M0.703331-6.11021C0.703331-4.35188 1.09896-2.8573 1.8902-1.80229 2.98916-0.307707 4.87938 0.571457 6.98937 0.571457 8.00039 0.571457 9.01145 0.351666 10.1544-0.175833 10.9456-0.48354 11.5171-0.835206 11.605-1.01104L12.1764-1.93416 11.8248-2.24187C10.0225-1.18687 9.40706-0.923122 8.17623-0.923122 6.37395-0.923122 4.87938-1.71437 4.08813-3.07707 3.56063-4.00021 3.3848-4.79146 3.29688-6.4179L7.38498-6.4179C9.31914-6.4179 10.506-6.50582 12.4402-6.81354 12.4402-7.20915 12.4841-7.42895 12.4841-7.78062 12.4841-10.9896 10.4181-13.0556 7.29706-13.0556 6.28604-13.0556 5.05521-12.7039 3.91229-12.0445 1.62645-10.7258 0.703331-9.01145 0.703331-6.11021ZM3.3848-7.51687C3.3848-8.83561 3.47271-9.45103 3.82438-10.1544 4.43979-11.3852 5.62665-12.1325 6.98937-12.1325 7.86853-12.1325 8.61581-11.7808 9.09936-11.0335 9.71478-10.1104 10.0225-9.31914 10.0225-7.42895L6.90145-7.34103C5.58271-7.34103 4.87938-7.38498 3.3848-7.51687Z" fill="#000000" fill-rule="nonzero" fill-opacity="1" transform="matrix(1 0 0 1.00094 544.934 581.138)"/><path d="M0.879164-3.07707C0.879164-0.923122 2.19791 0.351666 4.39582 0.351666 4.92332 0.351666 5.3629 0.263749 5.58271 0.131875L9.01145-2.28583 8.87956 0.0879164C9.62686 0.0439582 10.3302 0 11.0775 0 11.7808 0 12.4402 0.0439582 13.1435 0.0879164L13.1435-0.74729 12.0445-0.791248C11.3852-0.835206 11.2533-1.055 11.2533-2.4177L11.2533-7.51687C11.2533-11.605 10.1104-13.0556 6.85748-13.0556 5.67062-13.0556 4.52771-12.7479 3.47271-12.1325L2.02208-11.2533 2.02208-9.40706 2.72541-9.23122 3.07707-10.1104C3.64855-11.3852 3.95624-11.605 5.23104-11.605 7.86853-11.605 8.96747-10.55 9.01145-8.04437L6.28604-7.51687C2.46166-6.81354 0.879164-5.53873 0.879164-3.07707ZM3.29688-3.47271C3.29688-4.52771 3.82438-5.49479 4.70354-6.02229 5.3629-6.4179 6.90145-6.81354 9.01145-7.12123L9.01145-3.47271C8.2202-2.32979 6.46187-1.27479 5.3629-1.27479 4.26396-1.27479 3.29688-2.28583 3.29688-3.47271Z" fill="#000000" fill-rule="nonzero" fill-opacity="1" transform="matrix(1 0 0 1.00094 558.294 581.138)"/><path d="M0.571457 0.0879164C1.75833 0.0439582 2.94521 0 4.08813 0 5.23104 0 6.37395 0.0439582 7.51687 0.0879164L7.51687-0.74729 6.28604-0.835206C5.31896-0.879164 5.23104-1.09896 5.23104-2.8573L5.23104-6.68165 12.616 0.351666 15.2975-0.48354 15.2975-1.09896C14.6381-1.09896 13.8029-1.5825 12.9237-2.46166L9.40706-5.93437C8.39603-6.90145 8.08831-7.25312 7.64873-7.82456L11.2533-10.6379C12.5281-11.6489 13.2754-11.9566 14.2425-11.9566L14.2425-12.7919 11.4731-12.7919C9.67081-10.9896 8.35206-9.80269 7.25312-8.92353L5.23104-7.25312 5.23104-20.001 4.96729-20.2208C3.78041-19.7812 2.8573-19.5174 0.659373-19.2098L0.659373-18.4185 2.19791-18.4185C2.68145-18.4185 2.90124-18.1108 2.90124-17.2756L2.90124-2.8573C2.90124-1.09896 2.81333-0.879164 1.84624-0.835206L0.571457-0.74729Z" fill="#000000" fill-rule="nonzero" fill-opacity="1" transform="matrix(1 0 0 1.00094 572.238 581.138)"/><path d="M0.571457 0.0879164C1.75833 0.0439582 2.90124 0 4.08813 0 5.23104 0 6.37395 0.0439582 7.56081 0.0879164L7.56081-0.74729 6.28604-0.835206C5.31896-0.879164 5.23104-1.09896 5.23104-2.8573L5.23104-20.001 4.96729-20.2208C3.78041-19.7812 2.8573-19.5174 0.659373-19.2098L0.659373-18.4185 2.19791-18.4185C2.68145-18.4185 2.90124-18.1108 2.90124-17.2756L2.90124-2.8573C2.90124-1.09896 2.81333-0.879164 1.84624-0.835206L0.571457-0.74729Z" fill="#000000" fill-rule="nonzero" fill-opacity="1" transform="matrix(1 0 0 1.00094 594.717 581.138)"/><path d="M0.879164-6.06623C0.879164-2.10999 3.3848 0.571457 6.98937 0.571457 11.2533 0.571457 14.3304-2.4177 14.3304-6.59373 14.3304-10.3741 11.605-13.0556 7.78062-13.0556 3.69249-13.0556 0.879164-10.1983 0.879164-6.06623ZM3.47271-6.98937C3.47271-10.3302 4.8354-12.1325 7.25312-12.1325 9.84664-12.1325 11.7369-9.36311 11.7369-5.58271 11.7369-2.37374 10.3302-0.351666 8.04437-0.351666 5.31896-0.351666 3.47271-3.03313 3.47271-6.98937Z" fill="#000000" fill-rule="nonzero" fill-opacity="1" transform="matrix(1 0 0 1.00094 602.833 581.138)"/><path d="M0.703331-5.84646C0.703331-2.10999 3.3848 0.571457 7.12123 0.571457 8.57187 0.571457 10.6379 0.0439582 10.9456-0.395624L11.5171-1.27479 11.2533-1.71437C10.1983-1.14291 9.31914-0.879164 8.30812-0.879164 5.23104-0.879164 3.16499-3.29688 3.16499-6.98937 3.16499-9.93456 4.57165-11.605 7.07729-11.605 8.30812-11.605 9.62686-11.0775 10.1544-10.3741L10.3302-8.65978 11.1214-8.65978C11.1214-9.93456 11.2533-11.0775 11.5171-12.0885 10.3741-12.7479 9.40706-13.0556 8.26414-13.0556 6.9454-13.0556 5.3629-12.5281 3.69249-11.4731 1.75833-10.2423 0.703331-8.30812 0.703331-5.84646Z" fill="#000000" fill-rule="nonzero" fill-opacity="1" transform="matrix(1 0 0 1.00094 618.062 581.138)"/><path d="M0.879164-3.07707C0.879164-0.923122 2.19791 0.351666 4.39582 0.351666 4.92332 0.351666 5.3629 0.263749 5.58271 0.131875L9.01145-2.28583 8.87956 0.0879164C9.62686 0.0439582 10.3302 0 11.0775 0 11.7808 0 12.4402 0.0439582 13.1435 0.0879164L13.1435-0.74729 12.0445-0.791248C11.3852-0.835206 11.2533-1.055 11.2533-2.4177L11.2533-7.51687C11.2533-11.605 10.1104-13.0556 6.85748-13.0556 5.67062-13.0556 4.52771-12.7479 3.47271-12.1325L2.02208-11.2533 2.02208-9.40706 2.72541-9.23122 3.07707-10.1104C3.64855-11.3852 3.95624-11.605 5.23104-11.605 7.86853-11.605 8.96747-10.55 9.01145-8.04437L6.28604-7.51687C2.46166-6.81354 0.879164-5.53873 0.879164-3.07707ZM3.29688-3.47271C3.29688-4.52771 3.82438-5.49479 4.70354-6.02229 5.3629-6.4179 6.90145-6.81354 9.01145-7.12123L9.01145-3.47271C8.2202-2.32979 6.46187-1.27479 5.3629-1.27479 4.26396-1.27479 3.29688-2.28583 3.29688-3.47271Z" fill="#000000" fill-rule="nonzero" fill-opacity="1" transform="matrix(1 0 0 1.00094 630.446 581.138)"/><path d="M0.571457 0.0879164C1.75833 0.0439582 2.90124 0 4.08813 0 5.23104 0 6.37395 0.0439582 7.56081 0.0879164L7.56081-0.74729 6.28604-0.835206C5.31896-0.879164 5.23104-1.09896 5.23104-2.8573L5.23104-20.001 4.96729-20.2208C3.78041-19.7812 2.8573-19.5174 0.659373-19.2098L0.659373-18.4185 2.19791-18.4185C2.68145-18.4185 2.90124-18.1108 2.90124-17.2756L2.90124-2.8573C2.90124-1.09896 2.81333-0.879164 1.84624-0.835206L0.571457-0.74729Z" fill="#000000" fill-rule="nonzero" fill-opacity="1" transform="matrix(1 0 0 1.00094 644.389 581.138)"/><path d="M0.439582 0.0879164C1.62645 0.0439582 2.81333 0 4.00021 0 5.09915 0 6.19812 0.0439582 7.29706 0.0879164L7.29706-0.74729 6.11021-0.835206C5.18707-0.879164 5.09915-1.09896 5.09915-2.8573L5.09915-8.7477C5.09915-10.0225 6.9454-11.3852 8.61581-11.3852 10.1104-11.3852 11.1654-9.93456 11.1654-7.82456L11.1654-2.8573C11.1654-1.09896 11.0775-0.879164 10.1104-0.835206L8.83561-0.74729 8.83561 0.0879164C10.0225 0.0439582 11.1654 0 12.3083 0 13.4952 0 14.6381 0.0439582 15.781 0.0879164L15.781-0.74729 14.5062-0.835206C13.5831-0.879164 13.4952-1.09896 13.4952-2.8573L13.4952-8.7477C13.4952-10.0225 15.3414-11.3852 17.0118-11.3852 18.5064-11.3852 19.5174-9.93456 19.5174-7.82456L19.5174 0.0879164C20.2647 0.0439582 21.012 0 21.7593 0 22.5945 0 23.3858 0.0439582 24.221 0.0879164L24.221-0.74729 22.9022-0.835206C21.9791-0.879164 21.8912-1.09896 21.8912-2.8573L21.8912-8.57187C21.8912-11.3412 20.2647-13.0556 17.7152-13.0556 16.7041-13.0556 15.9129-12.8358 15.4293-12.3523L13.2754-10.4621C12.3962-12.3083 11.2533-13.0556 9.31914-13.0556 8.30812-13.0556 7.51687-12.8358 7.03331-12.3523L5.09915-10.5939 5.09915-12.9677 4.8354-13.0556C3.42874-12.4841 1.97812-12.0885 0.48354-11.9127L0.48354-11.1654 1.53854-11.1654C2.63749-11.1654 2.76937-10.9456 2.76937-9.09936L2.76937-2.8573C2.76937-1.09896 2.68145-0.879164 1.71437-0.835206L0.439582-0.74729Z" fill="#000000" fill-rule="nonzero" fill-opacity="1" transform="matrix(1 0 0 1.00094 659.479 581.138)"/><path d="M0.571457 0.0879164C1.75833 0.0439582 2.90124 0 4.08813 0 5.23104 0 6.37395 0.0439582 7.56081 0.0879164L7.56081-0.74729 6.28604-0.835206C5.31896-0.879164 5.23104-1.09896 5.23104-2.8573L5.23104-12.9677 4.96729-13.0556C3.56063-12.4841 2.10999-12.0885 0.659373-11.9127L0.659373-11.1654 1.67041-11.1654C2.76937-11.1654 2.90124-10.9456 2.90124-9.09936L2.90124-2.8573C2.90124-1.09896 2.81333-0.879164 1.84624-0.835206L0.571457-0.74729ZM2.68145-16.4843C2.68145-15.6491 3.25291-15.1216 4.08813-15.1216 4.92332-15.1216 5.45082-15.6491 5.45082-16.4843 5.45082-17.3195 4.92332-17.891 4.08813-17.891 3.25291-17.891 2.68145-17.3195 2.68145-16.4843Z" fill="#000000" fill-rule="nonzero" fill-opacity="1" transform="matrix(1 0 0 1.00094 684.104 581.138)"/><path d="M0.175833 0.0879164C1.31875 0.0439582 2.46166 0 3.60457 0 4.74749 0 5.93437 0.0439582 7.07729 0.0879164L7.07729-0.74729 5.84646-0.835206C4.87938-0.879164 4.79146-1.09896 4.79146-2.8573L4.79146-8.7477C4.79146-10.0225 6.6377-11.3852 8.35206-11.3852 10.1983-11.3852 11.4291-9.97853 11.4291-7.82456L11.4291 0.0879164C12.1325 0.0439582 12.9237 0 13.627 0 14.4183 0 15.1656 0.0439582 15.9568 0.0879164L15.9568-0.74729 14.8139-0.835206C13.8468-0.879164 13.7589-1.055 13.7589-2.8573L13.7589-8.2202C13.7589-11.4731 12.2204-13.0556 9.09936-13.0556 8.08831-13.0556 7.51687-12.8798 6.90145-12.3523L4.79146-10.55 4.79146-12.9677 4.52771-13.0556C3.12105-12.4841 1.67041-12.0885 0.175833-11.9127L0.175833-11.1654 1.23083-11.1654C2.32979-11.1654 2.46166-10.9456 2.46166-9.09936L2.46166-2.8573C2.46166-1.09896 2.37374-0.879164 1.40666-0.835206L0.175833-0.74729Z" fill="#000000" fill-rule="nonzero" fill-opacity="1" transform="matrix(1 0 0 1.00094 692.108 581.138)"/><path d="M481.374 301.212C481.374 296.828 477.826 293.278 473.44 293.278 469.057 293.278 465.507 296.828 465.507 301.212 465.507 305.597 469.057 309.148 473.44 309.148 477.826 309.148 481.374 305.597 481.374 301.212Z" fill="#000000" fill-rule="nonzero" fill-opacity="1" transform="matrix(1 0 0 1.00094 281 249.235)"/><path d="M0.835206-0.131875C2.28583 0.351666 3.3848 0.571457 4.65957 0.571457 8.30812 0.571457 10.9016-1.40666 10.9016-4.13207 10.9016-4.96729 10.6819-5.62665 10.1104-6.19812 9.40706-6.90145 8.48395-7.20915 6.02229-7.6927 3.73646-8.13228 2.98916-8.70373 2.98916-9.97853 2.98916-11.3852 3.95624-12.1325 5.67062-12.1325 7.51687-12.1325 8.96747-11.1654 8.96747-9.84664L8.96747-9.23122 9.71478-9.23122C9.75872-10.8577 9.80269-11.5171 9.84664-12.3523 8.39603-12.8798 7.38498-13.0556 6.24207-13.0556 2.98916-13.0556 1.01104-11.5171 1.01104-9.01145 1.01104-7.6927 1.62645-6.72562 2.94521-6.15415 3.69249-5.84646 5.14312-5.3629 7.03331-4.96729 8.30812-4.70354 8.83561-4.08813 8.83561-3.03313 8.83561-1.53854 7.42895-0.48354 5.45082-0.48354 3.42874-0.48354 1.97812-1.45062 1.97812-2.8573L1.97812-4.00021 1.14291-4.00021C1.14291-2.06604 1.055-1.23083 0.835206-0.131875Z" fill="#000000" fill-rule="nonzero" fill-opacity="1" transform="matrix(1 0 0 1.00094 764.571 581.138)"/><path d="M0.615415-10.55 2.72541-10.6379 2.72541-2.63749C2.72541-0.571457 3.64855 0.351666 5.80248 0.351666 6.4179 0.351666 7.12123 0.175833 7.25312 0L8.61581-1.49458 8.26414-1.93416C7.56081-1.5825 7.12123-1.40666 6.59373-1.40666 5.53873-1.40666 5.05521-1.97812 5.05521-3.34082L5.05521-10.6379 8.65978-10.6379 8.87956-12.1325 5.05521-12.0006 5.05521-13.0556C5.05521-14.1985 5.14312-15.2095 5.3629-17.0118L5.05521-17.3195C4.39582-16.88 3.56063-16.5283 2.68145-16.2645 2.76937-15.4293 2.76937-14.9018 2.76937-14.0666L2.76937-12.0885 0.615415-11.1214Z" fill="#000000" fill-rule="nonzero" fill-opacity="1" transform="matrix(1 0 0 1.00094 775.976 581.138)"/><path d="M0.571457 0.0879164C1.71437 0.0439582 2.8573 0 4.00021 0 5.3629 0 6.68165 0.0439582 8.00039 0.0879164L8.00039-0.74729 6.54979-0.835206C5.27499-0.923122 5.23104-1.01104 5.23104-2.8573L5.23104-7.64873C5.23104-9.31914 6.37395-10.6819 7.73664-10.6819 8.57187-10.6819 9.14331-10.3302 9.58289-9.40706L10.1544-9.40706 10.4181-12.7479C10.1104-12.9677 9.62686-13.0556 9.09936-13.0556 8.26414-13.0556 7.38498-12.616 6.81354-11.9127L5.23104-10.1104 5.23104-12.9677 4.96729-13.0556C3.56063-12.4841 2.10999-12.0885 0.659373-11.9127L0.659373-11.1654 1.67041-11.1654C2.76937-11.1654 2.90124-10.9456 2.90124-9.09936L2.90124-2.8573C2.90124-1.09896 2.81333-0.879164 1.84624-0.835206L0.571457-0.74729Z" fill="#000000" fill-rule="nonzero" fill-opacity="1" transform="matrix(1 0 0 1.00094 785.069 581.138)"/><path d="M0.879164-6.06623C0.879164-2.10999 3.3848 0.571457 6.98937 0.571457 11.2533 0.571457 14.3304-2.4177 14.3304-6.59373 14.3304-10.3741 11.605-13.0556 7.78062-13.0556 3.69249-13.0556 0.879164-10.1983 0.879164-6.06623ZM3.47271-6.98937C3.47271-10.3302 4.8354-12.1325 7.25312-12.1325 9.84664-12.1325 11.7369-9.36311 11.7369-5.58271 11.7369-2.37374 10.3302-0.351666 8.04437-0.351666 5.31896-0.351666 3.47271-3.03313 3.47271-6.98937Z" fill="#000000" fill-rule="nonzero" fill-opacity="1" transform="matrix(1 0 0 1.00094 796.086 581.138)"/><path d="M0.175833 0.0879164C1.31875 0.0439582 2.46166 0 3.60457 0 4.74749 0 5.93437 0.0439582 7.07729 0.0879164L7.07729-0.74729 5.84646-0.835206C4.87938-0.879164 4.79146-1.09896 4.79146-2.8573L4.79146-8.7477C4.79146-10.0225 6.6377-11.3852 8.35206-11.3852 10.1983-11.3852 11.4291-9.97853 11.4291-7.82456L11.4291 0.0879164C12.1325 0.0439582 12.9237 0 13.627 0 14.4183 0 15.1656 0.0439582 15.9568 0.0879164L15.9568-0.74729 14.8139-0.835206C13.8468-0.879164 13.7589-1.055 13.7589-2.8573L13.7589-8.2202C13.7589-11.4731 12.2204-13.0556 9.09936-13.0556 8.08831-13.0556 7.51687-12.8798 6.90145-12.3523L4.79146-10.55 4.79146-12.9677 4.52771-13.0556C3.12105-12.4841 1.67041-12.0885 0.175833-11.9127L0.175833-11.1654 1.23083-11.1654C2.32979-11.1654 2.46166-10.9456 2.46166-9.09936L2.46166-2.8573C2.46166-1.09896 2.37374-0.879164 1.40666-0.835206L0.175833-0.74729Z" fill="#000000" fill-rule="nonzero" fill-opacity="1" transform="matrix(1 0 0 1.00094 811.315 581.138)"/><path d="M0.879164 3.60457C0.879164 6.11021 3.3848 7.86853 6.90145 7.86853 11.1214 7.86853 14.4183 5.23104 14.4183 1.84624 14.4183-0.175833 13.0995-1.5825 11.1654-1.5825L6.68165-1.5825C5.23104-1.5825 4.57165-1.8902 4.57165-2.63749 4.57165-2.98916 4.79146-3.29688 5.53873-3.91229 5.67062-4.08813 5.75854-4.13207 5.84646-4.21999 6.11021-4.21999 6.28604-4.17604 6.50582-4.17604 7.73664-4.17604 9.18728-4.70354 10.3302-5.53873 11.605-6.4179 12.2204-7.56081 12.2204-9.01145 12.2204-9.58289 12.1325-9.93456 11.9127-10.55L14.4623-10.55 15.1656-11.6929 15.0337-12.0006 11.0775-11.9127C10.0664-12.7479 9.05539-13.0556 7.6927-13.0556 6.46187-13.0556 5.05521-12.66 3.91229-12.0006 2.32979-11.1214 1.53854-9.75872 1.53854-8.04437 1.53854-5.97832 2.81333-4.57165 4.87938-4.35188L2.68145-2.63749C2.4177-2.24187 2.24187-1.84624 2.24187-1.45062 2.24187-0.659373 2.76937-0.219791 4.08813 0.175833L1.67041 1.49458C1.27479 1.71437 0.879164 2.72541 0.879164 3.60457ZM2.98916 3.56063C2.98916 2.28583 3.73646 1.18687 4.8354 0.659373 5.27499 0.48354 6.06623 0.395624 8.00039 0.395624 11.1654 0.395624 12.2204 1.01104 12.2204 2.8573 12.2204 5.23104 10.0225 7.03331 7.12123 7.03331 4.70354 7.03331 2.98916 5.58271 2.98916 3.56063ZM3.86832-8.70373C3.86832-10.8577 4.92332-12.1325 6.68165-12.1325 8.57187-12.1325 9.84664-10.55 9.84664-8.17623 9.84664-6.37395 8.70373-5.14312 6.98937-5.14312 5.14312-5.14312 3.86832-6.59373 3.86832-8.70373Z" fill="#000000" fill-rule="nonzero" fill-opacity="1" transform="matrix(1 0 0 1.00094 827.545 581.138)"/><path d="M0.571457 0.0879164C1.75833 0.0439582 2.90124 0 4.08813 0 5.23104 0 6.37395 0.0439582 7.56081 0.0879164L7.56081-0.74729 6.28604-0.835206C5.31896-0.879164 5.23104-1.09896 5.23104-2.8573L5.23104-20.001 4.96729-20.2208C3.78041-19.7812 2.8573-19.5174 0.659373-19.2098L0.659373-18.4185 2.19791-18.4185C2.68145-18.4185 2.90124-18.1108 2.90124-17.2756L2.90124-2.8573C2.90124-1.09896 2.81333-0.879164 1.84624-0.835206L0.571457-0.74729Z" fill="#000000" fill-rule="nonzero" fill-opacity="1" transform="matrix(1 0 0 1.00094 850.026 581.138)"/><path d="M0.879164-6.06623C0.879164-2.10999 3.3848 0.571457 6.98937 0.571457 11.2533 0.571457 14.3304-2.4177 14.3304-6.59373 14.3304-10.3741 11.605-13.0556 7.78062-13.0556 3.69249-13.0556 0.879164-10.1983 0.879164-6.06623ZM3.47271-6.98937C3.47271-10.3302 4.8354-12.1325 7.25312-12.1325 9.84664-12.1325 11.7369-9.36311 11.7369-5.58271 11.7369-2.37374 10.3302-0.351666 8.04437-0.351666 5.31896-0.351666 3.47271-3.03313 3.47271-6.98937Z" fill="#000000" fill-rule="nonzero" fill-opacity="1" transform="matrix(1 0 0 1.00094 858.14 581.138)"/><path d="M0.703331-5.84646C0.703331-2.10999 3.3848 0.571457 7.12123 0.571457 8.57187 0.571457 10.6379 0.0439582 10.9456-0.395624L11.5171-1.27479 11.2533-1.71437C10.1983-1.14291 9.31914-0.879164 8.30812-0.879164 5.23104-0.879164 3.16499-3.29688 3.16499-6.98937 3.16499-9.93456 4.57165-11.605 7.07729-11.605 8.30812-11.605 9.62686-11.0775 10.1544-10.3741L10.3302-8.65978 11.1214-8.65978C11.1214-9.93456 11.2533-11.0775 11.5171-12.0885 10.3741-12.7479 9.40706-13.0556 8.26414-13.0556 6.9454-13.0556 5.3629-12.5281 3.69249-11.4731 1.75833-10.2423 0.703331-8.30812 0.703331-5.84646Z" fill="#000000" fill-rule="nonzero" fill-opacity="1" transform="matrix(1 0 0 1.00094 873.368 581.138)"/><path d="M0.879164-3.07707C0.879164-0.923122 2.19791 0.351666 4.39582 0.351666 4.92332 0.351666 5.3629 0.263749 5.58271 0.131875L9.01145-2.28583 8.87956 0.0879164C9.62686 0.0439582 10.3302 0 11.0775 0 11.7808 0 12.4402 0.0439582 13.1435 0.0879164L13.1435-0.74729 12.0445-0.791248C11.3852-0.835206 11.2533-1.055 11.2533-2.4177L11.2533-7.51687C11.2533-11.605 10.1104-13.0556 6.85748-13.0556 5.67062-13.0556 4.52771-12.7479 3.47271-12.1325L2.02208-11.2533 2.02208-9.40706 2.72541-9.23122 3.07707-10.1104C3.64855-11.3852 3.95624-11.605 5.23104-11.605 7.86853-11.605 8.96747-10.55 9.01145-8.04437L6.28604-7.51687C2.46166-6.81354 0.879164-5.53873 0.879164-3.07707ZM3.29688-3.47271C3.29688-4.52771 3.82438-5.49479 4.70354-6.02229 5.3629-6.4179 6.90145-6.81354 9.01145-7.12123L9.01145-3.47271C8.2202-2.32979 6.46187-1.27479 5.3629-1.27479 4.26396-1.27479 3.29688-2.28583 3.29688-3.47271Z" fill="#000000" fill-rule="nonzero" fill-opacity="1" transform="matrix(1 0 0 1.00094 885.752 581.138)"/><path d="M0.571457 0.0879164C1.75833 0.0439582 2.90124 0 4.08813 0 5.23104 0 6.37395 0.0439582 7.56081 0.0879164L7.56081-0.74729 6.28604-0.835206C5.31896-0.879164 5.23104-1.09896 5.23104-2.8573L5.23104-20.001 4.96729-20.2208C3.78041-19.7812 2.8573-19.5174 0.659373-19.2098L0.659373-18.4185 2.19791-18.4185C2.68145-18.4185 2.90124-18.1108 2.90124-17.2756L2.90124-2.8573C2.90124-1.09896 2.81333-0.879164 1.84624-0.835206L0.571457-0.74729Z" fill="#000000" fill-rule="nonzero" fill-opacity="1" transform="matrix(1 0 0 1.00094 899.698 581.138)"/><path d="M0.439582 0.0879164C1.62645 0.0439582 2.81333 0 4.00021 0 5.09915 0 6.19812 0.0439582 7.29706 0.0879164L7.29706-0.74729 6.11021-0.835206C5.18707-0.879164 5.09915-1.09896 5.09915-2.8573L5.09915-8.7477C5.09915-10.0225 6.9454-11.3852 8.61581-11.3852 10.1104-11.3852 11.1654-9.93456 11.1654-7.82456L11.1654-2.8573C11.1654-1.09896 11.0775-0.879164 10.1104-0.835206L8.83561-0.74729 8.83561 0.0879164C10.0225 0.0439582 11.1654 0 12.3083 0 13.4952 0 14.6381 0.0439582 15.781 0.0879164L15.781-0.74729 14.5062-0.835206C13.5831-0.879164 13.4952-1.09896 13.4952-2.8573L13.4952-8.7477C13.4952-10.0225 15.3414-11.3852 17.0118-11.3852 18.5064-11.3852 19.5174-9.93456 19.5174-7.82456L19.5174 0.0879164C20.2647 0.0439582 21.012 0 21.7593 0 22.5945 0 23.3858 0.0439582 24.221 0.0879164L24.221-0.74729 22.9022-0.835206C21.9791-0.879164 21.8912-1.09896 21.8912-2.8573L21.8912-8.57187C21.8912-11.3412 20.2647-13.0556 17.7152-13.0556 16.7041-13.0556 15.9129-12.8358 15.4293-12.3523L13.2754-10.4621C12.3962-12.3083 11.2533-13.0556 9.31914-13.0556 8.30812-13.0556 7.51687-12.8358 7.03331-12.3523L5.09915-10.5939 5.09915-12.9677 4.8354-13.0556C3.42874-12.4841 1.97812-12.0885 0.48354-11.9127L0.48354-11.1654 1.53854-11.1654C2.63749-11.1654 2.76937-10.9456 2.76937-9.09936L2.76937-2.8573C2.76937-1.09896 2.68145-0.879164 1.71437-0.835206L0.439582-0.74729Z" fill="#000000" fill-rule="nonzero" fill-opacity="1" transform="matrix(1 0 0 1.00094 914.786 581.138)"/><path d="M0.571457 0.0879164C1.75833 0.0439582 2.90124 0 4.08813 0 5.23104 0 6.37395 0.0439582 7.56081 0.0879164L7.56081-0.74729 6.28604-0.835206C5.31896-0.879164 5.23104-1.09896 5.23104-2.8573L5.23104-12.9677 4.96729-13.0556C3.56063-12.4841 2.10999-12.0885 0.659373-11.9127L0.659373-11.1654 1.67041-11.1654C2.76937-11.1654 2.90124-10.9456 2.90124-9.09936L2.90124-2.8573C2.90124-1.09896 2.81333-0.879164 1.84624-0.835206L0.571457-0.74729ZM2.68145-16.4843C2.68145-15.6491 3.25291-15.1216 4.08813-15.1216 4.92332-15.1216 5.45082-15.6491 5.45082-16.4843 5.45082-17.3195 4.92332-17.891 4.08813-17.891 3.25291-17.891 2.68145-17.3195 2.68145-16.4843Z" fill="#000000" fill-rule="nonzero" fill-opacity="1" transform="matrix(1 0 0 1.00094 939.411 581.138)"/><path d="M0.175833 0.0879164C1.31875 0.0439582 2.46166 0 3.60457 0 4.74749 0 5.93437 0.0439582 7.07729 0.0879164L7.07729-0.74729 5.84646-0.835206C4.87938-0.879164 4.79146-1.09896 4.79146-2.8573L4.79146-8.7477C4.79146-10.0225 6.6377-11.3852 8.35206-11.3852 10.1983-11.3852 11.4291-9.97853 11.4291-7.82456L11.4291 0.0879164C12.1325 0.0439582 12.9237 0 13.627 0 14.4183 0 15.1656 0.0439582 15.9568 0.0879164L15.9568-0.74729 14.8139-0.835206C13.8468-0.879164 13.7589-1.055 13.7589-2.8573L13.7589-8.2202C13.7589-11.4731 12.2204-13.0556 9.09936-13.0556 8.08831-13.0556 7.51687-12.8798 6.90145-12.3523L4.79146-10.55 4.79146-12.9677 4.52771-13.0556C3.12105-12.4841 1.67041-12.0885 0.175833-11.9127L0.175833-11.1654 1.23083-11.1654C2.32979-11.1654 2.46166-10.9456 2.46166-9.09936L2.46166-2.8573C2.46166-1.09896 2.37374-0.879164 1.40666-0.835206L0.175833-0.74729Z" fill="#000000" fill-rule="nonzero" fill-opacity="1" transform="matrix(1 0 0 1.00094 947.418 581.138)"/><path d="M560.732 241.693C560.732 237.309 557.182 233.759 552.796 233.759 548.413 233.759 544.862 237.309 544.862 241.693 544.862 246.078 548.413 249.628 552.796 249.628 557.182 249.628 560.732 246.078 560.732 241.693Z" fill="#000000" fill-rule="nonzero" fill-opacity="1" transform="matrix(1 0 0 1.00094 281 249.235)"/><path d="M0.571457 0.0879164C1.75833 0.0439582 2.90124 0 4.08813 0 5.23104 0 6.37395 0.0439582 7.56081 0.0879164L7.56081-0.74729 6.28604-0.835206C5.31896-0.879164 5.23104-1.09896 5.23104-2.8573L5.23104-12.9677 4.96729-13.0556C3.56063-12.4841 2.10999-12.0885 0.659373-11.9127L0.659373-11.1654 1.67041-11.1654C2.76937-11.1654 2.90124-10.9456 2.90124-9.09936L2.90124-2.8573C2.90124-1.09896 2.81333-0.879164 1.84624-0.835206L0.571457-0.74729ZM2.68145-16.4843C2.68145-15.6491 3.25291-15.1216 4.08813-15.1216 4.92332-15.1216 5.45082-15.6491 5.45082-16.4843 5.45082-17.3195 4.92332-17.891 4.08813-17.891 3.25291-17.891 2.68145-17.3195 2.68145-16.4843Z" fill="#000000" fill-rule="nonzero" fill-opacity="1" transform="matrix(1 0 0 1.00094 708.167 480.457)"/><path d="M0.175833 0.0879164C1.31875 0.0439582 2.46166 0 3.60457 0 4.74749 0 5.93437 0.0439582 7.07729 0.0879164L7.07729-0.74729 5.84646-0.835206C4.87938-0.879164 4.79146-1.09896 4.79146-2.8573L4.79146-8.7477C4.79146-10.0225 6.6377-11.3852 8.35206-11.3852 10.1983-11.3852 11.4291-9.97853 11.4291-7.82456L11.4291 0.0879164C12.1325 0.0439582 12.9237 0 13.627 0 14.4183 0 15.1656 0.0439582 15.9568 0.0879164L15.9568-0.74729 14.8139-0.835206C13.8468-0.879164 13.7589-1.055 13.7589-2.8573L13.7589-8.2202C13.7589-11.4731 12.2204-13.0556 9.09936-13.0556 8.08831-13.0556 7.51687-12.8798 6.90145-12.3523L4.79146-10.55 4.79146-12.9677 4.52771-13.0556C3.12105-12.4841 1.67041-12.0885 0.175833-11.9127L0.175833-11.1654 1.23083-11.1654C2.32979-11.1654 2.46166-10.9456 2.46166-9.09936L2.46166-2.8573C2.46166-1.09896 2.37374-0.879164 1.40666-0.835206L0.175833-0.74729Z" fill="#000000" fill-rule="nonzero" fill-opacity="1" transform="matrix(1 0 0 1.00094 716.171 480.457)"/><path d="M0.659373 0.0879164C1.80229 0.0439582 2.98916 0 4.13207 0 5.3629 0 6.59373 0.0439582 7.78062 0.0879164L7.78062-0.74729 6.32998-0.835206C5.3629-0.879164 5.27499-1.09896 5.27499-2.8573L5.27499-10.7258 8.7477-10.7258 8.96747-12.2204C7.73664-12.1325 6.50582-12.0885 5.27499-12.0885L5.27499-14.4623C5.27499-17.6712 5.67062-18.4624 7.20915-18.4624 7.95645-18.4624 8.48395-18.2427 9.31914-17.6712L9.93456-17.847 9.93456-18.4185 11.0775-18.4185C11.5171-18.4185 11.7808-17.891 11.7808-16.88L11.7808-2.8573C11.7808-1.09896 11.6929-0.879164 10.7698-0.835206L9.49497-0.74729 9.49497 0.0879164C10.6379 0.0439582 11.7808 0 12.9677 0 14.1106 0 15.2535 0.0439582 16.4404 0.0879164L16.4404-0.74729 15.1656-0.835206C14.1985-0.879164 14.1106-1.09896 14.1106-2.8573L14.1106-19.957 13.8908-20.2208C12.7039-19.8252 11.7808-19.6054 9.93456-19.2098L9.93456-20.001C9.62686-20.0449 9.53895-20.0449 9.31914-20.1329 8.70373-20.2647 8.48395-20.3087 8.17623-20.3087 7.34103-20.3087 6.37395-19.8252 5.75854-19.1218L4.13207-17.2756C3.29688-16.3525 2.94521-15.1216 2.94521-13.2754L2.94521-12.0885 1.01104-11.2533 1.01104-10.6379 2.94521-10.7258 2.94521-2.8573C2.94521-1.09896 2.8573-0.879164 1.93416-0.835206L0.659373-0.74729Z" fill="#000000" fill-rule="nonzero" fill-opacity="1" transform="matrix(1 0 0 1.00094 732.404 480.457)"/><path d="M0.703331-6.11021C0.703331-4.35188 1.09896-2.8573 1.8902-1.80229 2.98916-0.307707 4.87938 0.571457 6.98937 0.571457 8.00039 0.571457 9.01145 0.351666 10.1544-0.175833 10.9456-0.48354 11.5171-0.835206 11.605-1.01104L12.1764-1.93416 11.8248-2.24187C10.0225-1.18687 9.40706-0.923122 8.17623-0.923122 6.37395-0.923122 4.87938-1.71437 4.08813-3.07707 3.56063-4.00021 3.3848-4.79146 3.29688-6.4179L7.38498-6.4179C9.31914-6.4179 10.506-6.50582 12.4402-6.81354 12.4402-7.20915 12.4841-7.42895 12.4841-7.78062 12.4841-10.9896 10.4181-13.0556 7.29706-13.0556 6.28604-13.0556 5.05521-12.7039 3.91229-12.0445 1.62645-10.7258 0.703331-9.01145 0.703331-6.11021ZM3.3848-7.51687C3.3848-8.83561 3.47271-9.45103 3.82438-10.1544 4.43979-11.3852 5.62665-12.1325 6.98937-12.1325 7.86853-12.1325 8.61581-11.7808 9.09936-11.0335 9.71478-10.1104 10.0225-9.31914 10.0225-7.42895L6.90145-7.34103C5.58271-7.34103 4.87938-7.38498 3.3848-7.51687Z" fill="#000000" fill-rule="nonzero" fill-opacity="1" transform="matrix(1 0 0 1.00094 749.36 480.457)"/><path d="M0.703331-5.84646C0.703331-2.10999 3.3848 0.571457 7.12123 0.571457 8.57187 0.571457 10.6379 0.0439582 10.9456-0.395624L11.5171-1.27479 11.2533-1.71437C10.1983-1.14291 9.31914-0.879164 8.30812-0.879164 5.23104-0.879164 3.16499-3.29688 3.16499-6.98937 3.16499-9.93456 4.57165-11.605 7.07729-11.605 8.30812-11.605 9.62686-11.0775 10.1544-10.3741L10.3302-8.65978 11.1214-8.65978C11.1214-9.93456 11.2533-11.0775 11.5171-12.0885 10.3741-12.7479 9.40706-13.0556 8.26414-13.0556 6.9454-13.0556 5.3629-12.5281 3.69249-11.4731 1.75833-10.2423 0.703331-8.30812 0.703331-5.84646Z" fill="#000000" fill-rule="nonzero" fill-opacity="1" transform="matrix(1 0 0 1.00094 762.72 480.457)"/><path d="M0.615415-10.55 2.72541-10.6379 2.72541-2.63749C2.72541-0.571457 3.64855 0.351666 5.80248 0.351666 6.4179 0.351666 7.12123 0.175833 7.25312 0L8.61581-1.49458 8.26414-1.93416C7.56081-1.5825 7.12123-1.40666 6.59373-1.40666 5.53873-1.40666 5.05521-1.97812 5.05521-3.34082L5.05521-10.6379 8.65978-10.6379 8.87956-12.1325 5.05521-12.0006 5.05521-13.0556C5.05521-14.1985 5.14312-15.2095 5.3629-17.0118L5.05521-17.3195C4.39582-16.88 3.56063-16.5283 2.68145-16.2645 2.76937-15.4293 2.76937-14.9018 2.76937-14.0666L2.76937-12.0885 0.615415-11.1214Z" fill="#000000" fill-rule="nonzero" fill-opacity="1" transform="matrix(1 0 0 1.00094 775.102 480.457)"/><path d="M0.571457 0.0879164C1.75833 0.0439582 2.90124 0 4.08813 0 5.23104 0 6.37395 0.0439582 7.56081 0.0879164L7.56081-0.74729 6.28604-0.835206C5.31896-0.879164 5.23104-1.09896 5.23104-2.8573L5.23104-12.9677 4.96729-13.0556C3.56063-12.4841 2.10999-12.0885 0.659373-11.9127L0.659373-11.1654 1.67041-11.1654C2.76937-11.1654 2.90124-10.9456 2.90124-9.09936L2.90124-2.8573C2.90124-1.09896 2.81333-0.879164 1.84624-0.835206L0.571457-0.74729ZM2.68145-16.4843C2.68145-15.6491 3.25291-15.1216 4.08813-15.1216 4.92332-15.1216 5.45082-15.6491 5.45082-16.4843 5.45082-17.3195 4.92332-17.891 4.08813-17.891 3.25291-17.891 2.68145-17.3195 2.68145-16.4843Z" fill="#000000" fill-rule="nonzero" fill-opacity="1" transform="matrix(1 0 0 1.00094 784.194 480.457)"/><path d="M0.879164-6.06623C0.879164-2.10999 3.3848 0.571457 6.98937 0.571457 11.2533 0.571457 14.3304-2.4177 14.3304-6.59373 14.3304-10.3741 11.605-13.0556 7.78062-13.0556 3.69249-13.0556 0.879164-10.1983 0.879164-6.06623ZM3.47271-6.98937C3.47271-10.3302 4.8354-12.1325 7.25312-12.1325 9.84664-12.1325 11.7369-9.36311 11.7369-5.58271 11.7369-2.37374 10.3302-0.351666 8.04437-0.351666 5.31896-0.351666 3.47271-3.03313 3.47271-6.98937Z" fill="#000000" fill-rule="nonzero" fill-opacity="1" transform="matrix(1 0 0 1.00094 792.198 480.457)"/><path d="M0.175833 0.0879164C1.31875 0.0439582 2.46166 0 3.60457 0 4.74749 0 5.93437 0.0439582 7.07729 0.0879164L7.07729-0.74729 5.84646-0.835206C4.87938-0.879164 4.79146-1.09896 4.79146-2.8573L4.79146-8.7477C4.79146-10.0225 6.6377-11.3852 8.35206-11.3852 10.1983-11.3852 11.4291-9.97853 11.4291-7.82456L11.4291 0.0879164C12.1325 0.0439582 12.9237 0 13.627 0 14.4183 0 15.1656 0.0439582 15.9568 0.0879164L15.9568-0.74729 14.8139-0.835206C13.8468-0.879164 13.7589-1.055 13.7589-2.8573L13.7589-8.2202C13.7589-11.4731 12.2204-13.0556 9.09936-13.0556 8.08831-13.0556 7.51687-12.8798 6.90145-12.3523L4.79146-10.55 4.79146-12.9677 4.52771-13.0556C3.12105-12.4841 1.67041-12.0885 0.175833-11.9127L0.175833-11.1654 1.23083-11.1654C2.32979-11.1654 2.46166-10.9456 2.46166-9.09936L2.46166-2.8573C2.46166-1.09896 2.37374-0.879164 1.40666-0.835206L0.175833-0.74729Z" fill="#000000" fill-rule="nonzero" fill-opacity="1" transform="matrix(1 0 0 1.00094 807.427 480.457)"/><path d="M7.95645-10.6819C8.08831-11.2094 8.26414-11.8248 8.43998-12.2204L8.35206-12.4402 8.13228-12.3523C7.4729-12.2204 7.1652-12.1764 5.80248-12.1764L5.3629-12.1764 5.93437-15.2975C6.37395-17.7152 7.1652-18.7702 8.43998-18.7702 9.2752-18.7702 10.0225-18.3306 10.4621-17.6712L10.7258-17.7591C10.8577-18.2427 11.1654-19.0779 11.3852-19.6493L11.5171-20.0449C11.0775-20.2647 10.1983-20.4406 9.53895-20.4406 9.23122-20.4406 8.79164-20.3527 8.57187-20.2208 7.91248-19.9131 5.62665-18.2427 4.96729-17.5393 4.39582-16.9239 4.04416-16.0887 3.73646-14.5062L3.29688-12.3083C2.15395-11.7808 1.62645-11.5171 0.923122-11.2973L0.791248-10.6819 3.03313-10.6819 2.76937-9.09936C1.93416-3.69249 0.923122 1.49458 0.307707 3.42874-0.175833 5.05521-1.01104 5.93437-2.02208 5.93437-2.68145 5.93437-2.98916 5.75854-3.47271 5.14312L-3.86832 5.23104C-4.00021 5.8904-4.39582 7.20915-4.52771 7.4729-4.26396 7.60478-3.82438 7.6927-3.56063 7.6927-2.4177 7.6927-0.879164 6.81354 0.175833 5.53873 1.8902 3.51666 2.50562 1.5825 4.52771-8.2202 4.61563-8.57187 4.8354-9.62686 5.05521-10.6819Z" fill="#000000" fill-rule="nonzero" fill-opacity="1" transform="matrix(1 0 0 1.00094 296.339 458.5)"/><path d="M9.62686 6.98937C9.62686 6.90145 9.62686 6.81354 9.14331 6.32998 5.49479 2.68145 4.57165-2.81333 4.57165-7.25312 4.57165-12.3083 5.67062-17.3635 9.23122-21.012 9.62686-21.3637 9.62686-21.4077 9.62686-21.4956 9.62686-21.7154 9.49497-21.8033 9.31914-21.8033 9.05539-21.8033 6.4179-19.8252 4.70354-16.1327 3.20896-12.9237 2.8573-9.71478 2.8573-7.25312 2.8573-5.01124 3.20896-1.49458 4.79146 1.80229 6.54979 5.3629 9.05539 7.25312 9.31914 7.25312 9.49497 7.25312 9.62686 7.1652 9.62686 6.98937Z" fill="#000000" fill-rule="nonzero" fill-opacity="1" transform="matrix(1 0 0 1.00094 308.556 458.5)"/><path d="M0.571457-2.46166C0.571457-1.8902 0.527498-1.53854 0.351666-0.659373 0.307707-0.307707 0.263749-0.219791 0.263749-0.0439582 0.659373 0.175833 1.09896 0.307707 1.45062 0.307707 2.37374 0.307707 3.47271-0.48354 4.3079-1.80229L6.4179-5.05521 6.72562-3.16499C7.12123-0.791248 7.73664 0.307707 8.7477 0.307707 9.36311 0.307707 10.2423-0.175833 11.1654-0.967081L12.5281-2.19791 12.2644-2.72541C11.2533-1.8902 10.55-1.49458 10.1104-1.49458 9.71478-1.49458 9.31914-1.75833 9.05539-2.32979 8.79164-2.8573 8.48395-3.86832 8.35206-4.70354L7.86853-7.51687 8.83561-8.87956C10.1544-10.6819 10.9016-11.2973 11.7808-11.2973 12.2204-11.2973 12.5281-11.0775 12.66-10.6819L13.0556-10.7698 13.4952-13.1435C13.1435-13.3633 12.9237-13.4512 12.66-13.4512 11.5171-13.4512 10.4181-12.4402 8.70373-9.84664L7.64873-8.35206 7.51687-9.67081C7.1652-12.4402 6.4179-13.4512 4.74749-13.4512 4.04416-13.4512 3.42874-13.2314 3.16499-12.8358L1.5825-10.55 2.02208-10.2423C2.8573-11.2094 3.42874-11.605 3.95624-11.605 4.87938-11.605 5.49479-10.4621 5.97832-7.73664L6.28604-5.97832 5.14312-4.26396C3.95624-2.4177 2.98916-1.49458 2.24187-1.49458 1.80229-1.49458 1.49458-1.62645 1.45062-1.75833L1.14291-2.54958Z" fill="#000000" fill-rule="nonzero" fill-opacity="1" transform="matrix(1 0 0 1.00094 320.994 458.5)"/><path d="M8.39603-7.25312C8.39603-9.53895 8.08831-13.0556 6.46187-16.3085 4.74749-19.9131 2.24187-21.8033 1.93416-21.8033 1.75833-21.8033 1.67041-21.6714 1.67041-21.4956 1.67041-21.4077 1.67041-21.3637 2.19791-20.8362 5.05521-17.9349 6.72562-13.3194 6.72562-7.25312 6.72562-2.28583 5.62665 2.81333 2.02208 6.46187 1.67041 6.81354 1.67041 6.90145 1.67041 6.98937 1.67041 7.1652 1.75833 7.25312 1.93416 7.25312 2.24187 7.25312 4.8354 5.27499 6.54979 1.5825 8.04437-1.5825 8.39603-4.8354 8.39603-7.25312Z" fill="#000000" fill-rule="nonzero" fill-opacity="1" transform="matrix(1 0 0 1.00094 335.915 458.5)"/><path d="M0.571457-2.46166C0.571457-1.8902 0.527498-1.53854 0.351666-0.659373 0.307707-0.307707 0.263749-0.219791 0.263749-0.0439582 0.659373 0.175833 1.09896 0.307707 1.45062 0.307707 2.37374 0.307707 3.47271-0.48354 4.3079-1.80229L6.4179-5.05521 6.72562-3.16499C7.12123-0.791248 7.73664 0.307707 8.7477 0.307707 9.36311 0.307707 10.2423-0.175833 11.1654-0.967081L12.5281-2.19791 12.2644-2.72541C11.2533-1.8902 10.55-1.49458 10.1104-1.49458 9.71478-1.49458 9.31914-1.75833 9.05539-2.32979 8.79164-2.8573 8.48395-3.86832 8.35206-4.70354L7.86853-7.51687 8.83561-8.87956C10.1544-10.6819 10.9016-11.2973 11.7808-11.2973 12.2204-11.2973 12.5281-11.0775 12.66-10.6819L13.0556-10.7698 13.4952-13.1435C13.1435-13.3633 12.9237-13.4512 12.66-13.4512 11.5171-13.4512 10.4181-12.4402 8.70373-9.84664L7.64873-8.35206 7.51687-9.67081C7.1652-12.4402 6.4179-13.4512 4.74749-13.4512 4.04416-13.4512 3.42874-13.2314 3.16499-12.8358L1.5825-10.55 2.02208-10.2423C2.8573-11.2094 3.42874-11.605 3.95624-11.605 4.87938-11.605 5.49479-10.4621 5.97832-7.73664L6.28604-5.97832 5.14312-4.26396C3.95624-2.4177 2.98916-1.49458 2.24187-1.49458 1.80229-1.49458 1.49458-1.62645 1.45062-1.75833L1.14291-2.54958Z" fill="#000000" fill-rule="nonzero" fill-opacity="1" transform="matrix(1 0 0 1.00094 668.206 681.598)"/></g></g></g></g></g></svg>