<svg width="872" height="320" xmlns="http://www.w3.org/2000/svg" xmlns:xlink="http://www.w3.org/1999/xlink" xml:space="preserve" overflow="hidden"><defs><clipPath id="clip0"><rect x="204" y="344" width="872" height="320"/></clipPath><clipPath id="clip1"><rect x="204" y="344" width="872" height="320"/></clipPath><clipPath id="clip2"><rect x="204" y="345" width="872" height="318"/></clipPath><clipPath id="clip3"><rect x="204" y="345" width="872" height="318"/></clipPath><clipPath id="clip4"><rect x="204" y="345" width="872" height="318"/></clipPath><clipPath id="clip5"><rect x="243" y="363" width="5" height="8"/></clipPath><clipPath id="clip6"><rect x="243" y="347" width="28" height="45"/></clipPath><clipPath id="clip7"><rect x="243" y="360" width="805" height="236"/></clipPath></defs><g clip-path="url(#clip0)" transform="translate(-204 -344)"><g clip-path="url(#clip1)"><g clip-path="url(#clip2)"><g clip-path="url(#clip3)"><g clip-path="url(#clip4)"><g><path d="M39.9535 249.888 867.621 249.888 867.621 2.09333 39.9535 2.09333Z" fill="#FFFFFF" fill-rule="nonzero" fill-opacity="1" transform="matrix(1 0 0 1.00121 204 345.212)"/></g><path d="M0.00267648-5.43875 0.00267648 5.43857" stroke="#7F7F7F" stroke-width="0.509519" stroke-linecap="butt" stroke-linejoin="miter" stroke-miterlimit="10" stroke-opacity="1" fill="none" fill-rule="nonzero" transform="matrix(1 0 0 -1.00121 243.951 595.402)"/><path d="M0.00267648-8.68949e-05 821.81-8.68949e-05" stroke="#000000" stroke-width="1.52858" stroke-linecap="butt" stroke-linejoin="miter" stroke-miterlimit="10" stroke-opacity="1" fill="none" fill-rule="nonzero" transform="matrix(1 0 0 -1.00121 243.951 595.402)"/><path d="M867.621 249.888 858.246 245.2 861.762 249.888 858.246 254.575" fill="#000000" fill-rule="nonzero" fill-opacity="1" transform="matrix(1 0 0 1.00121 204 345.212)"/><path d="M0.00267648-8.68949e-05 0.00267648 241.935" stroke="#000000" stroke-width="1.52858" stroke-linecap="butt" stroke-linejoin="miter" stroke-miterlimit="10" stroke-opacity="1" fill="none" fill-rule="nonzero" transform="matrix(1 0 0 -1.00121 243.951 595.402)"/><g><path d="M39.9535 2.09333 35.2661 11.4683 39.9535 7.95265 44.6411 11.4683" fill="#000000" fill-rule="nonzero" fill-opacity="1" transform="matrix(1 0 0 1.00121 204 345.212)"/></g><path d="M5.36854-14.0624C2.20351-14.0624 0.600956-11.5384 0.600956-6.61053 0.600956-4.20671 1.00159-2.16344 1.72274-1.16185 2.44389-0.160255 3.60574 0.400638 4.84773 0.400638 7.93262 0.400638 9.49512-2.24357 9.49512-7.45186 9.49512-11.939 8.17301-14.0624 5.36854-14.0624ZM5.00798-13.3412C6.97109-13.3412 7.77237-11.3381 7.77237-6.45028 7.77237-2.08331 7.01117-0.32051 5.12816-0.32051 3.12497-0.32051 2.3237-2.36376 2.3237-7.33168 2.3237-11.6586 3.04485-13.3412 5.00798-13.3412Z" fill="#000000" fill-rule="nonzero" fill-opacity="1" transform="matrix(1 0 0 1.00121 238.857 624.049)"/><g><path d="M0.00267648 228.443 7.80509 226.31 15.6075 223.996 23.4099 221.502 31.2122 218.808 39.0147 215.924 46.8172 212.849 54.6197 209.563 62.4219 206.078 70.2244 202.382 78.0269 198.486 85.8294 194.389 93.6316 190.092 101.444 185.615 109.247 180.948 117.049 176.12 124.851 171.122 132.654 165.994 140.456 160.736 148.259 155.367 156.061 149.909 163.863 144.4 179.468 133.282 187.271 127.733 195.073 122.225 202.876 116.796 210.678 111.477 218.48 106.299 226.293 101.281 234.095 96.4734 241.898 91.8861 249.7 87.5693 257.503 83.5427 265.305 79.8369 273.107 76.4716 280.909 73.4769 288.711 70.8726 296.513 68.6791 304.318 66.9064 312.12 65.5642 319.922 64.6827 327.724 64.2421 335.526 64.2621 343.33 64.7328 351.132 65.6644 358.944 67.0266 366.746 68.8195 374.548 71.023 382.35 73.617 390.152 76.5918 397.957 79.9172 405.759 83.553 413.561 87.479 421.363 91.6557 429.165 96.0527 436.969 100.63 444.771 105.348 452.573 110.175 460.375 115.043 468.177 119.941 475.979 124.799 483.791 129.576 491.596 134.244 499.398 138.751 507.2 143.048 515.002 147.094 522.804 150.85 530.608 154.275 538.41 157.33 546.212 159.995 554.014 162.228 561.816 164.011 569.618 165.313 577.423 166.124 585.225 166.435 593.027 166.234 600.829 165.533 608.641 164.331 616.443 162.649 624.247 160.515 632.049 157.961 639.851 155.017 647.653 151.741 655.455 148.186 663.257 144.4 671.062 140.453 678.864 136.417 686.666 132.371 694.468 128.374 702.27 124.518 710.072 120.862 717.876 117.497 725.678 114.472 733.49 111.858 741.292 109.724 749.094 108.112 756.896 107.06 764.701 106.61 772.503 106.77" stroke="#000000" stroke-width="2.0381" stroke-linecap="butt" stroke-linejoin="miter" stroke-miterlimit="10" stroke-opacity="1" fill="none" fill-rule="nonzero" transform="matrix(1 0 0 -1.00121 243.951 595.402)"/></g><g clip-path="url(#clip5)"><path d="M42.4976 21.4441C42.4976 20.0319 41.3558 18.8901 39.9535 18.8901 38.5415 18.8901 37.3994 20.0319 37.3994 21.4441 37.3994 22.8464 38.5415 23.9882 39.9535 23.9882 41.3558 23.9882 42.4976 22.8464 42.4976 21.4441Z" fill="#000000" fill-rule="nonzero" fill-opacity="1" transform="matrix(1 0 0 1.00121 204 345.212)"/></g><g clip-path="url(#clip6)"><path d="M2.54672 228.443C2.54672 229.856 1.40491 230.997 0.00267648 230.997-1.40957 230.997-2.55139 229.856-2.55139 228.443-2.55139 227.041-1.40957 225.899 0.00267648 225.899 1.40491 225.899 2.54672 227.041 2.54672 228.443Z" stroke="#000000" stroke-width="1.52858" stroke-linecap="butt" stroke-linejoin="miter" stroke-miterlimit="10" stroke-opacity="1" fill="none" fill-rule="nonzero" transform="matrix(1 0 0 -1.00121 243.951 595.402)"/></g><g><path d="M220.714-8.68949e-05 220.714 247.794" stroke="#A3D9F6" stroke-width="1.52858" stroke-linecap="butt" stroke-linejoin="miter" stroke-miterlimit="10" stroke-opacity="1" fill="none" fill-rule="nonzero" transform="matrix(1 0 0 -1.00121 243.951 595.402)"/></g><g clip-path="url(#clip7)"><path d="M0.00267648 205.337 7.80509 203.233 15.6075 201.03 23.4099 198.706 31.2122 196.282 39.0147 193.758 46.8172 191.124 54.6197 188.38 62.4219 185.525 70.2244 182.58 78.0269 179.516 85.8294 176.351 93.6316 173.075 101.444 169.7 109.247 166.214 117.049 162.619 124.851 158.923 132.654 155.127 140.456 151.21 148.259 147.194 156.061 143.078 163.863 138.851 171.666 134.514 179.468 130.077 187.271 125.53 195.073 120.872 202.876 116.115 210.678 111.257 218.48 106.279 226.293 101.211 234.095 96.0228 241.898 90.7343 249.7 85.3358 257.503 79.8369 265.305 74.2279 273.107 68.519 280.909 62.6996 288.711 56.7703 296.513 50.7407 304.318 44.6009 312.12 38.3608 319.922 32.0108 327.724 25.5506 335.526 18.9901 343.33 12.3195 351.132 5.54873 358.944-1.33221 366.746-8.32333 374.548-15.4146 382.35-22.6161 390.152-29.9178 397.957-37.3295 405.759-44.8515 413.561-52.4737 421.363-60.2059 429.165-68.0383 436.969-75.9809 444.771-84.0337 452.573-92.1868 460.375-100.45 468.177-108.813 475.979-117.287 483.791-125.87 491.596-134.554 499.398-143.338 507.2-152.242 515.002-161.247 522.804-170.351 530.608-179.566 538.41-188.891 546.212-198.316 554.014-207.851 561.816-217.496 569.618-227.242 577.423-237.097 585.225-247.053 593.027-257.12 600.829-267.285 608.641-277.572 616.443-287.949 624.247-298.444 632.049-309.031 639.851-319.738 647.653-330.547 655.455-341.464 663.257-352.48 671.062-363.609 678.864-374.837 686.666-386.176 694.468-397.622 702.27-409.17 710.072-420.831 717.876-432.599 725.678-444.467 733.49-456.437 741.292-468.525 749.094-480.705 756.896-493.005 764.701-505.405 772.503-517.904" stroke="#1BA0EA" stroke-width="2.0381" stroke-linecap="butt" stroke-linejoin="miter" stroke-miterlimit="10" stroke-opacity="1" fill="none" fill-rule="nonzero" transform="matrix(1 0 0 -1.00121 243.951 595.402)"/></g><path d="M223.258 104.847C223.258 106.249 222.126 107.391 220.714 107.391 219.312 107.391 218.17 106.249 218.17 104.847 218.17 103.435 219.312 102.293 220.714 102.293 222.126 102.293 223.258 103.435 223.258 104.847Z" stroke="#000000" stroke-width="1.52858" stroke-linecap="butt" stroke-linejoin="miter" stroke-miterlimit="10" stroke-opacity="1" fill="#000000" fill-rule="nonzero" fill-opacity="1" transform="matrix(1 0 0 -1.00121 243.951 595.402)"/><g><path d="M311.207-8.68949e-05 311.207 247.794" stroke="#FBBFBD" stroke-width="1.52858" stroke-linecap="butt" stroke-linejoin="miter" stroke-miterlimit="10" stroke-opacity="1" fill="none" fill-rule="nonzero" transform="matrix(1 0 0 -1.00121 243.951 595.402)"/></g><g><path d="M0.00267648 129.857 7.80509 127.813 15.6075 125.79 23.4099 123.797 31.2122 121.824 39.0147 119.871 46.8172 117.948 54.6197 116.035 62.4219 114.151 70.2244 112.289 78.0269 110.446 85.8294 108.633 93.6316 106.83 101.444 105.057 109.247 103.304 117.049 101.582 124.851 99.8688 132.654 98.1862 140.456 96.5235 148.259 94.8808 156.061 93.2582 163.863 91.6659 171.666 90.0932 179.468 88.5407 187.271 87.0085 195.073 85.5059 202.876 84.0237 210.678 82.5613 218.48 81.119 226.293 79.6967 234.095 78.3046 241.898 76.9324 249.7 75.5802 257.503 74.2481 265.305 72.936 273.107 71.6539 280.909 70.3919 288.711 69.1499 296.513 67.938 304.318 66.7361 312.12 65.5642 319.922 64.4124 327.724 63.2806 335.526 62.179 343.33 61.097 351.132 60.0253 358.944 58.9937 366.746 57.9722 374.548 56.9805 382.35 55.999 390.152 55.0475 397.957 54.1261 405.759 53.2145 413.561 52.3333 421.363 51.4718 429.165 50.6305 436.969 49.8091 444.771 49.0179 452.573 48.2367 460.375 47.4854 468.177 46.7643 475.979 46.0531 483.791 45.3721 491.596 44.7111 499.398 44.07 507.2 43.4491 515.002 42.8582 522.804 42.2772 530.608 41.7264 538.41 41.1955 546.212 40.6948 554.014 40.2038 561.816 39.7433 569.618 39.3024 577.423 38.8917 585.225 38.4913 593.027 38.1205 600.829 37.7701 608.641 37.4395 616.443 37.1291 624.247 36.8485 632.049 36.5882 639.851 36.3478 647.653 36.1274 655.455 35.9371 663.257 35.7569 671.062 35.6065 678.864 35.4763 686.666 35.3761 694.468 35.2861 702.27 35.226 710.072 35.1858 717.876 35.1659 725.678 35.1759 733.49 35.206 741.292 35.2559 749.094 35.3262 756.896 35.4162 764.701 35.5364 772.503 35.6666" stroke="#F5615C" stroke-width="2.0381" stroke-linecap="butt" stroke-linejoin="miter" stroke-miterlimit="10" stroke-opacity="1" fill="none" fill-rule="nonzero" transform="matrix(1 0 0 -1.00121 243.951 595.402)"/></g><path d="M313.751 65.7046C313.751 67.1067 312.611 68.2485 311.207 68.2485 309.795 68.2485 308.665 67.1067 308.665 65.7046 308.665 64.2922 309.795 63.1505 311.207 63.1505 312.611 63.1505 313.751 64.2922 313.751 65.7046Z" stroke="#000000" stroke-width="1.52858" stroke-linecap="butt" stroke-linejoin="miter" stroke-miterlimit="10" stroke-dasharray="7.64299 5.09532" stroke-opacity="1" fill="#000000" fill-rule="nonzero" fill-opacity="1" transform="matrix(1 0 0 -1.00121 243.951 595.402)"/><path d="M723.333 35.1659C723.333 36.9286 721.911 38.3509 720.149 38.3509 718.395 38.3509 716.963 36.9286 716.963 35.1659 716.963 33.4132 718.395 31.9809 720.149 31.9809 721.911 31.9809 723.333 33.4132 723.333 35.1659Z" stroke="#FF0000" stroke-width="1.52858" stroke-linecap="butt" stroke-linejoin="miter" stroke-miterlimit="10" stroke-dasharray="7.64299 5.09532" stroke-opacity="1" fill="#FF0000" fill-rule="nonzero" fill-opacity="1" transform="matrix(1 0 0 -1.00121 243.951 595.402)"/><path d="M0.360574 0.0801275C1.3221 0.0400637 2.3237 0 3.28523 0 4.20671 0 5.08811 0.0400637 6.00956 0.0801275L6.00956-0.600956 5.04803-0.681084C4.24676-0.721147 4.20671-0.881402 4.20671-2.3237L4.20671-7.21147C4.20671-8.21308 5.68905-9.33487 7.0913-9.33487 8.33326-9.33487 9.17461-8.17301 9.17461-6.45028L9.17461-2.3237C9.17461-0.881402 9.09448-0.721147 8.33326-0.681084L7.25155-0.600956 7.25155 0.0801275C8.21308 0.0400637 9.17461 0 10.1361 0 11.0977 0 12.0191 0.0400637 12.9807 0.0801275L12.9807-0.600956 11.939-0.681084C11.1778-0.721147 11.0977-0.881402 11.0977-2.3237L11.0977-7.21147C11.0977-8.21308 12.6201-9.33487 13.9823-9.33487 15.2242-9.33487 16.0656-8.17301 16.0656-6.45028L16.0656 0.0801275C16.6665 0.0400637 17.2675 0 17.8684 0 18.5495 0 19.2306 0.0400637 19.9117 0.0801275L19.9117-0.600956 18.83-0.681084C18.0688-0.721147 17.9886-0.881402 17.9886-2.3237L17.9886-7.05122C17.9886-9.33487 16.6665-10.7371 14.5432-10.7371 13.7419-10.7371 13.1009-10.5368 12.6601-10.1762L10.9374-8.61372C10.2163-10.1361 9.25474-10.7371 7.69224-10.7371 6.81084-10.7371 6.16982-10.5368 5.76918-10.1762L4.20671-8.69385 4.20671-10.657 4.00637-10.7371C2.80446-10.2563 1.64261-9.93581 0.400638-9.81563L0.400638-9.17461 1.24198-9.17461C2.16344-9.17461 2.28363-9.01436 2.28363-7.49193L2.28363-2.3237C2.28363-0.881402 2.20351-0.721147 1.40223-0.681084L0.360574-0.600956Z" fill="#000000" fill-rule="nonzero" fill-opacity="1" transform="matrix(1 0 0 1.00121 532.782 586.17)"/><path d="M0.480765 0.0801275C1.44229 0.0400637 2.36376 0 3.36536 0 4.32689 0 5.24836 0.0400637 6.20989 0.0801275L6.20989-0.600956 5.16824-0.681084C4.36696-0.721147 4.32689-0.881402 4.32689-2.3237L4.32689-10.657 4.0865-10.7371C2.92467-10.2563 1.72274-9.93581 0.520829-9.81563L0.520829-9.17461 1.36217-9.17461C2.28363-9.17461 2.36376-9.01436 2.36376-7.49193L2.36376-2.3237C2.36376-0.881402 2.3237-0.721147 1.52242-0.681084L0.480765-0.600956ZM2.20351-13.5816C2.20351-12.8605 2.64421-12.4198 3.36536-12.4198 4.04645-12.4198 4.48714-12.8605 4.48714-13.5816 4.48714-14.2226 4.04645-14.7034 3.36536-14.7034 2.64421-14.7034 2.20351-14.2627 2.20351-13.5816Z" fill="#000000" fill-rule="nonzero" fill-opacity="1" transform="matrix(1 0 0 1.00121 553.028 586.17)"/><path d="M0.120191 0.0801275C1.08172 0.0400637 2.04325 0 2.96472 0 3.92625 0 4.88778 0.0400637 5.80926 0.0801275L5.80926-0.600956 4.80765-0.681084C4.00637-0.721147 3.92625-0.881402 3.92625-2.3237L3.92625-7.21147C3.92625-8.21308 5.44867-9.33487 6.85091-9.33487 8.37334-9.33487 9.41499-8.21308 9.41499-6.45028L9.41499 0.0801275C9.97589 0.0400637 10.6169 0 11.2178 0 11.8589 0 12.4598 0.0400637 13.1009 0.0801275L13.1009-0.600956 12.1794-0.681084C11.3781-0.721147 11.3381-0.881402 11.3381-2.3237L11.3381-6.77079C11.3381-9.45504 10.056-10.7371 7.49193-10.7371 6.65058-10.7371 6.16982-10.5768 5.68905-10.1762L3.92625-8.65377 3.92625-10.657 3.72594-10.7371C2.56408-10.2563 1.36217-9.93581 0.160255-9.81563L0.160255-9.17461 1.00159-9.17461C1.92306-9.17461 2.00319-9.01436 2.00319-7.49193L2.00319-2.3237C2.00319-0.881402 1.96312-0.721147 1.16185-0.681084L0.120191-0.600956Z" fill="#000000" fill-rule="nonzero" fill-opacity="1" transform="matrix(1 0 0 1.00121 559.61 586.17)"/><path d="M0.480765 0.0801275C1.44229 0.0400637 2.36376 0 3.36536 0 4.32689 0 5.24836 0.0400637 6.20989 0.0801275L6.20989-0.600956 5.16824-0.681084C4.36696-0.721147 4.32689-0.881402 4.32689-2.3237L4.32689-10.657 4.0865-10.7371C2.92467-10.2563 1.72274-9.93581 0.520829-9.81563L0.520829-9.17461 1.36217-9.17461C2.28363-9.17461 2.36376-9.01436 2.36376-7.49193L2.36376-2.3237C2.36376-0.881402 2.3237-0.721147 1.52242-0.681084L0.480765-0.600956ZM2.20351-13.5816C2.20351-12.8605 2.64421-12.4198 3.36536-12.4198 4.04645-12.4198 4.48714-12.8605 4.48714-13.5816 4.48714-14.2226 4.04645-14.7034 3.36536-14.7034 2.64421-14.7034 2.20351-14.2627 2.20351-13.5816Z" fill="#000000" fill-rule="nonzero" fill-opacity="1" transform="matrix(1 0 0 1.00121 572.953 586.17)"/><path d="M0.360574 0.0801275C1.3221 0.0400637 2.3237 0 3.28523 0 4.20671 0 5.08811 0.0400637 6.00956 0.0801275L6.00956-0.600956 5.04803-0.681084C4.24676-0.721147 4.20671-0.881402 4.20671-2.3237L4.20671-7.21147C4.20671-8.21308 5.68905-9.33487 7.0913-9.33487 8.33326-9.33487 9.17461-8.17301 9.17461-6.45028L9.17461-2.3237C9.17461-0.881402 9.09448-0.721147 8.33326-0.681084L7.25155-0.600956 7.25155 0.0801275C8.21308 0.0400637 9.17461 0 10.1361 0 11.0977 0 12.0191 0.0400637 12.9807 0.0801275L12.9807-0.600956 11.939-0.681084C11.1778-0.721147 11.0977-0.881402 11.0977-2.3237L11.0977-7.21147C11.0977-8.21308 12.6201-9.33487 13.9823-9.33487 15.2242-9.33487 16.0656-8.17301 16.0656-6.45028L16.0656 0.0801275C16.6665 0.0400637 17.2675 0 17.8684 0 18.5495 0 19.2306 0.0400637 19.9117 0.0801275L19.9117-0.600956 18.83-0.681084C18.0688-0.721147 17.9886-0.881402 17.9886-2.3237L17.9886-7.05122C17.9886-9.33487 16.6665-10.7371 14.5432-10.7371 13.7419-10.7371 13.1009-10.5368 12.6601-10.1762L10.9374-8.61372C10.2163-10.1361 9.25474-10.7371 7.69224-10.7371 6.81084-10.7371 6.16982-10.5368 5.76918-10.1762L4.20671-8.69385 4.20671-10.657 4.00637-10.7371C2.80446-10.2563 1.64261-9.93581 0.400638-9.81563L0.400638-9.17461 1.24198-9.17461C2.16344-9.17461 2.28363-9.01436 2.28363-7.49193L2.28363-2.3237C2.28363-0.881402 2.20351-0.721147 1.40223-0.681084L0.360574-0.600956Z" fill="#000000" fill-rule="nonzero" fill-opacity="1" transform="matrix(1 0 0 1.00121 579.535 586.17)"/><path d="M0.400638-9.17461 1.24198-9.17461C2.16344-9.17461 2.28363-9.01436 2.28363-7.49193L2.28363-3.64581C2.28363-2.04325 2.40383-1.3221 2.80446-0.761211 3.3253-0.0801275 4.20671 0.280446 5.48875 0.280446 6.5304 0.280446 7.45186-0.0400637 8.05283-0.600956L9.6153-2.04325C9.6153-1.36217 9.57525-1.00159 9.49512 0.0801275 10.1361 0.0400637 10.7772 0 11.4182 0 12.0592 0 12.6601 0.0400637 13.3012 0.0801275L13.3012-0.600956 12.3797-0.681084C11.5784-0.721147 11.5384-0.881402 11.5384-2.3237L11.5384-10.657 11.3381-10.7371C10.1361-10.2563 8.97428-9.93581 7.73232-9.81563L7.73232-9.17461 8.61372-9.17461C9.49512-9.17461 9.6153-9.01436 9.6153-7.49193L9.6153-3.76599C9.6153-3.24518 9.29479-2.60416 8.77397-2.08331 8.09288-1.44229 7.37173-1.12179 6.49033-1.12179 5.68905-1.12179 5.04803-1.36217 4.68747-1.80287 4.36696-2.16344 4.20671-2.88459 4.20671-3.8862L4.20671-10.657 4.00637-10.7371C2.80446-10.2563 1.64261-9.93581 0.400638-9.81563Z" fill="#000000" fill-rule="nonzero" fill-opacity="1" transform="matrix(1 0 0 1.00121 599.781 586.17)"/><path d="M0.360574 0.0801275C1.3221 0.0400637 2.3237 0 3.28523 0 4.20671 0 5.08811 0.0400637 6.00956 0.0801275L6.00956-0.600956 5.04803-0.681084C4.24676-0.721147 4.20671-0.881402 4.20671-2.3237L4.20671-7.21147C4.20671-8.21308 5.68905-9.33487 7.0913-9.33487 8.33326-9.33487 9.17461-8.17301 9.17461-6.45028L9.17461-2.3237C9.17461-0.881402 9.09448-0.721147 8.33326-0.681084L7.25155-0.600956 7.25155 0.0801275C8.21308 0.0400637 9.17461 0 10.1361 0 11.0977 0 12.0191 0.0400637 12.9807 0.0801275L12.9807-0.600956 11.939-0.681084C11.1778-0.721147 11.0977-0.881402 11.0977-2.3237L11.0977-7.21147C11.0977-8.21308 12.6201-9.33487 13.9823-9.33487 15.2242-9.33487 16.0656-8.17301 16.0656-6.45028L16.0656 0.0801275C16.6665 0.0400637 17.2675 0 17.8684 0 18.5495 0 19.2306 0.0400637 19.9117 0.0801275L19.9117-0.600956 18.83-0.681084C18.0688-0.721147 17.9886-0.881402 17.9886-2.3237L17.9886-7.05122C17.9886-9.33487 16.6665-10.7371 14.5432-10.7371 13.7419-10.7371 13.1009-10.5368 12.6601-10.1762L10.9374-8.61372C10.2163-10.1361 9.25474-10.7371 7.69224-10.7371 6.81084-10.7371 6.16982-10.5368 5.76918-10.1762L4.20671-8.69385 4.20671-10.657 4.00637-10.7371C2.80446-10.2563 1.64261-9.93581 0.400638-9.81563L0.400638-9.17461 1.24198-9.17461C2.16344-9.17461 2.28363-9.01436 2.28363-7.49193L2.28363-2.3237C2.28363-0.881402 2.20351-0.721147 1.40223-0.681084L0.360574-0.600956Z" fill="#000000" fill-rule="nonzero" fill-opacity="1" transform="matrix(1 0 0 1.00121 613.607 586.17)"/><path d="M0.721147-4.96791C0.721147-1.72274 2.76441 0.440701 5.72913 0.440701 9.25474 0.440701 11.7787-2.00319 11.7787-5.44867 11.7787-8.53359 9.53517-10.7371 6.4102-10.7371 3.04485-10.7371 0.721147-8.37334 0.721147-4.96791ZM2.88459-5.76918C2.88459-8.49352 3.96632-9.97589 5.96951-9.97589 8.09288-9.97589 9.65538-7.69224 9.65538-4.56727 9.65538-1.96312 8.49352-0.280446 6.61053-0.280446 4.36696-0.280446 2.88459-2.48395 2.88459-5.76918Z" fill="#000000" fill-rule="nonzero" fill-opacity="1" transform="matrix(1 0 0 1.00121 639.583 586.17)"/><path d="M0.520829 0.0801275C1.48236 0.0400637 2.44389 0 3.40543 0 4.36696 0 5.28841 0.0400637 6.24995 0.0801275L6.24995-0.600956 5.20829-0.681084C4.40701-0.721147 4.36696-0.881402 4.36696-2.3237L4.36696-8.81402 7.21147-8.81402 7.37173-10.056C6.33007-9.97589 5.36854-9.93581 4.36696-9.93581L4.36696-11.8989C4.36696-14.5432 4.6474-15.1842 5.96951-15.1842 6.57046-15.1842 6.97109-15.0239 7.53198-14.5432L7.81244-14.6633 7.81244-16.4261C7.33168-16.6265 7.05122-16.6665 6.77079-16.6665 6.00956-16.6665 5.20829-16.306 4.72752-15.705L3.40543-14.2226C2.72433-13.4614 2.44389-12.4198 2.44389-10.8973L2.44389-9.93581 0.841339-9.25474 0.841339-8.7339 2.44389-8.81402 2.44389-2.3237C2.44389-0.881402 2.36376-0.721147 1.56249-0.681084L0.520829-0.600956Z" fill="#000000" fill-rule="nonzero" fill-opacity="1" transform="matrix(1 0 0 1.00121 652.104 586.17)"/><path d="M0.681084-0.0801275C1.883 0.280446 2.76441 0.440701 3.84612 0.440701 6.81084 0.440701 8.97428-1.16185 8.97428-3.40543 8.97428-4.0865 8.77397-4.6474 8.33326-5.08811 7.73232-5.68905 6.97109-5.92943 4.96791-6.33007 3.08492-6.69066 2.44389-7.13135 2.44389-8.21308 2.44389-9.33487 3.24518-9.97589 4.6474-9.97589 6.16982-9.97589 7.37173-9.17461 7.37173-8.09288L7.37173-7.57206 8.01275-7.57206C8.01275-8.93423 8.05283-9.45504 8.09288-10.1762 6.89096-10.5768 6.08969-10.7371 5.12816-10.7371 2.48395-10.7371 0.841339-9.49512 0.841339-7.41181 0.841339-6.33007 1.36217-5.5288 2.40383-5.04803 3.04485-4.80765 4.24676-4.40701 5.80926-4.0865 6.81084-3.84612 7.25155-3.36536 7.25155-2.48395 7.25155-1.24198 6.12977-0.400638 4.48714-0.400638 2.80446-0.400638 1.64261-1.20191 1.64261-2.3237L1.64261-3.28523 0.921466-3.28523C0.921466-1.68268 0.881402-1.00159 0.681084-0.0801275Z" fill="#000000" fill-rule="nonzero" fill-opacity="1" transform="matrix(1 0 0 1.00121 665.47 586.17)"/><path d="M0.600956-5.00798C0.600956-3.56569 0.921466-2.3237 1.56249-1.48236 2.44389-0.240382 4.00637 0.440701 5.72913 0.440701 6.57046 0.440701 7.41181 0.280446 8.37334-0.120191 8.97428-0.400638 9.45504-0.681084 9.57525-0.841339L10.0159-1.60255 9.7355-1.84293C8.25313-0.96153 7.73232-0.761211 6.73071-0.761211 5.24836-0.761211 4.00637-1.40223 3.36536-2.52402 2.92467-3.28523 2.76441-3.92625 2.72433-5.28841L6.08969-5.28841C7.65219-5.28841 8.65377-5.32849 10.2163-5.60892 10.2563-5.92943 10.2563-6.12977 10.2563-6.4102 10.2563-9.01436 8.57364-10.7371 6.00956-10.7371 5.16824-10.7371 4.16663-10.4567 3.24518-9.89576 1.36217-8.81402 0.600956-7.41181 0.600956-5.00798ZM2.76441-6.16982C2.76441-7.25155 2.88459-7.77237 3.16505-8.37334 3.64581-9.37492 4.6474-9.97589 5.72913-9.97589 6.49033-9.97589 7.0913-9.69543 7.49193-9.09448 8.01275-8.33326 8.21308-7.65219 8.21308-6.12977L5.649-6.04964C4.60734-6.04964 4.00637-6.08969 2.76441-6.16982Z" fill="#000000" fill-rule="nonzero" fill-opacity="1" transform="matrix(1 0 0 1.00121 675.193 586.17)"/><path d="M0.600956-4.80765C0.600956-1.72274 2.76441 0.440701 5.84931 0.440701 7.05122 0.440701 8.77397 0.0400637 8.97428-0.32051L9.45504-1.04166 9.25474-1.40223C8.37334-0.921466 7.65219-0.721147 6.81084-0.721147 4.28683-0.721147 2.60416-2.68428 2.60416-5.72913 2.60416-8.17301 3.76599-9.57525 5.80926-9.57525 6.81084-9.57525 7.93262-9.09448 8.33326-8.53359L8.49352-7.13135 9.13453-7.13135C9.13453-8.17301 9.25474-9.13453 9.45504-9.93581 8.53359-10.4967 7.73232-10.7371 6.81084-10.7371 5.68905-10.7371 4.40701-10.2964 3.04485-9.45504 1.44229-8.41339 0.600956-6.81084 0.600956-4.80765Z" fill="#000000" fill-rule="nonzero" fill-opacity="1" transform="matrix(1 0 0 1.00121 686.175 586.17)"/><path d="M0.721147-4.96791C0.721147-1.72274 2.76441 0.440701 5.72913 0.440701 9.25474 0.440701 11.7787-2.00319 11.7787-5.44867 11.7787-8.53359 9.53517-10.7371 6.4102-10.7371 3.04485-10.7371 0.721147-8.37334 0.721147-4.96791ZM2.88459-5.76918C2.88459-8.49352 3.96632-9.97589 5.96951-9.97589 8.09288-9.97589 9.65538-7.69224 9.65538-4.56727 9.65538-1.96312 8.49352-0.280446 6.61053-0.280446 4.36696-0.280446 2.88459-2.48395 2.88459-5.76918Z" fill="#000000" fill-rule="nonzero" fill-opacity="1" transform="matrix(1 0 0 1.00121 696.355 586.17)"/><path d="M0.120191 0.0801275C1.08172 0.0400637 2.04325 0 2.96472 0 3.92625 0 4.88778 0.0400637 5.80926 0.0801275L5.80926-0.600956 4.80765-0.681084C4.00637-0.721147 3.92625-0.881402 3.92625-2.3237L3.92625-7.21147C3.92625-8.21308 5.44867-9.33487 6.85091-9.33487 8.37334-9.33487 9.41499-8.21308 9.41499-6.45028L9.41499 0.0801275C9.97589 0.0400637 10.6169 0 11.2178 0 11.8589 0 12.4598 0.0400637 13.1009 0.0801275L13.1009-0.600956 12.1794-0.681084C11.3781-0.721147 11.3381-0.881402 11.3381-2.3237L11.3381-6.77079C11.3381-9.45504 10.056-10.7371 7.49193-10.7371 6.65058-10.7371 6.16982-10.5768 5.68905-10.1762L3.92625-8.65377 3.92625-10.657 3.72594-10.7371C2.56408-10.2563 1.36217-9.93581 0.160255-9.81563L0.160255-9.17461 1.00159-9.17461C1.92306-9.17461 2.00319-9.01436 2.00319-7.49193L2.00319-2.3237C2.00319-0.881402 1.96312-0.721147 1.16185-0.681084L0.120191-0.600956Z" fill="#000000" fill-rule="nonzero" fill-opacity="1" transform="matrix(1 0 0 1.00121 708.875 586.17)"/><path d="M0.801275-4.96791C0.801275-3.12497 1.40223-1.60255 2.52402-0.681084 3.3253-0.0400637 4.40701 0.280446 5.88938 0.280446 6.33007 0.280446 6.89096 0.200319 6.97109 0.0801275L9.53517-2.04325 9.41499 0.0801275C10.0159 0.0400637 10.5768 0 11.1778 0 11.8589 0 12.58 0.0400637 13.2611 0.0801275L13.2611-0.600956 12.2195-0.681084C11.4182-0.721147 11.3781-0.881402 11.3781-2.3237L11.3781-16.4662 11.1778-16.6265C10.1361-16.2659 9.41499-16.0656 7.57206-15.7851L7.57206-15.1441 8.8541-15.1441C9.29479-15.1441 9.45504-14.9037 9.45504-14.2226L9.45504-10.0159C8.17301-10.5768 7.53198-10.7371 6.73071-10.7371 6.08969-10.7371 5.5288-10.6169 4.96791-10.2964L2.96472-9.25474C1.64261-8.57364 0.801275-6.89096 0.801275-4.96791ZM2.80446-5.68905C2.80446-8.21308 4.04645-9.65538 6.08969-9.65538 6.97109-9.65538 7.89257-9.37492 8.69385-8.81402 9.17461-8.49352 9.45504-8.21308 9.45504-8.01275L9.45504-5.04803C9.45504-3.56569 9.41499-3.36536 9.09448-2.80446 8.45346-1.72274 7.33168-1.04166 6.24995-1.04166 4.24676-1.04166 2.80446-2.96472 2.80446-5.68905Z" fill="#000000" fill-rule="nonzero" fill-opacity="1" transform="matrix(1 0 0 1.00121 722.219 586.17)"/><path d="M0.400638-5.04803 0.520829-4.92785 6.45028-4.92785 7.13135-6.45028 7.05122-6.57046 1.00159-6.57046Z" fill="#000000" fill-rule="nonzero" fill-opacity="1" transform="matrix(1 0 0 1.00121 736.229 586.17)"/><path d="M0.721147-4.96791C0.721147-1.72274 2.76441 0.440701 5.72913 0.440701 9.25474 0.440701 11.7787-2.00319 11.7787-5.44867 11.7787-8.53359 9.53517-10.7371 6.4102-10.7371 3.04485-10.7371 0.721147-8.37334 0.721147-4.96791ZM2.88459-5.76918C2.88459-8.49352 3.96632-9.97589 5.96951-9.97589 8.09288-9.97589 9.65538-7.69224 9.65538-4.56727 9.65538-1.96312 8.49352-0.280446 6.61053-0.280446 4.36696-0.280446 2.88459-2.48395 2.88459-5.76918Z" fill="#000000" fill-rule="nonzero" fill-opacity="1" transform="matrix(1 0 0 1.00121 743.864 586.17)"/><path d="M0.480765 0.0801275C1.40223 0.0400637 2.36376 0 3.28523 0 4.40701 0 5.48875 0.0400637 6.57046 0.0801275L6.57046-0.600956 5.36854-0.681084C4.36696-0.761211 4.32689-0.841339 4.32689-2.3237L4.32689-6.29002C4.32689-7.65219 5.20829-8.81402 6.33007-8.81402 7.05122-8.81402 7.53198-8.49352 7.89257-7.73232L8.37334-7.73232 8.57364-10.4967C8.33326-10.657 7.89257-10.7371 7.49193-10.7371 6.81084-10.7371 6.08969-10.3765 5.60892-9.81563L4.32689-8.29321 4.32689-10.657 4.0865-10.7371C2.92467-10.2563 1.72274-9.93581 0.520829-9.81563L0.520829-9.17461 1.36217-9.17461C2.28363-9.17461 2.36376-9.01436 2.36376-7.49193L2.36376-2.3237C2.36376-0.881402 2.3237-0.721147 1.52242-0.681084L0.480765-0.600956Z" fill="#000000" fill-rule="nonzero" fill-opacity="1" transform="matrix(1 0 0 1.00121 756.382 586.17)"/><path d="M0.801275-4.96791C0.801275-3.12497 1.40223-1.60255 2.52402-0.681084 3.3253-0.0400637 4.40701 0.280446 5.88938 0.280446 6.33007 0.280446 6.89096 0.200319 6.97109 0.0801275L9.53517-2.04325 9.41499 0.0801275C10.0159 0.0400637 10.5768 0 11.1778 0 11.8589 0 12.58 0.0400637 13.2611 0.0801275L13.2611-0.600956 12.2195-0.681084C11.4182-0.721147 11.3781-0.881402 11.3781-2.3237L11.3781-16.4662 11.1778-16.6265C10.1361-16.2659 9.41499-16.0656 7.57206-15.7851L7.57206-15.1441 8.8541-15.1441C9.29479-15.1441 9.45504-14.9037 9.45504-14.2226L9.45504-10.0159C8.17301-10.5768 7.53198-10.7371 6.73071-10.7371 6.08969-10.7371 5.5288-10.6169 4.96791-10.2964L2.96472-9.25474C1.64261-8.57364 0.801275-6.89096 0.801275-4.96791ZM2.80446-5.68905C2.80446-8.21308 4.04645-9.65538 6.08969-9.65538 6.97109-9.65538 7.89257-9.37492 8.69385-8.81402 9.17461-8.49352 9.45504-8.21308 9.45504-8.01275L9.45504-5.04803C9.45504-3.56569 9.41499-3.36536 9.09448-2.80446 8.45346-1.72274 7.33168-1.04166 6.24995-1.04166 4.24676-1.04166 2.80446-2.96472 2.80446-5.68905Z" fill="#000000" fill-rule="nonzero" fill-opacity="1" transform="matrix(1 0 0 1.00121 765.095 586.17)"/><path d="M0.600956-5.00798C0.600956-3.56569 0.921466-2.3237 1.56249-1.48236 2.44389-0.240382 4.00637 0.440701 5.72913 0.440701 6.57046 0.440701 7.41181 0.280446 8.37334-0.120191 8.97428-0.400638 9.45504-0.681084 9.57525-0.841339L10.0159-1.60255 9.7355-1.84293C8.25313-0.96153 7.73232-0.761211 6.73071-0.761211 5.24836-0.761211 4.00637-1.40223 3.36536-2.52402 2.92467-3.28523 2.76441-3.92625 2.72433-5.28841L6.08969-5.28841C7.65219-5.28841 8.65377-5.32849 10.2163-5.60892 10.2563-5.92943 10.2563-6.12977 10.2563-6.4102 10.2563-9.01436 8.57364-10.7371 6.00956-10.7371 5.16824-10.7371 4.16663-10.4567 3.24518-9.89576 1.36217-8.81402 0.600956-7.41181 0.600956-5.00798ZM2.76441-6.16982C2.76441-7.25155 2.88459-7.77237 3.16505-8.37334 3.64581-9.37492 4.6474-9.97589 5.72913-9.97589 6.49033-9.97589 7.0913-9.69543 7.49193-9.09448 8.01275-8.33326 8.21308-7.65219 8.21308-6.12977L5.649-6.04964C4.60734-6.04964 4.00637-6.08969 2.76441-6.16982Z" fill="#000000" fill-rule="nonzero" fill-opacity="1" transform="matrix(1 0 0 1.00121 779.105 586.17)"/><path d="M0.480765 0.0801275C1.40223 0.0400637 2.36376 0 3.28523 0 4.40701 0 5.48875 0.0400637 6.57046 0.0801275L6.57046-0.600956 5.36854-0.681084C4.36696-0.761211 4.32689-0.841339 4.32689-2.3237L4.32689-6.29002C4.32689-7.65219 5.20829-8.81402 6.33007-8.81402 7.05122-8.81402 7.53198-8.49352 7.89257-7.73232L8.37334-7.73232 8.57364-10.4967C8.33326-10.657 7.89257-10.7371 7.49193-10.7371 6.81084-10.7371 6.08969-10.3765 5.60892-9.81563L4.32689-8.29321 4.32689-10.657 4.0865-10.7371C2.92467-10.2563 1.72274-9.93581 0.520829-9.81563L0.520829-9.17461 1.36217-9.17461C2.28363-9.17461 2.36376-9.01436 2.36376-7.49193L2.36376-2.3237C2.36376-0.881402 2.3237-0.721147 1.52242-0.681084L0.480765-0.600956Z" fill="#000000" fill-rule="nonzero" fill-opacity="1" transform="matrix(1 0 0 1.00121 790.087 586.17)"/><path d="M0.721147-2.52402C0.721147-0.761211 1.80287 0.280446 3.60574 0.280446 4.04645 0.280446 4.40701 0.200319 4.56727 0.0801275L7.41181-1.883 7.2916 0.0801275C7.89257 0.0400637 8.49352 0 9.09448 0 9.65538 0 10.2163 0.0400637 10.7772 0.0801275L10.7772-0.600956 9.89576-0.681084C9.33487-0.681084 9.25474-0.881402 9.25474-2.00319L9.25474-6.16982C9.25474-9.53517 8.29321-10.7371 5.649-10.7371 4.6474-10.7371 3.72594-10.4967 2.88459-9.97589L1.64261-9.25474 1.64261-7.73232 2.24357-7.57206 2.52402-8.29321C3.00479-9.37492 3.24518-9.53517 4.32689-9.53517 6.45028-9.53517 7.37173-8.69385 7.41181-6.61053L5.16824-6.16982C2.04325-5.60892 0.721147-4.52722 0.721147-2.52402ZM2.68428-2.88459C2.68428-3.72594 3.16505-4.52722 3.84612-4.96791 4.40701-5.28841 5.68905-5.60892 7.41181-5.84931L7.41181-2.84454C6.77079-1.883 5.32849-1.04166 4.40701-1.04166 3.52561-1.04166 2.68428-1.883 2.68428-2.88459Z" fill="#000000" fill-rule="nonzero" fill-opacity="1" transform="matrix(1 0 0 1.00121 804.877 586.17)"/><path d="M0.200319 5.76918 0.200319 6.45028C1.16185 6.4102 2.08331 6.37015 3.04485 6.37015 4.00637 6.37015 4.96791 6.4102 5.92943 6.45028L5.92943 5.76918 4.84773 5.68905C4.0865 5.649 4.00637 5.48875 4.00637 4.04645L4.00637-0.280446C4.68747 0.120191 5.44867 0.280446 6.45028 0.280446 7.13135 0.280446 7.73232 0.120191 8.09288-0.0801275L10.697-1.80287C11.6185-2.36376 12.7002-4.72752 12.7002-6.20989 12.7002-8.77397 10.5768-10.7371 7.93262-10.7371 7.0913-10.7371 6.24995-10.5368 5.88938-10.1762L4.00637-8.45346 4.00637-10.657 3.80607-10.7371C2.64421-10.2563 1.44229-9.93581 0.240382-9.81563L0.240382-9.17461 1.08172-9.17461C2.00319-9.17461 2.08331-9.01436 2.08331-7.49193L2.08331 4.04645C2.08331 5.48875 2.00319 5.649 1.24198 5.68905ZM4.00637-2.24357 4.00637-7.01117C4.00637-7.33168 4.12658-7.57206 4.40701-7.9727 5.08811-8.81402 6.00956-9.25474 7.17142-9.25474 9.33487-9.25474 10.697-7.73232 10.697-5.36854 10.697-2.80446 9.17461-0.881402 7.0913-0.881402 5.84931-0.881402 4.88778-1.3221 4.00637-2.24357Z" fill="#000000" fill-rule="nonzero" fill-opacity="1" transform="matrix(1 0 0 1.00121 816.341 586.17)"/><path d="M0.200319 5.76918 0.200319 6.45028C1.16185 6.4102 2.08331 6.37015 3.04485 6.37015 4.00637 6.37015 4.96791 6.4102 5.92943 6.45028L5.92943 5.76918 4.84773 5.68905C4.0865 5.649 4.00637 5.48875 4.00637 4.04645L4.00637-0.280446C4.68747 0.120191 5.44867 0.280446 6.45028 0.280446 7.13135 0.280446 7.73232 0.120191 8.09288-0.0801275L10.697-1.80287C11.6185-2.36376 12.7002-4.72752 12.7002-6.20989 12.7002-8.77397 10.5768-10.7371 7.93262-10.7371 7.0913-10.7371 6.24995-10.5368 5.88938-10.1762L4.00637-8.45346 4.00637-10.657 3.80607-10.7371C2.64421-10.2563 1.44229-9.93581 0.240382-9.81563L0.240382-9.17461 1.08172-9.17461C2.00319-9.17461 2.08331-9.01436 2.08331-7.49193L2.08331 4.04645C2.08331 5.48875 2.00319 5.649 1.24198 5.68905ZM4.00637-2.24357 4.00637-7.01117C4.00637-7.33168 4.12658-7.57206 4.40701-7.9727 5.08811-8.81402 6.00956-9.25474 7.17142-9.25474 9.33487-9.25474 10.697-7.73232 10.697-5.36854 10.697-2.80446 9.17461-0.881402 7.0913-0.881402 5.84931-0.881402 4.88778-1.3221 4.00637-2.24357Z" fill="#000000" fill-rule="nonzero" fill-opacity="1" transform="matrix(1 0 0 1.00121 830.123 586.17)"/><path d="M0.480765 0.0801275C1.40223 0.0400637 2.36376 0 3.28523 0 4.40701 0 5.48875 0.0400637 6.57046 0.0801275L6.57046-0.600956 5.36854-0.681084C4.36696-0.761211 4.32689-0.841339 4.32689-2.3237L4.32689-6.29002C4.32689-7.65219 5.20829-8.81402 6.33007-8.81402 7.05122-8.81402 7.53198-8.49352 7.89257-7.73232L8.37334-7.73232 8.57364-10.4967C8.33326-10.657 7.89257-10.7371 7.49193-10.7371 6.81084-10.7371 6.08969-10.3765 5.60892-9.81563L4.32689-8.29321 4.32689-10.657 4.0865-10.7371C2.92467-10.2563 1.72274-9.93581 0.520829-9.81563L0.520829-9.17461 1.36217-9.17461C2.28363-9.17461 2.36376-9.01436 2.36376-7.49193L2.36376-2.3237C2.36376-0.881402 2.3237-0.721147 1.52242-0.681084L0.480765-0.600956Z" fill="#000000" fill-rule="nonzero" fill-opacity="1" transform="matrix(1 0 0 1.00121 843.902 586.17)"/><path d="M0.721147-4.96791C0.721147-1.72274 2.76441 0.440701 5.72913 0.440701 9.25474 0.440701 11.7787-2.00319 11.7787-5.44867 11.7787-8.53359 9.53517-10.7371 6.4102-10.7371 3.04485-10.7371 0.721147-8.37334 0.721147-4.96791ZM2.88459-5.76918C2.88459-8.49352 3.96632-9.97589 5.96951-9.97589 8.09288-9.97589 9.65538-7.69224 9.65538-4.56727 9.65538-1.96312 8.49352-0.280446 6.61053-0.280446 4.36696-0.280446 2.88459-2.48395 2.88459-5.76918Z" fill="#000000" fill-rule="nonzero" fill-opacity="1" transform="matrix(1 0 0 1.00121 852.958 586.17)"/><path d="M0.440701 0 2.44389 0C2.44389 0 2.60416-0.520829 3.80607-2.16344L5.48875-4.40701 8.53359 0.0801275C9.01436 0.0400637 9.49512 0 9.93581 0 10.4166 0 10.8973 0.0400637 11.3781 0.0801275L11.3781-0.600956 10.7772-0.681084C10.5368-0.721147 10.2563-0.881402 9.97589-1.24198L6.61053-5.80926 9.85568-9.6153C9.97589-9.77555 10.2563-9.89576 10.6169-9.89576L10.9374-9.89576 10.9374-10.5368 9.09448-10.5368 6.24995-6.49033 4.48714-9.17461C4.16663-9.65538 3.8862-9.97589 3.12497-10.7371L0.440701-10.2964 0.560893-9.69543 1.04166-9.65538C1.48236-9.6153 1.96312-9.29479 2.20351-8.97428L4.96791-5.00798 1.52242-0.96153C1.36217-0.761211 1.08172-0.600956 0.841339-0.600956L0.440701-0.600956Z" fill="#000000" fill-rule="nonzero" fill-opacity="1" transform="matrix(1 0 0 1.00121 864.789 586.17)"/><path d="M0.480765 0.0801275C1.44229 0.0400637 2.36376 0 3.36536 0 4.32689 0 5.24836 0.0400637 6.20989 0.0801275L6.20989-0.600956 5.16824-0.681084C4.36696-0.721147 4.32689-0.881402 4.32689-2.3237L4.32689-10.657 4.0865-10.7371C2.92467-10.2563 1.72274-9.93581 0.520829-9.81563L0.520829-9.17461 1.36217-9.17461C2.28363-9.17461 2.36376-9.01436 2.36376-7.49193L2.36376-2.3237C2.36376-0.881402 2.3237-0.721147 1.52242-0.681084L0.480765-0.600956ZM2.20351-13.5816C2.20351-12.8605 2.64421-12.4198 3.36536-12.4198 4.04645-12.4198 4.48714-12.8605 4.48714-13.5816 4.48714-14.2226 4.04645-14.7034 3.36536-14.7034 2.64421-14.7034 2.20351-14.2627 2.20351-13.5816Z" fill="#000000" fill-rule="nonzero" fill-opacity="1" transform="matrix(1 0 0 1.00121 876.622 586.17)"/><path d="M0.360574 0.0801275C1.3221 0.0400637 2.3237 0 3.28523 0 4.20671 0 5.08811 0.0400637 6.00956 0.0801275L6.00956-0.600956 5.04803-0.681084C4.24676-0.721147 4.20671-0.881402 4.20671-2.3237L4.20671-7.21147C4.20671-8.21308 5.68905-9.33487 7.0913-9.33487 8.33326-9.33487 9.17461-8.17301 9.17461-6.45028L9.17461-2.3237C9.17461-0.881402 9.09448-0.721147 8.33326-0.681084L7.25155-0.600956 7.25155 0.0801275C8.21308 0.0400637 9.17461 0 10.1361 0 11.0977 0 12.0191 0.0400637 12.9807 0.0801275L12.9807-0.600956 11.939-0.681084C11.1778-0.721147 11.0977-0.881402 11.0977-2.3237L11.0977-7.21147C11.0977-8.21308 12.6201-9.33487 13.9823-9.33487 15.2242-9.33487 16.0656-8.17301 16.0656-6.45028L16.0656 0.0801275C16.6665 0.0400637 17.2675 0 17.8684 0 18.5495 0 19.2306 0.0400637 19.9117 0.0801275L19.9117-0.600956 18.83-0.681084C18.0688-0.721147 17.9886-0.881402 17.9886-2.3237L17.9886-7.05122C17.9886-9.33487 16.6665-10.7371 14.5432-10.7371 13.7419-10.7371 13.1009-10.5368 12.6601-10.1762L10.9374-8.61372C10.2163-10.1361 9.25474-10.7371 7.69224-10.7371 6.81084-10.7371 6.16982-10.5368 5.76918-10.1762L4.20671-8.69385 4.20671-10.657 4.00637-10.7371C2.80446-10.2563 1.64261-9.93581 0.400638-9.81563L0.400638-9.17461 1.24198-9.17461C2.16344-9.17461 2.28363-9.01436 2.28363-7.49193L2.28363-2.3237C2.28363-0.881402 2.20351-0.721147 1.40223-0.681084L0.360574-0.600956Z" fill="#000000" fill-rule="nonzero" fill-opacity="1" transform="matrix(1 0 0 1.00121 883.202 586.17)"/><path d="M0.721147-2.52402C0.721147-0.761211 1.80287 0.280446 3.60574 0.280446 4.04645 0.280446 4.40701 0.200319 4.56727 0.0801275L7.41181-1.883 7.2916 0.0801275C7.89257 0.0400637 8.49352 0 9.09448 0 9.65538 0 10.2163 0.0400637 10.7772 0.0801275L10.7772-0.600956 9.89576-0.681084C9.33487-0.681084 9.25474-0.881402 9.25474-2.00319L9.25474-6.16982C9.25474-9.53517 8.29321-10.7371 5.649-10.7371 4.6474-10.7371 3.72594-10.4967 2.88459-9.97589L1.64261-9.25474 1.64261-7.73232 2.24357-7.57206 2.52402-8.29321C3.00479-9.37492 3.24518-9.53517 4.32689-9.53517 6.45028-9.53517 7.37173-8.69385 7.41181-6.61053L5.16824-6.16982C2.04325-5.60892 0.721147-4.52722 0.721147-2.52402ZM2.68428-2.88459C2.68428-3.72594 3.16505-4.52722 3.84612-4.96791 4.40701-5.28841 5.68905-5.60892 7.41181-5.84931L7.41181-2.84454C6.77079-1.883 5.32849-1.04166 4.40701-1.04166 3.52561-1.04166 2.68428-1.883 2.68428-2.88459Z" fill="#000000" fill-rule="nonzero" fill-opacity="1" transform="matrix(1 0 0 1.00121 903.448 586.17)"/><path d="M0.520829-8.65377 2.24357-8.77397 2.24357-2.16344C2.24357-0.440701 3.00479 0.280446 4.7676 0.280446 5.28841 0.280446 5.84931 0.160255 5.96951 0L7.0913-1.20191 6.77079-1.60255C6.20989-1.28204 5.84931-1.16185 5.44867-1.16185 4.52722-1.16185 4.16663-1.64261 4.16663-2.76441L4.16663-8.77397 7.0913-8.77397 7.2916-9.97589 4.16663-9.85568 4.16663-10.7371C4.16663-11.6986 4.24676-12.4999 4.40701-13.9823L4.16663-14.2226C3.60574-13.9021 2.92467-13.5816 2.20351-13.3412 2.28363-12.6601 2.28363-12.2195 2.28363-11.5384L2.28363-9.93581 0.520829-9.13453Z" fill="#000000" fill-rule="nonzero" fill-opacity="1" transform="matrix(1 0 0 1.00121 914.912 586.17)"/><path d="M0.480765 0.0801275C1.44229 0.0400637 2.36376 0 3.36536 0 4.32689 0 5.24836 0.0400637 6.20989 0.0801275L6.20989-0.600956 5.16824-0.681084C4.36696-0.721147 4.32689-0.881402 4.32689-2.3237L4.32689-10.657 4.0865-10.7371C2.92467-10.2563 1.72274-9.93581 0.520829-9.81563L0.520829-9.17461 1.36217-9.17461C2.28363-9.17461 2.36376-9.01436 2.36376-7.49193L2.36376-2.3237C2.36376-0.881402 2.3237-0.721147 1.52242-0.681084L0.480765-0.600956ZM2.20351-13.5816C2.20351-12.8605 2.64421-12.4198 3.36536-12.4198 4.04645-12.4198 4.48714-12.8605 4.48714-13.5816 4.48714-14.2226 4.04645-14.7034 3.36536-14.7034 2.64421-14.7034 2.20351-14.2627 2.20351-13.5816Z" fill="#000000" fill-rule="nonzero" fill-opacity="1" transform="matrix(1 0 0 1.00121 922.386 586.17)"/><path d="M0.721147-4.96791C0.721147-1.72274 2.76441 0.440701 5.72913 0.440701 9.25474 0.440701 11.7787-2.00319 11.7787-5.44867 11.7787-8.53359 9.53517-10.7371 6.4102-10.7371 3.04485-10.7371 0.721147-8.37334 0.721147-4.96791ZM2.88459-5.76918C2.88459-8.49352 3.96632-9.97589 5.96951-9.97589 8.09288-9.97589 9.65538-7.69224 9.65538-4.56727 9.65538-1.96312 8.49352-0.280446 6.61053-0.280446 4.36696-0.280446 2.88459-2.48395 2.88459-5.76918Z" fill="#000000" fill-rule="nonzero" fill-opacity="1" transform="matrix(1 0 0 1.00121 928.968 586.17)"/><path d="M0.120191 0.0801275C1.08172 0.0400637 2.04325 0 2.96472 0 3.92625 0 4.88778 0.0400637 5.80926 0.0801275L5.80926-0.600956 4.80765-0.681084C4.00637-0.721147 3.92625-0.881402 3.92625-2.3237L3.92625-7.21147C3.92625-8.21308 5.44867-9.33487 6.85091-9.33487 8.37334-9.33487 9.41499-8.21308 9.41499-6.45028L9.41499 0.0801275C9.97589 0.0400637 10.6169 0 11.2178 0 11.8589 0 12.4598 0.0400637 13.1009 0.0801275L13.1009-0.600956 12.1794-0.681084C11.3781-0.721147 11.3381-0.881402 11.3381-2.3237L11.3381-6.77079C11.3381-9.45504 10.056-10.7371 7.49193-10.7371 6.65058-10.7371 6.16982-10.5768 5.68905-10.1762L3.92625-8.65377 3.92625-10.657 3.72594-10.7371C2.56408-10.2563 1.36217-9.93581 0.160255-9.81563L0.160255-9.17461 1.00159-9.17461C1.92306-9.17461 2.00319-9.01436 2.00319-7.49193L2.00319-2.3237C2.00319-0.881402 1.96312-0.721147 1.16185-0.681084L0.120191-0.600956Z" fill="#000000" fill-rule="nonzero" fill-opacity="1" transform="matrix(1 0 0 1.00121 941.486 586.17)"/><path d="M9.89576-2.00319C9.13453-1.36217 8.65377-1.20191 8.33326-1.20191 8.01275-1.20191 7.77237-1.28204 7.57206-1.64261 7.37173-2.04325 7.13135-2.88459 7.05122-3.52561 6.97109-3.84612 6.93104-4.16663 6.89096-4.44709 7.49193-5.28841 8.09288-6.16982 8.41339-6.61053 8.69385-7.05122 9.45504-8.29321 9.57525-8.69385 9.45504-8.89415 9.37492-9.09448 9.25474-9.41499 9.17461-9.45504 9.01436-9.49512 8.93423-9.53517 8.45346-7.8525 8.21308-7.2916 7.45186-6.08969 7.37173-5.96951 7.05122-5.44867 6.77079-5.08811 6.4102-7.53198 6.33007-8.13295 6.20989-8.81402 6.04964-9.7355 5.44867-9.81563 5.04803-9.81563 4.60734-9.81563 3.92625-9.45504 3.24518-8.81402 2.76441-8.37334 2.36376-7.8525 2.00319-7.21147 1.08172-5.40862 0.440701-2.96472 0.440701-1.36217 0.440701-0.681084 0.761211 0.240382 1.24198 0.240382 2.00319 0.240382 2.68428-0.200319 3.28523-0.64102 4.16663-1.40223 5.08811-2.3237 5.72913-3.00479 5.92943-0.881402 6.5304 0.240382 7.33168 0.240382 7.77237 0.240382 8.41339-0.120191 9.09448-0.721147L10.056-1.60255ZM5.60892-3.64581C5.04803-2.96472 4.44709-2.36376 3.92625-1.92306 3.28523-1.40223 2.72433-1.20191 2.36376-1.20191 2.08331-1.20191 2.00319-1.48236 2.00319-2.00319 2.00319-3.3253 2.3237-5.5288 3.00479-7.21147 3.24518-7.89257 3.76599-8.49352 4.20671-8.49352 4.80765-8.49352 5.04803-8.13295 5.16824-7.21147Z" fill="#000000" fill-rule="nonzero" fill-opacity="1" transform="matrix(1 0 0 1.00121 652.401 652.011)"/><path d="M3.68586 0.160255C3.80607 0.160255 3.92625 0.160255 4.04645 0.160255 4.92785 0.160255 5.60892-0.600956 5.60892-1.52242 5.60892-3.68586 3.08492-5.92943-0.681084-7.13135L-9.65538-9.97589-9.81563-9.77555C-9.6153-9.17461-9.49512-8.69385-9.45504-8.25313L-6.73071-7.53198C-5.80926-7.2916-4.28683-6.57046-3.28523-5.92943-2.24357-5.20829-1.36217-4.20671-1.36217-3.76599-1.36217-3.52561-1.84293-3.3253-2.36376-3.3253L-2.60416-3.36536-6.57046-3.68586C-7.21147-3.72594-7.9727-3.76599-8.53359-3.76599-9.45504-3.76599-9.81563-3.60574-9.81563-3.24518-9.81563-3.00479-9.69543-2.72433-9.01436-1.72274L-7.8525-0.0801275-7.49193-0.280446-8.13295-1.3221-8.17301-1.40223C-8.29321-1.60255-8.37334-1.72274-8.37334-1.80287-8.37334-2.08331-7.9727-2.24357-7.2916-2.24357-7.2916-2.24357-7.17142-2.24357-7.01117-2.24357L-2.04325-1.883-1.24198-1.883C-0.360574-1.883 0.240382-2.24357 0.240382-2.76441 0.240382-3.52561-1.52242-5.20829-3.80607-6.73071L-0.32051-5.76918C3.28523-4.72752 4.7676-3.68586 4.7676-2.24357 4.7676-1.56249 4.20671-1.00159 3.52561-1.00159 3.40543-1.00159 3.24518-1.00159 3.04485-1.04166L2.96472-0.841339Z" fill="#000000" fill-rule="nonzero" fill-opacity="1" transform="matrix(1 0 0 1.00121 223.624 476.456)"/></g></g></g></g></g></svg>