<svg width="570" height="396" xmlns="http://www.w3.org/2000/svg" xmlns:xlink="http://www.w3.org/1999/xlink" xml:space="preserve" overflow="hidden"><g transform="translate(-622 -192)"><g><g><g><g><path d="M51.3503 355.539 564.566 355.539 564.566 2.24416 51.3503 2.24416Z" fill="#FFFFFF" fill-rule="nonzero" fill-opacity="1" transform="matrix(1 0 0 1.00025 623.444 193)"/><path d="M-0.000600399-0.00523041 506.748-0.00523041" stroke="#000000" stroke-width="1.68612" stroke-linecap="butt" stroke-linejoin="miter" stroke-miterlimit="10" stroke-opacity="1" fill="none" fill-rule="nonzero" transform="matrix(1 0 0 -1.00025 674.795 548.621)"/><path d="M564.566 355.539 554.219 350.366 558.099 355.539 554.219 360.702" fill="#000000" fill-rule="nonzero" fill-opacity="1" transform="matrix(1 0 0 1.00025 623.444 193)"/><path d="M-0.000600399-0.00523041-0.000600399 346.824" stroke="#000000" stroke-width="1.68612" stroke-linecap="butt" stroke-linejoin="miter" stroke-miterlimit="10" stroke-opacity="1" fill="none" fill-rule="nonzero" transform="matrix(1 0 0 -1.00025 674.795 548.621)"/><path d="M51.3503 2.24416 46.1766 12.5916 51.3503 8.71134 56.5242 12.5916" fill="#000000" fill-rule="nonzero" fill-opacity="1" transform="matrix(1 0 0 1.00025 623.444 193)"/><g><path d="M-0.000600399 288.276 5.18417 282.892 10.369 277.331 15.5538 271.605 20.7386 265.723 25.9233 259.72 31.1082 253.629 36.293 247.483 41.4665 241.325 46.6513 235.178 51.8361 229.12 57.0209 223.14 62.2057 217.314 67.3905 211.676 72.5753 206.281 77.7601 201.151 82.9449 196.32 88.1297 191.843 93.3145 187.753 98.4992 184.082 103.684 180.832 108.869 178.024 114.043 175.702 119.227 173.845 124.412 172.486 129.597 171.568 134.782 171.137 139.967 171.148 145.151 171.557 150.336 172.375 155.521 173.536 160.706 175.017 165.891 176.764 171.075 178.721 176.26 180.821 181.445 183.021 186.618 185.276 191.803 187.487 196.988 189.621 202.173 191.611 207.358 193.379 212.542 194.883 217.727 196.099 222.912 196.906 228.097 197.304 233.282 197.26 238.466 196.751 243.651 195.712 248.836 194.165 254.01 192.053 259.195 189.444 264.379 186.282 269.564 182.634 274.749 178.489 279.933 173.879 285.117 168.893 290.304 163.575 295.489 157.915 300.673 152.012 305.858 145.954 311.043 139.818 316.227 133.627 321.412 127.514 326.585 121.533 331.769 115.774 336.954 110.279 342.141 105.161 347.326 100.484 352.51 96.3058 357.695 92.6908 362.879 89.7282 368.064 87.4064 373.248 85.8477 378.433 84.9964 383.617 84.9191 388.802 85.6598 393.989 87.1523 399.162 89.4737 404.347 92.5582 409.531 96.4051 414.716 100.993 419.9 106.255 425.085 112.17 430.269 118.703 435.454 125.801 440.641 133.373 445.826 141.355 451.01 149.724 456.195 158.391 461.379 167.29 466.564 176.344 471.737 185.52 476.922 194.717 482.106 203.904 487.291 213.024 492.478 222.012 497.662 230.823 502.847 239.39 508.031 247.726 513.216 255.763" stroke="#000000" stroke-width="1.68612" stroke-linecap="butt" stroke-linejoin="miter" stroke-miterlimit="10" stroke-opacity="1" fill="none" fill-rule="nonzero" transform="matrix(1 0 0 -1.00025 674.795 548.621)"/></g><path d="M64.1514 35.3266 282.265 35.3266" stroke="#000000" stroke-width="1.68612" stroke-linecap="butt" stroke-linejoin="miter" stroke-miterlimit="10" stroke-opacity="1" fill="none" fill-rule="nonzero" transform="matrix(1 0 0 -1.00025 674.795 548.621)"/><path d="M14.0177-16.1403C13.7966-18.307 13.4871-19.9874 11.453-19.9874 8.6671-19.9874 6.76566-17.9975 6.76566-17.2016 6.76566-16.9804 6.94254-16.9804 7.07519-16.9804 7.38474-16.9804 8.71134-17.3784 9.24198-18.3513L9.28618-18.3955C10.8781-18.3955 11.2761-17.4669 11.5414-14.4599L11.9836-10.1706C10.9223-9.5515 6.98675-7.20786 4.86419-5.74859 1.50348-3.36071 1.45926-2.47632 1.45926-1.63614 1.45926-0.663299 1.9899 0 2.87431 0 3.75871 0 5.0853-0.972838 5.0853-1.41504 5.0853-1.5477 4.99686-1.59192 4.90843-1.59192 4.64311-1.63614 3.93559-1.7688 3.93559-2.91851 3.93559-3.67027 3.93559-4.02403 7.07519-6.10235 8.84398-7.2963 10.5243-8.22491 12.0721-9.19774 12.0721-9.15354 12.5143-4.73155 12.5585-4.24511 12.7796-1.94568 13.0007 0 15.1674 0 17.9533 0 19.8548-1.9899 19.8548-2.83007 19.8548-3.00695 19.7221-3.00695 19.5452-3.00695 19.2357-3.00695 17.9533-2.6532 17.3784-1.63614 17.29-1.59192 17.1573-1.59192 17.1131-1.59192 15.4328-1.59192 15.2559-3.44915 15.0348-5.92547 14.9463-6.8541 14.8579-7.60583 14.5484-10.657 23.6577-16.0961 23.6577-17.1131 23.6577-18.3513 23.6577-19.3683 23.127-19.9874 22.2868-19.9874 21.3582-19.9874 20.0316-19.0146 20.0316-18.5724 20.0316-18.3955 20.2085-18.3955 20.2085-18.3955 20.4738-18.3513 21.1814-18.2186 21.1814-17.1131 21.1814-16.3614 21.0929-15.9192 18.5724-14.2388 17.7322-13.6197 16.494-12.868 14.4599-11.6299Z" fill="#000000" fill-rule="nonzero" fill-opacity="1" transform="matrix(1 0 0 1.00025 835.427 491.278)"/><path d="M64.1514 17.6606 64.1514 52.9923" stroke="#000000" stroke-width="1.68612" stroke-linecap="butt" stroke-linejoin="miter" stroke-miterlimit="10" stroke-opacity="1" fill="none" fill-rule="nonzero" transform="matrix(1 0 0 -1.00025 674.795 548.621)"/><path d="M282.265 17.6606 282.265 52.9923" stroke="#000000" stroke-width="1.68612" stroke-linecap="butt" stroke-linejoin="miter" stroke-miterlimit="10" stroke-opacity="1" fill="none" fill-rule="nonzero" transform="matrix(1 0 0 -1.00025 674.795 548.621)"/><path d="M0.574859-2.47632C0.574859-1.90146 0.530639-1.5477 0.353759-0.663299 0.309539-0.309539 0.26532-0.2211 0.26532-0.0442199 0.663299 0.17688 1.1055 0.309539 1.45926 0.309539 2.38788 0.309539 3.49339-0.486419 4.37779-1.81302L6.50034-5.12951 6.80987-3.18383C7.16363-0.795959 7.82694 0.309539 8.84398 0.309539 9.46306 0.309539 10.3475-0.17688 11.2319-0.972838L12.6469-2.211 12.3816-2.74163C11.3645-1.90146 10.657-1.50348 10.2148-1.50348 9.77262-1.50348 9.41886-1.7688 9.15354-2.34366 8.88822-2.87431 8.57866-3.89135 8.44602-4.73155L7.91538-7.56162 8.93242-8.93242C10.259-10.7897 11.0108-11.4087 11.8509-11.4087 12.3374-11.4087 12.6469-11.1877 12.7796-10.7897L13.1775-10.8781 13.6197-13.266C13.266-13.4871 13.0007-13.5755 12.7796-13.5755 11.6299-13.5755 10.5243-12.5585 8.75554-9.9495L7.7385-8.40178 7.56162-9.77262C7.20786-12.5585 6.45611-13.5755 4.81999-13.5755 4.06823-13.5755 3.44915-13.3102 3.22807-12.9564L1.59192-10.6128 2.03412-10.3475C2.91851-11.3203 3.44915-11.7183 3.97979-11.7183 4.90843-11.7183 5.5275-10.5686 6.01391-7.78271L6.32346-6.05814 5.21795-4.28935C3.97979-2.4321 3.05119-1.50348 2.25522-1.50348 1.81302-1.50348 1.50348-1.63614 1.45926-1.7688L1.14972-2.56476Z" fill="#000000" fill-rule="nonzero" fill-opacity="1" transform="matrix(1 0 0 1.00025 798.645 361.459)"/><path d="M6.10235-9.5073C6.14658-9.81682 6.14658-10.3475 5.57171-10.3475 5.21795-10.3475 4.90843-10.0379 4.99686-9.77262L4.99686-9.46306 5.30639-6.01391 2.4321-8.09226C2.25522-8.22491 2.211-8.26914 2.03412-8.26914 1.72458-8.26914 1.45926-7.95959 1.45926-7.65006 1.45926-7.25207 1.68036-7.16363 1.90146-7.07519L5.04107-5.57171 1.9899-4.06823C1.63614-3.89135 1.45926-3.80291 1.45926-3.44915 1.45926-3.13963 1.72458-2.83007 2.03412-2.83007 2.211-2.83007 2.25522-2.83007 2.78585-3.27227L5.30639-5.0853 4.95263-1.3266C4.95263-0.884398 5.35062-0.751739 5.5275-0.751739 5.79282-0.751739 6.14658-0.928618 6.14658-1.3266L5.79282-5.0853 8.6671-3.00695C8.84398-2.87431 8.88822-2.83007 9.0651-2.83007 9.37462-2.83007 9.63994-3.13963 9.63994-3.44915 9.63994-3.80291 9.46306-3.93559 9.19774-4.06823 7.87115-4.73155 7.82694-4.73155 6.05814-5.5275L9.1093-7.03098C9.46306-7.20786 9.63994-7.2963 9.63994-7.65006 9.63994-7.95959 9.37462-8.26914 9.0651-8.26914 8.88822-8.26914 8.84398-8.26914 8.31334-7.82694L5.79282-6.01391Z" fill="#000000" fill-rule="nonzero" fill-opacity="1" transform="matrix(1 0 0 1.00025 813.595 351.254)"/><path d="M142.929 171.115C142.929 174.221 140.42 176.742 137.313 176.742 134.207 176.742 131.686 174.221 131.686 171.115 131.686 168.008 134.207 165.499 137.313 165.499 140.42 165.499 142.929 168.008 142.929 171.115Z" stroke="#000000" stroke-width="1.68612" stroke-linecap="butt" stroke-linejoin="miter" stroke-miterlimit="10" stroke-opacity="1" fill="#000000" fill-rule="nonzero" fill-opacity="1" transform="matrix(1 0 0 -1.00025 674.795 548.621)"/><path d="M0.486419-1.9899C0.486419-1.5477 0.442199-1.23816 0.309539-0.530639 0.26532-0.26532 0.2211-0.17688 0.2211-0.0442199 0.530639 0.17688 0.884398 0.26532 1.14972 0.26532 1.90146 0.26532 2.78585-0.397979 3.49339-1.45926L5.17374-4.06823 5.43906-2.52054C5.74859-0.619079 6.23502 0.26532 7.07519 0.26532 7.56162 0.26532 8.26914-0.13266 8.97666-0.795959L10.0821-1.7688 9.90526-2.211C9.0651-1.5477 8.53446-1.19394 8.13647-1.19394 7.82694-1.19394 7.51739-1.41504 7.2963-1.85724 7.11942-2.29944 6.8541-3.13963 6.72143-3.75871L6.32346-6.05814 7.11942-7.16363C8.1807-8.6229 8.79978-9.1093 9.46306-9.1093 9.86106-9.1093 10.1264-8.93242 10.2148-8.6229L10.5243-8.71134 10.8781-10.6128C10.6128-10.7455 10.3917-10.8339 10.2148-10.8339 9.28618-10.8339 8.40178-10.0379 6.98675-7.95959L6.19079-6.72143 6.05814-7.78271C5.79282-10.0379 5.17374-10.8339 3.84715-10.8339 3.27227-10.8339 2.74163-10.657 2.56476-10.3475L1.23816-8.49022 1.63614-8.26914C2.29944-9.02086 2.74163-9.33042 3.18383-9.33042 3.93559-9.33042 4.42199-8.40178 4.81999-6.23502L5.04107-4.81999 4.15667-3.44915C3.18383-1.94568 2.4321-1.19394 1.81302-1.19394 1.45926-1.19394 1.19394-1.28238 1.14972-1.41504L0.928618-2.03412Z" fill="#000000" fill-rule="nonzero" fill-opacity="1" transform="matrix(1 0 0 1.00025 925.857 575.703)"/><path d="M-8.6229-6.4119C-9.02086-6.50034-9.5515-6.67722-9.86106-6.80987L-10.0379-6.72143-9.9937-6.54455C-9.86106-6.01391-9.81682-5.79282-9.81682-4.68731L-9.81682-4.33355-12.3374-4.77575C-14.283-5.12951-15.1232-5.79282-15.1232-6.80987-15.1232-7.47318-14.7695-8.09226-14.2388-8.40178L-14.3273-8.6671C-14.681-8.75554-15.3885-8.97666-15.8307-9.15354L-16.1845-9.28618C-16.3172-8.93242-16.4498-8.22491-16.4498-7.69427-16.4498-7.47318-16.4056-7.11942-16.3172-6.89831-16.0518-6.36767-14.681-4.55467-14.1504-4.02403-13.664-3.53759-13.0007-3.27227-11.7183-3.00695L-9.9495-2.6532C-9.46306-1.7688-9.28618-1.28238-9.1093-0.751739L-8.6229-0.619079-8.6229-2.4321-7.34051-2.25522C-2.96275-1.59192 1.19394-0.751739 2.74163-0.26532 4.06823 0.17688 4.77575 0.840178 4.77575 1.63614 4.77575 2.16678 4.64311 2.38788 4.11247 2.78585L4.24511 3.13963C4.73155 3.22807 5.83703 3.53759 6.01391 3.62603 6.14658 3.44915 6.19079 3.09539 6.19079 2.87431 6.19079 1.94568 5.48327 0.707519 4.46623-0.17688 2.83007-1.5477 1.23816-2.03412-6.63299-3.67027-6.89831-3.71447-7.7385-3.89135-8.6229-4.06823Z" fill="#000000" fill-rule="nonzero" fill-opacity="1" transform="matrix(1 0 0 1.00025 652.373 390.971)"/><path d="M5.61594-7.7385C5.57171-7.7385 5.5275-7.7385 5.12951-7.34051 2.16678-4.42199-2.25522-3.67027-5.83703-3.67027-9.9495-3.67027-14.0177-4.55467-16.9362-7.47318-17.2458-7.7385-17.29-7.7385-17.3342-7.7385-17.5111-7.7385-17.5553-7.65006-17.5553-7.51739-17.5553-7.2963-15.9634-5.17374-13.0007-3.80291-10.4359-2.60898-7.82694-2.29944-5.83703-2.29944-4.02403-2.29944-1.19394-2.56476 1.45926-3.84715 4.33355-5.26218 5.83703-7.2963 5.83703-7.51739 5.83703-7.65006 5.79282-7.7385 5.61594-7.7385Z" fill="#000000" fill-rule="nonzero" fill-opacity="1" transform="matrix(1 0 0 1.00025 652.373 381.122)"/><path d="M-1.9899-0.486419C-1.5477-0.486419-1.23816-0.442199-0.530639-0.309539-0.26532-0.26532-0.17688-0.2211-0.0442199-0.2211 0.17688-0.530639 0.26532-0.884398 0.26532-1.14972 0.26532-1.90146-0.397979-2.78585-1.45926-3.49339L-4.06823-5.17374-2.52054-5.43906C-0.619079-5.74859 0.26532-6.23502 0.26532-7.07519 0.26532-7.56162-0.13266-8.26914-0.795959-8.97666L-1.7688-10.0821-2.211-9.90526C-1.5477-9.0651-1.19394-8.53446-1.19394-8.13647-1.19394-7.82694-1.41504-7.51739-1.85724-7.2963-2.29944-7.11942-3.13963-6.8541-3.75871-6.72143L-6.05814-6.32346-7.16363-7.11942C-8.6229-8.1807-9.1093-8.79978-9.1093-9.46306-9.1093-9.86106-8.93242-10.1264-8.6229-10.2148L-8.71134-10.5243-10.6128-10.8781C-10.7455-10.6128-10.8339-10.3917-10.8339-10.2148-10.8339-9.28618-10.0379-8.40178-7.95959-6.98675L-6.72143-6.19079-7.78271-6.05814C-10.0379-5.79282-10.8339-5.17374-10.8339-3.84715-10.8339-3.27227-10.657-2.74163-10.3475-2.56476L-8.49022-1.23816-8.26914-1.63614C-9.02086-2.29944-9.33042-2.74163-9.33042-3.18383-9.33042-3.93559-8.40178-4.42199-6.23502-4.81999L-4.81999-5.04107-3.44915-4.15667C-1.94568-3.18383-1.19394-2.4321-1.19394-1.81302-1.19394-1.45926-1.28238-1.19394-1.41504-1.14972L-2.03412-0.928618Z" fill="#000000" fill-rule="nonzero" fill-opacity="1" transform="matrix(1 0 0 1.00025 652.373 371.094)"/><path d="M-5.83703-6.76566C-7.69427-6.76566-10.5243-6.50034-13.1775-5.21795-16.0518-3.80291-17.5553-1.81302-17.5553-1.59192-17.5553-1.41504-17.4669-1.3266-17.3342-1.3266-17.29-1.3266-17.2458-1.3266-16.8036-1.7688-14.5041-4.06823-10.7455-5.39483-5.83703-5.39483-1.85724-5.39483 2.25522-4.55467 5.21795-1.63614 5.5275-1.3266 5.57171-1.3266 5.61594-1.3266 5.74859-1.3266 5.83703-1.41504 5.83703-1.59192 5.83703-1.81302 4.24511-3.93559 1.28238-5.30639-1.28238-6.50034-3.89135-6.76566-5.83703-6.76566Z" fill="#000000" fill-rule="nonzero" fill-opacity="1" transform="matrix(1 0 0 1.00025 652.373 359.064)"/></g></g></g></g></g></svg>