<svg width="472" height="427" xmlns="http://www.w3.org/2000/svg" xmlns:xlink="http://www.w3.org/1999/xlink" xml:space="preserve" overflow="hidden"><defs><clipPath id="clip0"><rect x="640" y="146" width="472" height="427"/></clipPath><clipPath id="clip1"><rect x="640" y="146" width="472" height="427"/></clipPath><clipPath id="clip2"><rect x="640" y="147" width="471" height="426"/></clipPath><clipPath id="clip3"><rect x="640" y="147" width="471" height="426"/></clipPath><clipPath id="clip4"><rect x="640" y="147" width="471" height="426"/></clipPath><clipPath id="clip5"><rect x="643" y="149" width="440" height="371"/></clipPath></defs><g clip-path="url(#clip0)" transform="translate(-640 -146)"><g clip-path="url(#clip1)"><g clip-path="url(#clip2)"><g clip-path="url(#clip3)"><g clip-path="url(#clip4)"><g><path d="M2.39977 383.158 464.835 383.158 464.835 2.89627 2.39977 2.89627Z" fill="#FFFFFF" fill-rule="nonzero" fill-opacity="1" transform="matrix(1 0 0 1.00119 640.669 147)"/></g><path d="M0.520147-2.12787C0.520147-1.60773 0.472861-1.32401 0.331002-0.567433 0.283716-0.283716 0.23643-0.189144 0.23643-0.0472861 0.567433 0.189144 0.945721 0.283716 1.22944 0.283716 2.0333 0.283716 2.97902-0.425574 3.73561-1.56044L5.53248-4.35032 5.8162-2.6953C6.09992-0.662005 6.66735 0.283716 7.5185 0.283716 8.03863 0.283716 8.84251-0.141858 9.59908-0.851149L10.7812-1.89144 10.5448-2.3643C9.69366-1.60773 9.07892-1.27672 8.70063-1.27672 8.32234-1.27672 8.03863-1.51315 7.80221-1.98601 7.56577-2.45887 7.32935-3.31002 7.18748-4.01933L6.76192-6.4309 7.61307-7.61307C8.74794-9.17349 9.36264-9.74093 10.1192-9.74093 10.4975-9.74093 10.7812-9.55178 10.9231-9.17349L11.2541-9.26807 11.5851-11.3014C11.3014-11.4905 11.1122-11.5378 10.8758-11.5378 9.93007-11.5378 8.98435-10.6866 7.4712-8.46422L6.57278-7.18748 6.4309-8.32234C6.14719-10.6866 5.53248-11.5378 4.1139-11.5378 3.49917-11.5378 2.93174-11.3487 2.74259-11.0649L1.32401-9.07892 1.74958-8.84251C2.45887-9.64635 2.93174-9.97737 3.4046-9.97737 4.20847-9.97737 4.72861-8.98435 5.10689-6.62005L5.39061-5.15419 4.44489-3.68831C3.4046-2.08059 2.60073-1.27672 1.93873-1.27672 1.56044-1.27672 1.27672-1.3713 1.22944-1.51315L0.993007-2.17516Z" fill="#000000" fill-rule="nonzero" fill-opacity="1" transform="matrix(1 0 0 1.00119 822.133 559.55)"/><g><path d="M-0.00574381 116.737 4.67557 118.451 9.34507 120.224 14.0146 122.068 18.6841 123.983 23.3536 125.97 28.0231 128.015 32.6927 130.142 37.3739 132.341 42.0435 134.623 46.713 136.975 51.3825 139.399 56.052 141.905 60.7212 144.494 65.3908 147.142 70.0603 149.884 74.7416 152.698 79.4111 155.594 84.0806 158.561 88.7501 161.599 93.4196 164.72 98.0892 167.912 102.759 171.175 107.428 174.509 112.109 177.901 116.779 181.365 121.449 184.888 126.118 188.482 130.788 192.123 135.457 195.823 140.127 199.558 144.796 203.353 149.477 207.171 154.147 211.037 158.816 214.938 163.486 218.863 172.825 226.783 182.164 234.751 186.845 238.723 191.515 242.719 196.184 246.702 200.854 250.675 205.523 254.635 210.193 258.56 214.862 262.461 219.532 266.338 224.213 270.168 228.882 273.975 233.552 277.734 238.221 281.434 242.891 285.075 247.561 288.669 252.23 292.215 256.899 295.703 261.581 299.107 266.25 302.453 270.92 305.738 275.589 308.932 280.259 312.063 284.928 315.125 289.598 318.118 294.279 321.026 298.948 323.85 303.618 326.605 308.288 329.275 312.957 331.876 317.627 334.405 322.296 336.841 326.966 339.207 331.647 341.51 336.317 343.711 340.986 345.849 345.656 347.917 350.326 349.928 354.995 351.867 359.665 353.71 364.334 355.495 369.016 357.211 373.685 358.888 378.355 360.483 383.024 361.998 387.694 363.476 392.363 364.894 397.033 366.264 401.702 367.552 406.384 368.808 411.053 370 415.723 371.147 420.392 372.246 425.062 373.3 429.728 374.314 434.398 375.284 439.068 376.208 443.749 377.093 448.419 377.933 453.088 378.737 457.758 379.517 462.427 380.251" stroke="#000000" stroke-width="2.39952" stroke-linecap="butt" stroke-linejoin="miter" stroke-miterlimit="10" stroke-opacity="1" fill="none" fill-rule="nonzero" transform="matrix(1 0 0 -1.00119 643.075 530.615)"/></g><g><path d="M184.977-0.000564931 184.977 237.151" stroke="#000000" stroke-width="1.79965" stroke-linecap="butt" stroke-linejoin="miter" stroke-miterlimit="10" stroke-opacity="1" fill="none" fill-rule="nonzero" transform="matrix(1 0 0 -1.00119 643.075 530.615)"/></g><g><path d="M92.4857-0.000564931 369.949-0.000564931" stroke="#000000" stroke-width="1.79965" stroke-linecap="butt" stroke-linejoin="miter" stroke-miterlimit="10" stroke-opacity="1" fill="none" fill-rule="nonzero" transform="matrix(1 0 0 -1.00119 643.075 530.615)"/></g><g clip-path="url(#clip5)"><path d="M-0.00574381 79.0498 369.949 395.263" stroke="#1BA0EA" stroke-width="4.7991" stroke-linecap="butt" stroke-linejoin="miter" stroke-miterlimit="10" stroke-opacity="1" fill="none" fill-rule="nonzero" transform="matrix(1 0 0 -1.00119 643.075 530.615)"/></g><path d="M8.55879-11.4905C8.70063-12.058 8.88978-12.72 9.07892-13.1455L8.98435-13.382 8.74794-13.2874C8.03863-13.1455 7.70764-13.0983 6.24176-13.0983L5.7689-13.0983 6.38363-16.4555C6.85649-19.0563 7.70764-20.1912 9.07892-20.1912 9.97737-20.1912 10.7812-19.7183 11.2541-19.009L11.5378-19.1036C11.6797-19.6237 12.0107-20.5221 12.2471-21.1369L12.3889-21.5624C11.9161-21.7989 10.9704-21.988 10.2611-21.988 9.93007-21.988 9.45721-21.8935 9.2208-21.7516 8.51149-21.4206 6.05261-19.6237 5.34334-18.8671 4.72861-18.2051 4.35032-17.3067 4.01933-15.6044L3.54647-13.2401C2.31702-12.6727 1.74958-12.3889 0.993007-12.1525L0.851149-11.4905 3.26275-11.4905 2.97902-9.78823C2.08059-3.97203 0.993007 1.60773 0.331002 3.68831-0.189144 5.43791-1.08758 6.38363-2.17516 6.38363-2.88445 6.38363-3.21545 6.19449-3.73561 5.53248L-4.16117 5.62706C-4.30305 6.33633-4.72861 7.75491-4.87048 8.03863-4.58676 8.1805-4.1139 8.27507-3.83019 8.27507-2.60073 8.27507-0.945721 7.32935 0.189144 5.95804 2.0333 3.78288 2.6953 1.7023 4.87048-8.84251 4.96505-9.2208 5.20147-10.3557 5.43791-11.4905Z" fill="#000000" fill-rule="nonzero" fill-opacity="1" transform="matrix(1 0 0 1.00119 889.46 300.767)"/><path d="M10.3557 7.5185C10.3557 7.42393 10.3557 7.32935 9.8355 6.80919 5.91077 2.88445 4.91775-3.02631 4.91775-7.80221 4.91775-13.2401 6.09992-18.678 9.93007-22.6027 10.3557-22.981 10.3557-23.0283 10.3557-23.1229 10.3557-23.3593 10.2138-23.4539 10.0246-23.4539 9.74093-23.4539 6.90376-21.326 5.05962-17.354 3.4519-13.9021 3.07361-10.4502 3.07361-7.80221 3.07361-5.39061 3.4519-1.60773 5.15419 1.93873 7.04564 5.7689 9.74093 7.80221 10.0246 7.80221 10.2138 7.80221 10.3557 7.70764 10.3557 7.5185Z" fill="#000000" fill-rule="nonzero" fill-opacity="1" transform="matrix(1 0 0 1.00119 902.599 300.767)"/><path d="M0.614719-2.64802C0.614719-2.0333 0.567433-1.65501 0.378288-0.709291 0.331002-0.331002 0.283716-0.23643 0.283716-0.0472861 0.709291 0.189144 1.18215 0.331002 1.56044 0.331002 2.55345 0.331002 3.73561-0.520147 4.63403-1.93873L6.90376-5.43791 7.23478-3.4046C7.66034-0.851149 8.32234 0.331002 9.40994 0.331002 10.0719 0.331002 11.0177-0.189144 12.0107-1.04029L13.4765-2.3643 13.1928-2.93174C12.1052-2.0333 11.3487-1.60773 10.8758-1.60773 10.4502-1.60773 10.0246-1.89144 9.74093-2.50616 9.45721-3.07361 9.12622-4.16117 8.98435-5.05962L8.46422-8.08593 9.50451-9.55178C10.9231-11.4905 11.7269-12.1525 12.6727-12.1525 13.1455-12.1525 13.4765-11.9161 13.6184-11.4905L14.044-11.5851 14.5168-14.1385C14.1385-14.375 13.9021-14.4695 13.6184-14.4695 12.3889-14.4695 11.2068-13.382 9.36264-10.5921L8.22777-8.98435 8.08593-10.4029C7.70764-13.382 6.90376-14.4695 5.10689-14.4695 4.35032-14.4695 3.68831-14.2331 3.4046-13.8075L1.7023-11.3487 2.17516-11.0177C3.07361-12.058 3.68831-12.4835 4.25574-12.4835 5.24877-12.4835 5.91077-11.2541 6.4309-8.32234L6.76192-6.4309 5.53248-4.58676C4.25574-2.60073 3.21545-1.60773 2.41159-1.60773 1.93873-1.60773 1.60773-1.74958 1.56044-1.89144L1.22944-2.74259Z" fill="#000000" fill-rule="nonzero" fill-opacity="1" transform="matrix(1 0 0 1.00119 915.975 300.767)"/><path d="M9.03165-7.80221C9.03165-10.2611 8.70063-14.044 6.95107-17.5431 5.10689-21.4206 2.41159-23.4539 2.08059-23.4539 1.89144-23.4539 1.79687-23.312 1.79687-23.1229 1.79687-23.0283 1.79687-22.981 2.3643-22.4136 5.43791-19.2927 7.23478-14.3277 7.23478-7.80221 7.23478-2.45887 6.05261 3.02631 2.17516 6.95107 1.79687 7.32935 1.79687 7.42393 1.79687 7.5185 1.79687 7.70764 1.89144 7.80221 2.08059 7.80221 2.41159 7.80221 5.20147 5.67433 7.04564 1.7023 8.65336-1.7023 9.03165-5.20147 9.03165-7.80221Z" fill="#000000" fill-rule="nonzero" fill-opacity="1" transform="matrix(1 0 0 1.00119 932.022 300.767)"/><path d="M190.971 237.151C190.971 240.461 188.287 243.144 184.977 243.144 181.667 243.144 178.972 240.461 178.972 237.151 178.972 233.841 181.667 231.157 184.977 231.157 188.287 231.157 190.971 233.841 190.971 237.151Z" stroke="#000000" stroke-width="1.79965" stroke-linecap="butt" stroke-linejoin="miter" stroke-miterlimit="10" stroke-opacity="1" fill="#000000" fill-rule="nonzero" fill-opacity="1" transform="matrix(1 0 0 -1.00119 643.075 530.615)"/></g></g></g></g></g></svg>