<svg width="503" height="381" xmlns="http://www.w3.org/2000/svg" xmlns:xlink="http://www.w3.org/1999/xlink" xml:space="preserve" overflow="hidden"><defs><clipPath id="clip0"><rect x="689" y="192" width="503" height="381"/></clipPath><clipPath id="clip1"><rect x="689" y="192" width="503" height="381"/></clipPath><clipPath id="clip2"><rect x="690" y="192" width="502" height="381"/></clipPath><clipPath id="clip3"><rect x="690" y="192" width="502" height="381"/></clipPath><clipPath id="clip4"><rect x="690" y="192" width="502" height="381"/></clipPath><clipPath id="clip5"><rect x="1160" y="557" width="27" height="14"/></clipPath></defs><g clip-path="url(#clip0)" transform="translate(-689 -192)"><g clip-path="url(#clip1)"><g clip-path="url(#clip2)"><g clip-path="url(#clip3)"><g clip-path="url(#clip4)"><g><path d="M0.00809878-0.00510973 122.357 91.7784" stroke="#000000" stroke-width="2.58027" stroke-linecap="butt" stroke-linejoin="miter" stroke-miterlimit="10" stroke-opacity="1" fill="none" fill-rule="nonzero" transform="matrix(1.00102 0 0 -1 694.268 567.007)"/></g><path d="M122.357-0.00510973 122.357 367.077" stroke="#7F7F7F" stroke-width="2.58027" stroke-linecap="butt" stroke-linejoin="miter" stroke-miterlimit="10" stroke-opacity="1" fill="none" fill-rule="nonzero" transform="matrix(1.00102 0 0 -1 694.268 567.007)"/><g><path d="M122.357 91.7784 489.438 367.077" stroke="#1BA0EA" stroke-width="3.44034" stroke-linecap="butt" stroke-linejoin="miter" stroke-miterlimit="10" stroke-opacity="1" fill="none" fill-rule="nonzero" transform="matrix(1.00102 0 0 -1 694.268 567.007)"/></g><path d="M0.00809878-0.00510973 483.257-0.00510973" stroke="#000000" stroke-width="3.44034" stroke-linecap="butt" stroke-linejoin="miter" stroke-miterlimit="10" stroke-opacity="1" fill="none" fill-rule="nonzero" transform="matrix(1.00102 0 0 -1 694.268 567.007)"/><g clip-path="url(#clip5)"><path d="M4.47373-0.00510973C-1.11306 1.11565-6.71683 3.35716-13.4244 7.26283-6.71683 2.23641-6.71683-2.22964-13.4244-7.27307-6.71683-3.3504-1.11306-1.12587 4.47373-0.00510973Z" stroke="#000000" stroke-width="3.44034" stroke-linecap="butt" stroke-linejoin="round" stroke-miterlimit="10" stroke-opacity="1" fill="#000000" fill-rule="nonzero" fill-opacity="1" transform="matrix(1.00102 0 0 -1 1178.01 567.007)"/></g><path d="M0.00809878-0.00510973 0.00809878 360.896" stroke="#000000" stroke-width="3.44034" stroke-linecap="butt" stroke-linejoin="miter" stroke-miterlimit="10" stroke-opacity="1" fill="none" fill-rule="nonzero" transform="matrix(1.00102 0 0 -1 694.268 567.007)"/><path d="M4.47205-0.00809878C-1.11476 1.11266-6.70155 3.35417-13.4091 7.25986-6.70155 2.23342-6.70155-2.23264-13.4091-7.27604-6.70155-3.35339-1.11476-1.11187 4.47205-0.00809878Z" stroke="#000000" stroke-width="3.44034" stroke-linecap="butt" stroke-linejoin="round" stroke-miterlimit="10" stroke-opacity="1" fill="#000000" fill-rule="nonzero" fill-opacity="1" transform="matrix(0 -1 -1.00102 0 694.268 206.117)"/><path d="M131.129 283.229C131.129 280.529 128.938 278.338 126.238 278.338 123.538 278.338 121.348 280.529 121.348 283.229 121.348 285.946 123.538 288.137 126.238 288.137 128.938 288.137 131.129 285.946 131.129 283.229Z" fill="#000000" fill-rule="nonzero" fill-opacity="1" transform="matrix(1.00102 0 0 1 690.383 192)"/><path d="M11.8868 8.62646C11.8868 8.49061 11.8868 8.42266 11.2755 7.81136 6.79247 3.32831 5.63777-3.46416 5.63777-8.96606 5.63777-15.2151 6.99627-21.4642 11.4114-25.9472 11.8868-26.3548 11.8868-26.4227 11.8868-26.5586 11.8868-26.7623 11.751-26.8982 11.4793-26.8982 11.1397-26.8982 7.94721-24.4529 5.84153-19.902 4.00756-15.9623 3.53208-11.9547 3.53208-8.96606 3.53208-6.18117 3.93963-1.83397 5.90947 2.24152 8.08306 6.65662 11.1397 8.96606 11.4793 8.96606 11.751 8.96606 11.8868 8.83021 11.8868 8.62646Z" fill="#000000" fill-rule="nonzero" fill-opacity="1" transform="matrix(1.00102 0 0 1 829.951 514.902)"/><path d="M2.30944-19.0869 2.64906-19.0869 7.06417-21.0567C7.13212-21.1246 7.13212-21.1246 7.20002-21.1246 7.40381-21.1246 7.47172-20.785 7.47172-19.9699L7.47172-3.32831C7.47172-1.49434 7.06417-1.15472 5.23022-1.01887L3.32831-0.950946 3.32831 0.135849C8.55851 0 8.55851 0 8.96606 0 9.44156 0 10.1887 0 11.3434 0.0679247 11.751 0.0679247 12.9736 0.0679247 14.4 0.135849L14.4-0.950946 12.5661-1.01887C10.6642-1.15472 10.3246-1.49434 10.3246-3.32831L10.3246-23.7057 9.8491-23.8416C7.60757-22.6869 5.16228-21.668 2.03774-20.5812Z" fill="#000000" fill-rule="nonzero" fill-opacity="1" transform="matrix(1.00102 0 0 1 844.292 514.902)"/><path d="M6.99627-4.21133C6.11322-3.93963 5.43398-3.73586 3.66793-3.19246 3.39624-0.611322 2.51321 1.63019 0.543398 4.95853L1.01887 5.29813 2.44529 4.68683C5.23022 1.0868 6.52077-1.0868 7.47172-3.73586Z" fill="#000000" fill-rule="nonzero" fill-opacity="1" transform="matrix(1.00102 0 0 1 861.511 514.902)"/><path d="M2.30944-19.0869 2.64906-19.0869 7.06417-21.0567C7.13212-21.1246 7.13212-21.1246 7.20002-21.1246 7.40381-21.1246 7.47172-20.785 7.47172-19.9699L7.47172-3.32831C7.47172-1.49434 7.06417-1.15472 5.23022-1.01887L3.32831-0.950946 3.32831 0.135849C8.55851 0 8.55851 0 8.96606 0 9.44156 0 10.1887 0 11.3434 0.0679247 11.751 0.0679247 12.9736 0.0679247 14.4 0.135849L14.4-0.950946 12.5661-1.01887C10.6642-1.15472 10.3246-1.49434 10.3246-3.32831L10.3246-23.7057 9.8491-23.8416C7.60757-22.6869 5.16228-21.668 2.03774-20.5812Z" fill="#000000" fill-rule="nonzero" fill-opacity="1" transform="matrix(1.00102 0 0 1 875.838 514.902)"/><path d="M10.3925-8.96606C10.3925-11.751 9.98495-16.0982 8.01512-20.1737 5.84153-24.5887 2.78491-26.8982 2.37736-26.8982 2.17359-26.8982 2.03774-26.7623 2.03774-26.5586 2.03774-26.4227 2.03774-26.3548 2.71699-25.7435 6.24907-22.1435 8.28681-16.4378 8.28681-8.96606 8.28681-2.85284 6.92832 3.46416 2.51321 8.01512 2.03774 8.42266 2.03774 8.49061 2.03774 8.62646 2.03774 8.83021 2.17359 8.96606 2.37736 8.96606 2.78491 8.96606 5.97737 6.52077 8.08306 1.96982 9.91701-1.96982 10.3925-5.97737 10.3925-8.96606Z" fill="#000000" fill-rule="nonzero" fill-opacity="1" transform="matrix(1.00102 0 0 1 893.512 514.902)"/><path d="M0.747172-3.05661C0.747172-2.30944 0.679247-1.90189 0.475473-0.815096 0.407548-0.407548 0.339624-0.271699 0.339624-0.0679247 0.815096 0.271699 1.35849 0.407548 1.76604 0.407548 2.92076 0.407548 4.27926-0.611322 5.29813-2.24152L7.94721-6.24907 8.28681-3.87171C8.76231-0.950946 9.57741 0.407548 10.8001 0.407548 11.5472 0.407548 12.634-0.203774 13.7208-1.22264L15.4189-2.71699 15.1472-3.39624C13.8566-2.30944 13.0415-1.83397 12.4981-1.83397 11.9547-1.83397 11.5472-2.17359 11.1397-2.85284 10.868-3.53208 10.4604-4.75473 10.3246-5.77362L9.71325-9.23776 10.868-10.9359C12.4981-13.1774 13.4491-13.9246 14.5359-13.9246 15.0793-13.9246 15.4868-13.6529 15.6227-13.1774L16.0982-13.3132 16.6416-16.234C16.234-16.4378 15.8944-16.5736 15.6227-16.5736 14.1963-16.5736 12.8378-15.351 10.7321-12.1585L9.44156-10.2567 9.23776-11.9547C8.83021-15.351 7.87927-16.5736 5.90947-16.5736 4.95853-16.5736 4.21133-16.3019 3.93963-15.8265L1.90189-12.9736 2.51321-12.634C3.53208-13.7887 4.21133-14.2642 4.89058-14.2642 6.04532-14.2642 6.79247-12.9057 7.33587-9.50946L7.74342-7.40381 6.38492-5.23022C4.89058-2.98869 3.73586-1.83397 2.71699-1.83397 2.24152-1.83397 1.83397-1.96982 1.76604-2.17359L1.42642-3.12454Z" fill="#000000" fill-rule="nonzero" fill-opacity="1" transform="matrix(1.00102 0 0 1 1028.73 553.924)"/><path d="M9.8491-13.1774C9.98495-13.7887 10.1887-14.6038 10.3925-15.0793L10.2567-15.351 10.0529-15.2831C9.23776-15.0793 8.83021-15.0114 7.13212-15.0114L6.58872-15.0114 7.33587-18.8831C7.87927-21.8039 8.83021-23.1623 10.3925-23.1623 11.4114-23.1623 12.3623-22.6189 12.9057-21.8039L13.2453-21.9397C13.3812-22.4831 13.7208-23.5699 13.9925-24.2491L14.1963-24.7246C13.6529-24.9963 12.5661-25.2001 11.8189-25.2001 11.4114-25.2001 10.868-25.0642 10.5963-24.9284 9.78116-24.5887 6.92832-22.4831 6.18117-21.668 5.36607-20.9208 4.95853-19.834 4.61888-17.9321L4.07548-15.2151C2.64906-14.5359 1.96982-14.1963 1.15472-13.9246L0.950946-13.1774 3.73586-13.1774 3.46416-11.2076C2.37736-4.55098 1.15472 1.83397 0.407548 4.21133-0.271699 6.24907-1.29057 7.33587-2.51321 7.33587-3.32831 7.33587-3.66793 7.06417-4.27926 6.31702L-4.75473 6.45287C-4.89058 7.26797-5.36607 8.89816-5.56983 9.23776-5.23022 9.37361-4.75473 9.50946-4.34718 9.50946-2.98869 9.50946-1.0868 8.42266 0.271699 6.79247 2.30944 4.34718 3.12454 1.90189 5.56983-10.1208 5.70568-10.5284 5.97737-11.8868 6.24907-13.1774Z" fill="#000000" fill-rule="nonzero" fill-opacity="1" transform="matrix(1.00102 0 0 1 711.945 233.099)"/><path d="M11.8868 8.62646C11.8868 8.49061 11.8868 8.42266 11.2755 7.81136 6.79247 3.32831 5.63777-3.46416 5.63777-8.96606 5.63777-15.2151 6.99627-21.4642 11.4114-25.9472 11.8868-26.3548 11.8868-26.4227 11.8868-26.5586 11.8868-26.7623 11.751-26.8982 11.4793-26.8982 11.1397-26.8982 7.94721-24.4529 5.84153-19.902 4.00756-15.9623 3.53208-11.9547 3.53208-8.96606 3.53208-6.18117 3.93963-1.83397 5.90947 2.24152 8.08306 6.65662 11.1397 8.96606 11.4793 8.96606 11.751 8.96606 11.8868 8.83021 11.8868 8.62646Z" fill="#000000" fill-rule="nonzero" fill-opacity="1" transform="matrix(1.00102 0 0 1 727.025 233.099)"/><path d="M0.747172-3.05661C0.747172-2.30944 0.679247-1.90189 0.475473-0.815096 0.407548-0.407548 0.339624-0.271699 0.339624-0.0679247 0.815096 0.271699 1.35849 0.407548 1.76604 0.407548 2.92076 0.407548 4.27926-0.611322 5.29813-2.24152L7.94721-6.24907 8.28681-3.87171C8.76231-0.950946 9.57741 0.407548 10.8001 0.407548 11.5472 0.407548 12.634-0.203774 13.7208-1.22264L15.4189-2.71699 15.1472-3.39624C13.8566-2.30944 13.0415-1.83397 12.4981-1.83397 11.9547-1.83397 11.5472-2.17359 11.1397-2.85284 10.868-3.53208 10.4604-4.75473 10.3246-5.77362L9.71325-9.23776 10.868-10.9359C12.4981-13.1774 13.4491-13.9246 14.5359-13.9246 15.0793-13.9246 15.4868-13.6529 15.6227-13.1774L16.0982-13.3132 16.6416-16.234C16.234-16.4378 15.8944-16.5736 15.6227-16.5736 14.1963-16.5736 12.8378-15.351 10.7321-12.1585L9.44156-10.2567 9.23776-11.9547C8.83021-15.351 7.87927-16.5736 5.90947-16.5736 4.95853-16.5736 4.21133-16.3019 3.93963-15.8265L1.90189-12.9736 2.51321-12.634C3.53208-13.7887 4.21133-14.2642 4.89058-14.2642 6.04532-14.2642 6.79247-12.9057 7.33587-9.50946L7.74342-7.40381 6.38492-5.23022C4.89058-2.98869 3.73586-1.83397 2.71699-1.83397 2.24152-1.83397 1.83397-1.96982 1.76604-2.17359L1.42642-3.12454Z" fill="#000000" fill-rule="nonzero" fill-opacity="1" transform="matrix(1.00102 0 0 1 742.386 233.099)"/><path d="M10.3925-8.96606C10.3925-11.751 9.98495-16.0982 8.01512-20.1737 5.84153-24.5887 2.78491-26.8982 2.37736-26.8982 2.17359-26.8982 2.03774-26.7623 2.03774-26.5586 2.03774-26.4227 2.03774-26.3548 2.71699-25.7435 6.24907-22.1435 8.28681-16.4378 8.28681-8.96606 8.28681-2.85284 6.92832 3.46416 2.51321 8.01512 2.03774 8.42266 2.03774 8.49061 2.03774 8.62646 2.03774 8.83021 2.17359 8.96606 2.37736 8.96606 2.78491 8.96606 5.97737 6.52077 8.08306 1.96982 9.91701-1.96982 10.3925-5.97737 10.3925-8.96606Z" fill="#000000" fill-rule="nonzero" fill-opacity="1" transform="matrix(1.00102 0 0 1 760.811 233.099)"/></g></g></g></g></g></svg>