<svg width="1128" height="293" xmlns="http://www.w3.org/2000/svg" xmlns:xlink="http://www.w3.org/1999/xlink" xml:space="preserve" overflow="hidden"><g transform="translate(-76 -213)"><g><g><g><g><path d="M0.912275-5.434C0.912275-3.41112 1.58657-1.74522 2.85582-0.753619 3.72843-0.0396641 4.91835 0.317313 6.58425 0.317313 7.09989 0.317313 7.69484 0.198321 7.81385 0.118992L10.6697-2.22119 10.5507 0.0793283C11.225 0.0396641 11.8596 0 12.5339 0 13.2875 0 14.0808 0.0396641 14.8741 0.0793283L14.8741-0.67429 13.6841-0.753619C12.8115-0.793283 12.7322-0.991604 12.7322-2.57818L12.7322-18.0472 12.4942-18.2455C11.3836-17.8489 10.511-17.6109 8.48813-17.3332L8.48813-16.6193 9.91604-16.6193C10.392-16.6193 10.5903-16.3416 10.5903-15.588L10.5903-10.987C9.12275-11.5819 8.4088-11.7803 7.53619-11.7803 6.82223-11.7803 6.22728-11.6613 5.55298-11.3043L3.29214-10.154C1.86421-9.40041 0.912275-7.57586 0.912275-5.434ZM3.13348-6.26693C3.13348-9.00377 4.52171-10.63 6.82223-10.63 7.81385-10.63 8.84512-10.273 9.71773-9.67805 10.273-9.32109 10.5903-9.00377 10.5903-8.80544L10.5903-5.55298C10.5903-3.92676 10.511-3.68878 10.1937-3.0938 9.47974-1.90388 8.21049-1.15026 7.02057-1.15026 4.7597-1.15026 3.13348-3.25246 3.13348-6.26693Z" fill="#000000" fill-rule="nonzero" fill-opacity="1" transform="matrix(1 0 0 1.00162 130.472 414.187)"/><path d="M0.67429-5.51333C0.67429-3.92676 1.03127-2.57818 1.74522-1.62623 2.73684-0.277649 4.48206 0.515634 6.42559 0.515634 7.37753 0.515634 8.32947 0.317313 9.36074-0.158657 10.0747-0.436306 10.5903-0.753619 10.7093-0.912275L11.225-1.74522 10.868-2.02287C9.24176-1.07093 8.64678-0.832947 7.53619-0.832947 5.87029-0.832947 4.48206-1.5469 3.76811-2.77649 3.29214-3.60945 3.0938-4.3234 3.05415-5.79096L6.78258-5.79096C8.56745-5.79096 9.67805-5.87029 11.4629-6.14795 11.4629-6.50492 11.5026-6.70325 11.5026-7.02057 11.5026-9.91604 9.59872-11.7803 6.7429-11.7803 5.79096-11.7803 4.68037-11.4629 3.60945-10.868 1.50724-9.67805 0.67429-8.13116 0.67429-5.51333ZM3.0938-6.78258C3.0938-7.97251 3.21281-8.5278 3.53012-9.16243 4.08542-10.273 5.19602-10.9473 6.42559-10.9473 7.25855-10.9473 7.93283-10.63 8.4088-9.95571 8.9641-9.12275 9.20208-8.4088 9.20208-6.70325L6.34626-6.62392C5.15634-6.62392 4.48206-6.66358 3.0938-6.78258Z" fill="#000000" fill-rule="nonzero" fill-opacity="1" transform="matrix(1 0 0 1.00162 146.15 414.187)"/><path d="M0.753619-0.118992C2.1022 0.317313 3.0938 0.515634 4.28373 0.515634 7.65519 0.515634 10.035-1.26925 10.035-3.72843 10.035-4.48206 9.83671-5.07701 9.32109-5.59266 8.64678-6.22728 7.81385-6.50492 5.55298-6.94124 3.45079-7.33788 2.73684-7.8535 2.73684-9.00377 2.73684-10.273 3.6491-10.9473 5.19602-10.9473 6.94124-10.9473 8.25014-10.0747 8.25014-8.88477L8.25014-8.32947 8.9641-8.32947C8.9641-9.79706 9.00377-10.392 9.0831-11.1456 7.73452-11.6216 6.78258-11.7803 5.75131-11.7803 2.77649-11.7803 0.951939-10.392 0.951939-8.13116 0.951939-6.94124 1.50724-6.06863 2.69716-5.55298 3.37146-5.27534 4.7597-4.83903 6.50492-4.48206 7.65519-4.24408 8.13116-3.68878 8.13116-2.73684 8.13116-1.38824 6.86191-0.436306 5.03736-0.436306 3.17313-0.436306 1.82455-1.30892 1.82455-2.57818L1.82455-3.60945 1.07093-3.60945C1.07093-1.86421 0.991604-1.1106 0.753619-0.118992Z" fill="#000000" fill-rule="nonzero" fill-opacity="1" transform="matrix(1 0 0 1.00162 158.44 414.187)"/><path d="M0.555298 0.0793283C1.62623 0.0396641 2.65751 0 3.72843 0 4.83903 0 5.87029 0.0396641 6.94124 0.0793283L6.94124-0.67429 5.79096-0.753619C4.91835-0.793283 4.83903-0.991604 4.83903-2.57818L4.83903-11.7009 4.60104-11.7803C3.29214-11.2646 1.94354-10.9077 0.594962-10.749L0.594962-10.0747 1.5469-10.0747C2.57818-10.0747 2.65751-9.87638 2.65751-8.21049L2.65751-2.57818C2.65751-0.991604 2.57818-0.793283 1.70556-0.753619L0.555298-0.67429ZM2.45918-14.8741C2.45918-14.1204 2.97482-13.6445 3.72843-13.6445 4.52171-13.6445 5.03736-14.1204 5.03736-14.8741 5.03736-15.6277 4.52171-16.1433 3.76811-16.1433 2.97482-16.1433 2.45918-15.6277 2.45918-14.8741Z" fill="#000000" fill-rule="nonzero" fill-opacity="1" transform="matrix(1 0 0 1.00162 169.319 414.187)"/><path d="M0.832947 3.25246C0.832947 5.51333 3.0938 7.09989 6.34626 7.09989 10.2333 7.09989 13.2875 4.72005 13.2875 1.66589 13.2875-0.158657 12.0579-1.42791 10.273-1.42791L6.14795-1.42791C4.83903-1.42791 4.2044-1.70556 4.2044-2.37985 4.2044-2.69716 4.40273-2.97482 5.07701-3.53012 5.23567-3.68878 5.27534-3.72843 5.39432-3.80776 5.63231-3.80776 5.79096-3.76811 5.9893-3.76811 7.09989-3.76811 8.48813-4.24408 9.51939-4.99768 10.6697-5.79096 11.225-6.82223 11.225-8.13116 11.225-8.64678 11.1456-8.9641 10.9473-9.51939L13.3272-9.51939 13.9618-10.5507 13.8428-10.8283 10.2333-10.749C9.28141-11.5026 8.32947-11.7803 7.09989-11.7803 5.94962-11.7803 4.64072-11.4233 3.60945-10.8283 2.14186-10.035 1.42791-8.80544 1.42791-7.25855 1.42791-5.39432 2.57818-4.12507 4.48206-3.92676L2.45918-2.37985C2.22119-2.02287 2.06254-1.66589 2.06254-1.30892 2.06254-0.594962 2.53851-0.198321 3.76811 0.158657L1.5469 1.34858C1.18992 1.5469 0.832947 2.45918 0.832947 3.25246ZM2.77649 3.21281C2.77649 2.06254 3.45079 1.07093 4.48206 0.594962 4.8787 0.436306 5.59266 0.356977 7.37753 0.356977 10.273 0.356977 11.2646 0.912275 11.2646 2.57818 11.2646 4.72005 9.24176 6.34626 6.5446 6.34626 4.3234 6.34626 2.77649 5.03736 2.77649 3.21281ZM3.56977-7.8535C3.56977-9.79706 4.52171-10.9473 6.14795-10.9473 7.89318-10.9473 9.0831-9.51939 9.0831-7.37753 9.0831-5.75131 8.01216-4.64072 6.42559-4.64072 4.72005-4.64072 3.56977-5.94962 3.56977-7.8535Z" fill="#000000" fill-rule="nonzero" fill-opacity="1" transform="matrix(1 0 0 1.00162 176.683 414.187)"/><path d="M0.158657 0.0793283C1.18992 0.0396641 2.30052 0 3.33179 0 4.40273 0 5.47365 0.0396641 6.50492 0.0793283L6.50492-0.67429 5.35467-0.753619C4.48206-0.793283 4.40273-0.991604 4.40273-2.57818L4.40273-7.89318C4.40273-9.04342 6.10828-10.273 7.65519-10.273 9.40041-10.273 10.511-9.00377 10.511-7.06022L10.511 0.0793283C11.1853 0.0396641 11.8992 0 12.5339 0 13.2875 0 13.9618 0.0396641 14.6757 0.0793283L14.6757-0.67429 13.6445-0.753619C12.7719-0.793283 12.6925-0.951939 12.6925-2.57818L12.6925-7.41721C12.6925-10.3524 11.2646-11.7803 8.4088-11.7803 7.45686-11.7803 6.90156-11.6216 6.34626-11.1456L4.40273-9.51939 4.40273-11.7009 4.16475-11.7803C2.85582-11.2646 1.5469-10.9077 0.198321-10.749L0.198321-10.0747 1.1106-10.0747C2.14186-10.0747 2.26086-9.87638 2.26086-8.21049L2.26086-2.57818C2.26086-0.991604 2.18153-0.793283 1.30892-0.753619L0.158657-0.67429Z" fill="#000000" fill-rule="nonzero" fill-opacity="1" transform="matrix(1 0 0 1.00162 190.949 414.187)"/><path d="M0.753619-0.118992C2.1022 0.317313 3.0938 0.515634 4.28373 0.515634 7.65519 0.515634 10.035-1.26925 10.035-3.72843 10.035-4.48206 9.83671-5.07701 9.32109-5.59266 8.64678-6.22728 7.81385-6.50492 5.55298-6.94124 3.45079-7.33788 2.73684-7.8535 2.73684-9.00377 2.73684-10.273 3.6491-10.9473 5.19602-10.9473 6.94124-10.9473 8.25014-10.0747 8.25014-8.88477L8.25014-8.32947 8.9641-8.32947C8.9641-9.79706 9.00377-10.392 9.0831-11.1456 7.73452-11.6216 6.78258-11.7803 5.75131-11.7803 2.77649-11.7803 0.951939-10.392 0.951939-8.13116 0.951939-6.94124 1.50724-6.06863 2.69716-5.55298 3.37146-5.27534 4.7597-4.83903 6.50492-4.48206 7.65519-4.24408 8.13116-3.68878 8.13116-2.73684 8.13116-1.38824 6.86191-0.436306 5.03736-0.436306 3.17313-0.436306 1.82455-1.30892 1.82455-2.57818L1.82455-3.60945 1.07093-3.60945C1.07093-1.86421 0.991604-1.1106 0.753619-0.118992Z" fill="#000000" fill-rule="nonzero" fill-opacity="1" transform="matrix(1 0 0 1.00162 92.0451 449.462)"/><path d="M0.198321 6.30661 0.198321 7.06022C1.26925 7.02057 2.34018 6.98089 3.41112 6.98089 4.48206 6.98089 5.55298 7.02057 6.62392 7.06022L6.62392 6.30661 5.434 6.22728C4.56139 6.18761 4.48206 6.02895 4.48206 4.44238L4.48206-0.317313C5.27534 0.118992 6.06863 0.317313 7.21887 0.317313 7.97251 0.317313 8.64678 0.158657 9.04342-0.118992L11.9786-1.94354C13.0098-2.61783 14.1998-5.19602 14.1998-6.82223 14.1998-9.59872 11.8596-11.7803 8.88477-11.7803 7.93283-11.7803 7.02057-11.5423 6.58425-11.1456L4.48206-9.28141 4.48206-11.7009 4.24408-11.7803C2.93515-11.2646 1.62623-10.9077 0.237985-10.749L0.237985-10.0747 1.18992-10.0747C2.22119-10.0747 2.34018-9.87638 2.34018-8.21049L2.34018 4.44238C2.34018 6.02895 2.26086 6.18761 1.38824 6.22728ZM4.48206-2.45918 4.48206-7.69484C4.48206-8.05183 4.60104-8.32947 4.95803-8.76579 5.71164-9.67805 6.7429-10.154 8.05183-10.154 10.4317-10.154 11.9786-8.48813 11.9786-5.87029 11.9786-3.05415 10.273-0.991604 7.97251-0.991604 6.5446-0.991604 5.47365-1.42791 4.48206-2.45918Z" fill="#000000" fill-rule="nonzero" fill-opacity="1" transform="matrix(1 0 0 1.00162 102.924 449.462)"/><path d="M0.67429-5.51333C0.67429-3.92676 1.03127-2.57818 1.74522-1.62623 2.73684-0.277649 4.48206 0.515634 6.42559 0.515634 7.37753 0.515634 8.32947 0.317313 9.36074-0.158657 10.0747-0.436306 10.5903-0.753619 10.7093-0.912275L11.225-1.74522 10.868-2.02287C9.24176-1.07093 8.64678-0.832947 7.53619-0.832947 5.87029-0.832947 4.48206-1.5469 3.76811-2.77649 3.29214-3.60945 3.0938-4.3234 3.05415-5.79096L6.78258-5.79096C8.56745-5.79096 9.67805-5.87029 11.4629-6.14795 11.4629-6.50492 11.5026-6.70325 11.5026-7.02057 11.5026-9.91604 9.59872-11.7803 6.7429-11.7803 5.79096-11.7803 4.68037-11.4629 3.60945-10.868 1.50724-9.67805 0.67429-8.13116 0.67429-5.51333ZM3.0938-6.78258C3.0938-7.97251 3.21281-8.5278 3.53012-9.16243 4.08542-10.273 5.19602-10.9473 6.42559-10.9473 7.25855-10.9473 7.93283-10.63 8.4088-9.95571 8.9641-9.12275 9.20208-8.4088 9.20208-6.70325L6.34626-6.62392C5.15634-6.62392 4.48206-6.66358 3.0938-6.78258Z" fill="#000000" fill-rule="nonzero" fill-opacity="1" transform="matrix(1 0 0 1.00162 118.345 449.462)"/><path d="M0.67429-5.27534C0.67429-1.90388 3.0938 0.515634 6.5446 0.515634 7.89318 0.515634 9.79706 0.0396641 10.0747-0.356977L10.5903-1.15026 10.3524-1.5469C9.40041-1.03127 8.56745-0.793283 7.65519-0.793283 4.79937-0.793283 2.93515-2.97482 2.93515-6.30661 2.93515-8.9641 4.2044-10.4713 6.50492-10.4713 7.65519-10.4713 8.88477-9.99536 9.36074-9.36074L9.51939-7.81385 10.2333-7.81385C10.2333-8.9641 10.3524-9.99536 10.5903-10.9077 9.55907-11.5026 8.68646-11.7803 7.61552-11.7803 6.38594-11.7803 4.95803-11.3043 3.41112-10.3524 1.62623-9.24176 0.67429-7.49654 0.67429-5.27534Z" fill="#000000" fill-rule="nonzero" fill-opacity="1" transform="matrix(1 0 0 1.00162 130.635 449.462)"/><path d="M0.555298 0.0793283C1.62623 0.0396641 2.65751 0 3.72843 0 4.83903 0 5.87029 0.0396641 6.94124 0.0793283L6.94124-0.67429 5.79096-0.753619C4.91835-0.793283 4.83903-0.991604 4.83903-2.57818L4.83903-11.7009 4.60104-11.7803C3.29214-11.2646 1.94354-10.9077 0.594962-10.749L0.594962-10.0747 1.5469-10.0747C2.57818-10.0747 2.65751-9.87638 2.65751-8.21049L2.65751-2.57818C2.65751-0.991604 2.57818-0.793283 1.70556-0.753619L0.555298-0.67429ZM2.45918-14.8741C2.45918-14.1204 2.97482-13.6445 3.72843-13.6445 4.52171-13.6445 5.03736-14.1204 5.03736-14.8741 5.03736-15.6277 4.52171-16.1433 3.76811-16.1433 2.97482-16.1433 2.45918-15.6277 2.45918-14.8741Z" fill="#000000" fill-rule="nonzero" fill-opacity="1" transform="matrix(1 0 0 1.00162 142.028 449.462)"/><path d="M0.594962 0.0793283C1.66589 0.0396641 2.73684 0 3.80776 0 4.8787 0 5.90997 0.0396641 7.02057 0.0793283L7.02057-0.67429 5.83064-0.753619C4.95803-0.793283 4.8787-0.991604 4.8787-2.57818L4.8787-9.67805 8.05183-9.67805 8.25014-11.0266C7.09989-10.9473 5.9893-10.9077 4.8787-10.9077L4.8787-13.0495C4.8787-15.945 5.19602-16.6589 6.66358-16.6589 7.37753-16.6589 7.81385-16.4606 8.44847-15.945L8.76579-16.1036 8.76579-18.0472C8.21049-18.2455 7.89318-18.3248 7.57586-18.3248 6.7429-18.3248 5.87029-17.8885 5.27534-17.2539L3.80776-15.588C3.05415-14.7551 2.73684-13.6445 2.73684-11.9786L2.73684-10.9077 0.951939-10.154 0.951939-9.59872 2.73684-9.67805 2.73684-2.57818C2.73684-0.991604 2.65751-0.793283 1.78489-0.753619L0.594962-0.67429ZM8.64678 0.0793283C9.71773 0.0396641 10.7886 0 11.8596 0 12.9305 0 14.0015 0.0396641 15.0724 0.0793283L15.0724-0.67429 13.8825-0.753619C13.0098-0.793283 12.9305-0.991604 12.9305-2.57818L12.9305-11.6216 12.6925-11.7803C11.5819-11.225 10.2333-10.9077 8.68646-10.7093L8.68646-9.99536 9.6384-9.99536C10.6697-9.99536 10.7886-9.83671 10.7886-8.17081L10.7886-2.57818C10.7886-0.991604 10.7093-0.793283 9.83671-0.753619L8.64678-0.67429ZM10.7093-14.8741C10.7093-14.1204 11.225-13.6445 11.9786-13.6445 12.7719-13.6445 13.2875-14.1204 13.2875-14.8741 13.2875-15.6277 12.7719-16.1433 12.0182-16.1433 11.225-16.1433 10.7093-15.6277 10.7093-14.8741Z" fill="#000000" fill-rule="nonzero" fill-opacity="1" transform="matrix(1 0 0 1.00162 149.391 449.462)"/><path d="M0.67429-5.27534C0.67429-1.90388 3.0938 0.515634 6.5446 0.515634 7.89318 0.515634 9.79706 0.0396641 10.0747-0.356977L10.5903-1.15026 10.3524-1.5469C9.40041-1.03127 8.56745-0.793283 7.65519-0.793283 4.79937-0.793283 2.93515-2.97482 2.93515-6.30661 2.93515-8.9641 4.2044-10.4713 6.50492-10.4713 7.65519-10.4713 8.88477-9.99536 9.36074-9.36074L9.51939-7.81385 10.2333-7.81385C10.2333-8.9641 10.3524-9.99536 10.5903-10.9077 9.55907-11.5026 8.68646-11.7803 7.61552-11.7803 6.38594-11.7803 4.95803-11.3043 3.41112-10.3524 1.62623-9.24176 0.67429-7.49654 0.67429-5.27534Z" fill="#000000" fill-rule="nonzero" fill-opacity="1" transform="matrix(1 0 0 1.00162 164.915 449.462)"/><path d="M0.832947-2.77649C0.832947-0.832947 2.02287 0.317313 4.04574 0.317313 4.52171 0.317313 4.95803 0.237985 5.11669 0.118992L8.32947-2.06254 8.17081 0.0793283C8.84512 0.0396641 9.51939 0 10.1937 0 10.8283 0 11.4629 0.0396641 12.0976 0.0793283L12.0976-0.67429 11.106-0.713955C10.4713-0.753619 10.3524-0.951939 10.3524-2.18153L10.3524-6.78258C10.3524-10.4713 9.28141-11.7803 6.30661-11.7803 5.19602-11.7803 4.16475-11.5026 3.21281-10.9473L1.86421-10.154 1.86421-8.48813 2.49884-8.32947 2.85582-9.12275C3.37146-10.273 3.6491-10.4713 4.83903-10.4713 7.21887-10.4713 8.25014-9.51939 8.32947-7.25855L5.79096-6.78258C2.30052-6.14795 0.832947-4.99768 0.832947-2.77649ZM3.01447-3.13348C3.01447-4.08542 3.53012-4.95803 4.3234-5.434 4.95803-5.79096 6.34626-6.14795 8.32947-6.42559L8.32947-3.13348C7.57586-2.1022 5.94962-1.15026 4.95803-1.15026 3.92676-1.15026 3.01447-2.06254 3.01447-3.13348Z" fill="#000000" fill-rule="nonzero" fill-opacity="1" transform="matrix(1 0 0 1.00162 176.307 449.462)"/><path d="M0.555298-9.51939 2.49884-9.59872 2.49884-2.37985C2.49884-0.515634 3.37146 0.317313 5.35467 0.317313 5.90997 0.317313 6.5446 0.158657 6.70325 0L7.93283-1.34858 7.61552-1.74522C6.94124-1.42791 6.58425-1.26925 6.06863-1.26925 5.07701-1.26925 4.68037-1.78489 4.68037-3.01447L4.68037-9.59872 7.97251-9.59872 8.17081-10.9473 4.68037-10.8283 4.68037-11.7803C4.68037-12.8115 4.7597-13.7238 4.95803-15.35L4.64072-15.6277C4.04574-15.231 3.25246-14.9137 2.45918-14.6757 2.53851-13.9221 2.57818-13.4462 2.57818-12.6925L2.57818-10.9077 0.555298-10.035Z" fill="#000000" fill-rule="nonzero" fill-opacity="1" transform="matrix(1 0 0 1.00162 189.136 449.462)"/><path d="M0.555298 0.0793283C1.62623 0.0396641 2.65751 0 3.72843 0 4.83903 0 5.87029 0.0396641 6.94124 0.0793283L6.94124-0.67429 5.79096-0.753619C4.91835-0.793283 4.83903-0.991604 4.83903-2.57818L4.83903-11.7009 4.60104-11.7803C3.29214-11.2646 1.94354-10.9077 0.594962-10.749L0.594962-10.0747 1.5469-10.0747C2.57818-10.0747 2.65751-9.87638 2.65751-8.21049L2.65751-2.57818C2.65751-0.991604 2.57818-0.793283 1.70556-0.753619L0.555298-0.67429ZM2.45918-14.8741C2.45918-14.1204 2.97482-13.6445 3.72843-13.6445 4.52171-13.6445 5.03736-14.1204 5.03736-14.8741 5.03736-15.6277 4.52171-16.1433 3.76811-16.1433 2.97482-16.1433 2.45918-15.6277 2.45918-14.8741Z" fill="#000000" fill-rule="nonzero" fill-opacity="1" transform="matrix(1 0 0 1.00162 197.501 449.462)"/><path d="M0.832947-5.47365C0.832947-1.90388 3.0938 0.515634 6.42559 0.515634 10.3524 0.515634 13.2082-2.18153 13.2082-5.94962 13.2082-9.36074 10.6697-11.7803 7.17922-11.7803 3.41112-11.7803 0.832947-9.20208 0.832947-5.47365ZM3.21281-6.30661C3.21281-9.32109 4.44238-10.9473 6.70325-10.9473 9.04342-10.9473 10.7886-8.44847 10.7886-5.03736 10.7886-2.14186 9.47974-0.317313 7.41721-0.317313 4.91835-0.317313 3.21281-2.73684 3.21281-6.30661Z" fill="#000000" fill-rule="nonzero" fill-opacity="1" transform="matrix(1 0 0 1.00162 204.865 449.462)"/><path d="M0.158657 0.0793283C1.18992 0.0396641 2.30052 0 3.33179 0 4.40273 0 5.47365 0.0396641 6.50492 0.0793283L6.50492-0.67429 5.35467-0.753619C4.48206-0.793283 4.40273-0.991604 4.40273-2.57818L4.40273-7.89318C4.40273-9.04342 6.10828-10.273 7.65519-10.273 9.40041-10.273 10.511-9.00377 10.511-7.06022L10.511 0.0793283C11.1853 0.0396641 11.8992 0 12.5339 0 13.2875 0 13.9618 0.0396641 14.6757 0.0793283L14.6757-0.67429 13.6445-0.753619C12.7719-0.793283 12.6925-0.951939 12.6925-2.57818L12.6925-7.41721C12.6925-10.3524 11.2646-11.7803 8.4088-11.7803 7.45686-11.7803 6.90156-11.6216 6.34626-11.1456L4.40273-9.51939 4.40273-11.7009 4.16475-11.7803C2.85582-11.2646 1.5469-10.9077 0.198321-10.749L0.198321-10.0747 1.1106-10.0747C2.14186-10.0747 2.26086-9.87638 2.26086-8.21049L2.26086-2.57818C2.26086-0.991604 2.18153-0.793283 1.30892-0.753619L0.158657-0.67429Z" fill="#000000" fill-rule="nonzero" fill-opacity="1" transform="matrix(1 0 0 1.00162 218.874 449.462)"/><path d="M0.753619-0.118992C2.1022 0.317313 3.0938 0.515634 4.28373 0.515634 7.65519 0.515634 10.035-1.26925 10.035-3.72843 10.035-4.48206 9.83671-5.07701 9.32109-5.59266 8.64678-6.22728 7.81385-6.50492 5.55298-6.94124 3.45079-7.33788 2.73684-7.8535 2.73684-9.00377 2.73684-10.273 3.6491-10.9473 5.19602-10.9473 6.94124-10.9473 8.25014-10.0747 8.25014-8.88477L8.25014-8.32947 8.9641-8.32947C8.9641-9.79706 9.00377-10.392 9.0831-11.1456 7.73452-11.6216 6.78258-11.7803 5.75131-11.7803 2.77649-11.7803 0.951939-10.392 0.951939-8.13116 0.951939-6.94124 1.50724-6.06863 2.69716-5.55298 3.37146-5.27534 4.7597-4.83903 6.50492-4.48206 7.65519-4.24408 8.13116-3.68878 8.13116-2.73684 8.13116-1.38824 6.86191-0.436306 5.03736-0.436306 3.17313-0.436306 1.82455-1.30892 1.82455-2.57818L1.82455-3.60945 1.07093-3.60945C1.07093-1.86421 0.991604-1.1106 0.753619-0.118992Z" fill="#000000" fill-rule="nonzero" fill-opacity="1" transform="matrix(1 0 0 1.00162 233.807 449.462)"/><g><path d="M266.716 38.6797 149.746 38.6797C137.886 38.6797 128.268 29.071 128.268 17.2115L128.268-17.2071C128.268-29.0667 137.886-38.6853 149.746-38.6853L266.716-38.6853C278.575-38.6853 288.193-29.0667 288.193-17.2071L288.193 17.2115C288.193 29.071 278.575 38.6797 266.716 38.6797Z" stroke="#000000" stroke-width="3.57887" stroke-linecap="butt" stroke-linejoin="miter" stroke-miterlimit="10" stroke-opacity="1" fill="none" fill-rule="nonzero" transform="matrix(1 0 0 -1.00162 168.364 426.221)"/></g><path d="M0.555298 0.0793283C1.82455 0.0396641 3.05415 0 4.3234 0 5.55298 0 6.82223 0.0396641 8.09149 0.0793283L8.09149-0.67429 6.86191-0.753619C5.67199-0.832947 5.55298-1.03127 5.55298-3.01447L5.55298-14.3188C5.55298-16.302 5.67199-16.5003 6.86191-16.5796L8.09149-16.6589 8.09149-17.4126C6.82223-17.3332 5.55298-17.3332 4.3234-17.3332 3.05415-17.3332 1.82455-17.3332 0.555298-17.4126L0.555298-16.6589 1.78489-16.5796C2.97482-16.5003 3.0938-16.302 3.0938-14.3188L3.0938-3.01447C3.0938-1.03127 2.97482-0.832947 1.78489-0.753619L0.555298-0.67429Z" fill="#000000" fill-rule="nonzero" fill-opacity="1" transform="matrix(1 0 0 1.00162 343.109 414.162)"/><path d="M0.158657 0.0793283C1.18992 0.0396641 2.30052 0 3.33179 0 4.40273 0 5.47365 0.0396641 6.50492 0.0793283L6.50492-0.67429 5.35467-0.753619C4.48206-0.793283 4.40273-0.991604 4.40273-2.57818L4.40273-7.89318C4.40273-9.04342 6.10828-10.273 7.65519-10.273 9.40041-10.273 10.511-9.00377 10.511-7.06022L10.511 0.0793283C11.1853 0.0396641 11.8992 0 12.5339 0 13.2875 0 13.9618 0.0396641 14.6757 0.0793283L14.6757-0.67429 13.6445-0.753619C12.7719-0.793283 12.6925-0.951939 12.6925-2.57818L12.6925-7.41721C12.6925-10.3524 11.2646-11.7803 8.4088-11.7803 7.45686-11.7803 6.90156-11.6216 6.34626-11.1456L4.40273-9.51939 4.40273-11.7009 4.16475-11.7803C2.85582-11.2646 1.5469-10.9077 0.198321-10.749L0.198321-10.0747 1.1106-10.0747C2.14186-10.0747 2.26086-9.87638 2.26086-8.21049L2.26086-2.57818C2.26086-0.991604 2.18153-0.793283 1.30892-0.753619L0.158657-0.67429Z" fill="#000000" fill-rule="nonzero" fill-opacity="1" transform="matrix(1 0 0 1.00162 351.755 414.162)"/><path d="M0.555298 0.0793283C1.62623 0.0396641 2.65751 0 3.72843 0 4.83903 0 5.87029 0.0396641 6.94124 0.0793283L6.94124-0.67429 5.79096-0.753619C4.91835-0.793283 4.83903-0.991604 4.83903-2.57818L4.83903-11.7009 4.60104-11.7803C3.29214-11.2646 1.94354-10.9077 0.594962-10.749L0.594962-10.0747 1.5469-10.0747C2.57818-10.0747 2.65751-9.87638 2.65751-8.21049L2.65751-2.57818C2.65751-0.991604 2.57818-0.793283 1.70556-0.753619L0.555298-0.67429ZM2.45918-14.8741C2.45918-14.1204 2.97482-13.6445 3.72843-13.6445 4.52171-13.6445 5.03736-14.1204 5.03736-14.8741 5.03736-15.6277 4.52171-16.1433 3.76811-16.1433 2.97482-16.1433 2.45918-15.6277 2.45918-14.8741Z" fill="#000000" fill-rule="nonzero" fill-opacity="1" transform="matrix(1 0 0 1.00162 366.689 414.162)"/><path d="M0.555298-9.51939 2.49884-9.59872 2.49884-2.37985C2.49884-0.515634 3.37146 0.317313 5.35467 0.317313 5.90997 0.317313 6.5446 0.158657 6.70325 0L7.93283-1.34858 7.61552-1.74522C6.94124-1.42791 6.58425-1.26925 6.06863-1.26925 5.07701-1.26925 4.68037-1.78489 4.68037-3.01447L4.68037-9.59872 7.97251-9.59872 8.17081-10.9473 4.68037-10.8283 4.68037-11.7803C4.68037-12.8115 4.7597-13.7238 4.95803-15.35L4.64072-15.6277C4.04574-15.231 3.25246-14.9137 2.45918-14.6757 2.53851-13.9221 2.57818-13.4462 2.57818-12.6925L2.57818-10.9077 0.555298-10.035Z" fill="#000000" fill-rule="nonzero" fill-opacity="1" transform="matrix(1 0 0 1.00162 374.053 414.162)"/><path d="M0.555298 0.0793283C1.62623 0.0396641 2.65751 0 3.72843 0 4.83903 0 5.87029 0.0396641 6.94124 0.0793283L6.94124-0.67429 5.79096-0.753619C4.91835-0.793283 4.83903-0.991604 4.83903-2.57818L4.83903-11.7009 4.60104-11.7803C3.29214-11.2646 1.94354-10.9077 0.594962-10.749L0.594962-10.0747 1.5469-10.0747C2.57818-10.0747 2.65751-9.87638 2.65751-8.21049L2.65751-2.57818C2.65751-0.991604 2.57818-0.793283 1.70556-0.753619L0.555298-0.67429ZM2.45918-14.8741C2.45918-14.1204 2.97482-13.6445 3.72843-13.6445 4.52171-13.6445 5.03736-14.1204 5.03736-14.8741 5.03736-15.6277 4.52171-16.1433 3.76811-16.1433 2.97482-16.1433 2.45918-15.6277 2.45918-14.8741Z" fill="#000000" fill-rule="nonzero" fill-opacity="1" transform="matrix(1 0 0 1.00162 382.418 414.162)"/><path d="M0.832947-2.77649C0.832947-0.832947 2.02287 0.317313 4.04574 0.317313 4.52171 0.317313 4.95803 0.237985 5.11669 0.118992L8.32947-2.06254 8.17081 0.0793283C8.84512 0.0396641 9.51939 0 10.1937 0 10.8283 0 11.4629 0.0396641 12.0976 0.0793283L12.0976-0.67429 11.106-0.713955C10.4713-0.753619 10.3524-0.951939 10.3524-2.18153L10.3524-6.78258C10.3524-10.4713 9.28141-11.7803 6.30661-11.7803 5.19602-11.7803 4.16475-11.5026 3.21281-10.9473L1.86421-10.154 1.86421-8.48813 2.49884-8.32947 2.85582-9.12275C3.37146-10.273 3.6491-10.4713 4.83903-10.4713 7.21887-10.4713 8.25014-9.51939 8.32947-7.25855L5.79096-6.78258C2.30052-6.14795 0.832947-4.99768 0.832947-2.77649ZM3.01447-3.13348C3.01447-4.08542 3.53012-4.95803 4.3234-5.434 4.95803-5.79096 6.34626-6.14795 8.32947-6.42559L8.32947-3.13348C7.57586-2.1022 5.94962-1.15026 4.95803-1.15026 3.92676-1.15026 3.01447-2.06254 3.01447-3.13348Z" fill="#000000" fill-rule="nonzero" fill-opacity="1" transform="matrix(1 0 0 1.00162 389.782 414.162)"/><path d="M0.555298 0.0793283C1.62623 0.0396641 2.65751 0 3.72843 0 4.83903 0 5.87029 0.0396641 6.94124 0.0793283L6.94124-0.67429 5.79096-0.753619C4.91835-0.793283 4.83903-0.991604 4.83903-2.57818L4.83903-18.0472 4.60104-18.2455C3.45079-17.8489 2.61783-17.6109 0.594962-17.3332L0.594962-16.6193 2.02287-16.6193C2.49884-16.6193 2.65751-16.3416 2.65751-15.588L2.65751-2.57818C2.65751-0.991604 2.57818-0.793283 1.70556-0.753619L0.555298-0.67429Z" fill="#000000" fill-rule="nonzero" fill-opacity="1" transform="matrix(1 0 0 1.00162 402.609 414.162)"/><path d="M0.555298-16.6589 1.58657-16.5796C2.77649-16.5003 2.8955-16.2623 2.8955-14.3188L2.8955-2.37985C2.8955-1.66589 2.65751-1.1106 2.26086-0.912275L1.46757-0.515634 1.46757 0.0793283C2.65751 0.0396641 3.84743 0 5.03736 0 6.26693 0 7.53619 0.0793283 8.76579 0.0793283 12.0182 0.0793283 14.5171-0.753619 16.302-2.49884 18.1265-4.28373 19.2768-6.98089 19.2768-9.67805 19.2768-14.3584 15.7467-17.4126 10.3127-17.4126 8.84512-17.4126 7.33788-17.3332 5.87029-17.3332 4.08542-17.3332 2.34018-17.3332 0.555298-17.4126ZM5.35467-1.22959 5.35467-16.183C5.9893-16.302 6.90156-16.3813 8.17081-16.3813 11.0266-16.3813 13.3272-15.9053 14.7154-14.5568 15.945-13.3668 16.54-11.5423 16.54-9.04342 16.54-6.22728 15.6673-4.04574 13.9618-2.69716 12.4149-1.46757 10.868-1.03127 7.97251-1.03127 6.78258-1.03127 5.9893-1.07093 5.35467-1.22959Z" fill="#000000" fill-rule="nonzero" fill-opacity="1" transform="matrix(1 0 0 1.00162 336.796 449.437)"/><path d="M0.67429-5.51333C0.67429-3.92676 1.03127-2.57818 1.74522-1.62623 2.73684-0.277649 4.48206 0.515634 6.42559 0.515634 7.37753 0.515634 8.32947 0.317313 9.36074-0.158657 10.0747-0.436306 10.5903-0.753619 10.7093-0.912275L11.225-1.74522 10.868-2.02287C9.24176-1.07093 8.64678-0.832947 7.53619-0.832947 5.87029-0.832947 4.48206-1.5469 3.76811-2.77649 3.29214-3.60945 3.0938-4.3234 3.05415-5.79096L6.78258-5.79096C8.56745-5.79096 9.67805-5.87029 11.4629-6.14795 11.4629-6.50492 11.5026-6.70325 11.5026-7.02057 11.5026-9.91604 9.59872-11.7803 6.7429-11.7803 5.79096-11.7803 4.68037-11.4629 3.60945-10.868 1.50724-9.67805 0.67429-8.13116 0.67429-5.51333ZM3.0938-6.78258C3.0938-7.97251 3.21281-8.5278 3.53012-9.16243 4.08542-10.273 5.19602-10.9473 6.42559-10.9473 7.25855-10.9473 7.93283-10.63 8.4088-9.95571 8.9641-9.12275 9.20208-8.4088 9.20208-6.70325L6.34626-6.62392C5.15634-6.62392 4.48206-6.66358 3.0938-6.78258Z" fill="#000000" fill-rule="nonzero" fill-opacity="1" transform="matrix(1 0 0 1.00162 356.655 449.437)"/><path d="M0.753619-0.118992C2.1022 0.317313 3.0938 0.515634 4.28373 0.515634 7.65519 0.515634 10.035-1.26925 10.035-3.72843 10.035-4.48206 9.83671-5.07701 9.32109-5.59266 8.64678-6.22728 7.81385-6.50492 5.55298-6.94124 3.45079-7.33788 2.73684-7.8535 2.73684-9.00377 2.73684-10.273 3.6491-10.9473 5.19602-10.9473 6.94124-10.9473 8.25014-10.0747 8.25014-8.88477L8.25014-8.32947 8.9641-8.32947C8.9641-9.79706 9.00377-10.392 9.0831-11.1456 7.73452-11.6216 6.78258-11.7803 5.75131-11.7803 2.77649-11.7803 0.951939-10.392 0.951939-8.13116 0.951939-6.94124 1.50724-6.06863 2.69716-5.55298 3.37146-5.27534 4.7597-4.83903 6.50492-4.48206 7.65519-4.24408 8.13116-3.68878 8.13116-2.73684 8.13116-1.38824 6.86191-0.436306 5.03736-0.436306 3.17313-0.436306 1.82455-1.30892 1.82455-2.57818L1.82455-3.60945 1.07093-3.60945C1.07093-1.86421 0.991604-1.1106 0.753619-0.118992Z" fill="#000000" fill-rule="nonzero" fill-opacity="1" transform="matrix(1 0 0 1.00162 368.946 449.437)"/><path d="M0.555298 0.0793283C1.62623 0.0396641 2.65751 0 3.72843 0 4.83903 0 5.87029 0.0396641 6.94124 0.0793283L6.94124-0.67429 5.79096-0.753619C4.91835-0.793283 4.83903-0.991604 4.83903-2.57818L4.83903-11.7009 4.60104-11.7803C3.29214-11.2646 1.94354-10.9077 0.594962-10.749L0.594962-10.0747 1.5469-10.0747C2.57818-10.0747 2.65751-9.87638 2.65751-8.21049L2.65751-2.57818C2.65751-0.991604 2.57818-0.793283 1.70556-0.753619L0.555298-0.67429ZM2.45918-14.8741C2.45918-14.1204 2.97482-13.6445 3.72843-13.6445 4.52171-13.6445 5.03736-14.1204 5.03736-14.8741 5.03736-15.6277 4.52171-16.1433 3.76811-16.1433 2.97482-16.1433 2.45918-15.6277 2.45918-14.8741Z" fill="#000000" fill-rule="nonzero" fill-opacity="1" transform="matrix(1 0 0 1.00162 379.826 449.437)"/><path d="M0.832947 3.25246C0.832947 5.51333 3.0938 7.09989 6.34626 7.09989 10.2333 7.09989 13.2875 4.72005 13.2875 1.66589 13.2875-0.158657 12.0579-1.42791 10.273-1.42791L6.14795-1.42791C4.83903-1.42791 4.2044-1.70556 4.2044-2.37985 4.2044-2.69716 4.40273-2.97482 5.07701-3.53012 5.23567-3.68878 5.27534-3.72843 5.39432-3.80776 5.63231-3.80776 5.79096-3.76811 5.9893-3.76811 7.09989-3.76811 8.48813-4.24408 9.51939-4.99768 10.6697-5.79096 11.225-6.82223 11.225-8.13116 11.225-8.64678 11.1456-8.9641 10.9473-9.51939L13.3272-9.51939 13.9618-10.5507 13.8428-10.8283 10.2333-10.749C9.28141-11.5026 8.32947-11.7803 7.09989-11.7803 5.94962-11.7803 4.64072-11.4233 3.60945-10.8283 2.14186-10.035 1.42791-8.80544 1.42791-7.25855 1.42791-5.39432 2.57818-4.12507 4.48206-3.92676L2.45918-2.37985C2.22119-2.02287 2.06254-1.66589 2.06254-1.30892 2.06254-0.594962 2.53851-0.198321 3.76811 0.158657L1.5469 1.34858C1.18992 1.5469 0.832947 2.45918 0.832947 3.25246ZM2.77649 3.21281C2.77649 2.06254 3.45079 1.07093 4.48206 0.594962 4.8787 0.436306 5.59266 0.356977 7.37753 0.356977 10.273 0.356977 11.2646 0.912275 11.2646 2.57818 11.2646 4.72005 9.24176 6.34626 6.5446 6.34626 4.3234 6.34626 2.77649 5.03736 2.77649 3.21281ZM3.56977-7.8535C3.56977-9.79706 4.52171-10.9473 6.14795-10.9473 7.89318-10.9473 9.0831-9.51939 9.0831-7.37753 9.0831-5.75131 8.01216-4.64072 6.42559-4.64072 4.72005-4.64072 3.56977-5.94962 3.56977-7.8535Z" fill="#000000" fill-rule="nonzero" fill-opacity="1" transform="matrix(1 0 0 1.00162 387.19 449.437)"/><path d="M0.158657 0.0793283C1.18992 0.0396641 2.30052 0 3.33179 0 4.40273 0 5.47365 0.0396641 6.50492 0.0793283L6.50492-0.67429 5.35467-0.753619C4.48206-0.793283 4.40273-0.991604 4.40273-2.57818L4.40273-7.89318C4.40273-9.04342 6.10828-10.273 7.65519-10.273 9.40041-10.273 10.511-9.00377 10.511-7.06022L10.511 0.0793283C11.1853 0.0396641 11.8992 0 12.5339 0 13.2875 0 13.9618 0.0396641 14.6757 0.0793283L14.6757-0.67429 13.6445-0.753619C12.7719-0.793283 12.6925-0.951939 12.6925-2.57818L12.6925-7.41721C12.6925-10.3524 11.2646-11.7803 8.4088-11.7803 7.45686-11.7803 6.90156-11.6216 6.34626-11.1456L4.40273-9.51939 4.40273-11.7009 4.16475-11.7803C2.85582-11.2646 1.5469-10.9077 0.198321-10.749L0.198321-10.0747 1.1106-10.0747C2.14186-10.0747 2.26086-9.87638 2.26086-8.21049L2.26086-2.57818C2.26086-0.991604 2.18153-0.793283 1.30892-0.753619L0.158657-0.67429Z" fill="#000000" fill-rule="nonzero" fill-opacity="1" transform="matrix(1 0 0 1.00162 401.454 449.437)"/><g><path d="M396.662 251.768 396.662 37.0464C396.662 17.2836 412.675 1.25934 432.447 1.25934L876.201 1.25934C895.973 1.25934 911.988 17.2836 911.988 37.0464L911.988 251.768C911.988 271.541 895.973 287.554 876.201 287.554L432.447 287.554C412.675 287.554 396.662 271.541 396.662 251.768Z" fill="#BAE2F8" fill-rule="nonzero" fill-opacity="1" transform="matrix(1 0 0 1.00162 76 214.58)"/></g><path d="M579.84 175.92 455.702 175.92C435.937 175.92 419.914 191.945 419.914 211.707L419.914 210.884C419.914 230.647 435.937 246.671 455.702 246.671L579.84 246.671C599.603 246.671 615.628 230.647 615.628 210.884L615.628 211.707C615.628 191.945 599.603 175.92 579.84 175.92Z" fill="#FFFFFF" fill-rule="nonzero" fill-opacity="1" transform="matrix(1 0 0 1.00162 76 214.58)"/><g><path d="M487.475 35.3776 363.338 35.3776C343.575 35.3776 327.549 19.3534 327.549-0.409302L327.549 0.413729C327.549-19.3489 343.575-35.3733 363.338-35.3733L487.475-35.3733C507.238-35.3733 523.263-19.3489 523.263 0.413729L523.263-0.409302C523.263 19.3534 507.238 35.3776 487.475 35.3776Z" stroke="#000000" stroke-width="3.57887" stroke-linecap="butt" stroke-linejoin="miter" stroke-miterlimit="10" stroke-opacity="1" fill="none" fill-rule="nonzero" transform="matrix(1 0 0 -1.00162 168.364 426.221)"/></g><path d="M0.555298-16.6589 1.78489-16.5796C2.97482-16.5003 3.0938-16.302 3.0938-14.3188L3.0938-3.01447C3.0938-1.03127 3.01447-0.872611 1.78489-0.753619L0.872611-0.67429 0.872611 0.0793283C1.94354 0.0396641 2.97482 0 4.04574 0 5.9893 0 8.01216 0.0396641 9.99536 0.0793283L14.2791 0C14.2791-1.46757 14.4377-2.81617 14.6757-4.12507L13.7635-4.12507 13.6445-3.25246C13.4858-2.18153 13.1685-1.42791 12.8115-1.26925 12.2562-1.1106 10.392-0.991604 8.09149-0.991604 6.7429-0.991604 6.30661-1.03127 5.55298-1.18992L5.55298-8.21049 9.6384-8.28982C10.7886-8.28982 11.2646-8.21049 11.4629-7.37753 11.5423-6.82223 11.5819-5.87029 11.5819-5.87029L12.3356-5.87029C12.2959-6.82223 12.2562-7.73452 12.2562-8.68646 12.2562-9.6384 12.2959-10.63 12.3356-11.5819L11.5819-11.5819C11.5819-11.5819 11.5819-10.749 11.4629-10.273 11.225-9.44007 10.749-9.32109 9.6384-9.32109 8.36915-9.32109 6.66358-9.36074 5.55298-9.44007L5.55298-16.1433C6.34626-16.302 6.78258-16.3416 8.5278-16.3416 9.99536-16.3416 11.4629-16.2226 12.2562-15.9847 12.8909-15.826 12.9702-15.707 12.9702-15.1517L12.9702-13.4858 13.8428-13.4858C13.8428-14.993 14.0015-16.2226 14.2791-17.3332L11.106-17.4126C9.12275-17.3332 7.09989-17.3332 5.11669-17.3332 3.60945-17.3332 2.06254-17.3332 0.555298-17.4126Z" fill="#000000" fill-rule="nonzero" fill-opacity="1" transform="matrix(1 0 0 1.00162 544.438 417.478)"/><path d="M0.158657-10.8283 1.03127-10.7886C1.50724-10.749 1.5469-10.5507 1.82455-9.95571L6.22728 0.158657 7.53619 0.158657C7.65519-0.634626 8.05183-1.42791 8.56745-2.57818L11.5819-9.12275C12.1769-10.392 12.5339-10.749 13.0495-10.7886L13.8428-10.8283 13.8428-11.5423C13.0495-11.5026 12.2166-11.4629 11.4233-11.4629 10.63-11.4629 9.79706-11.5026 9.00377-11.5423L9.00377-10.8283 10.0747-10.7886C10.868-10.749 10.868-9.99536 10.1937-8.28982L9.12275-5.63231 7.53619-2.1022 4.48206-9.36074C4.16475-10.0747 4.04574-10.749 4.8787-10.7886L6.14795-10.8283 6.14795-11.5423C5.11669-11.5026 4.12507-11.4629 3.13348-11.4629 2.14186-11.4629 1.15026-11.5026 0.158657-11.5423Z" fill="#000000" fill-rule="nonzero" fill-opacity="1" transform="matrix(1 0 0 1.00162 560.116 417.478)"/><path d="M0.832947-2.77649C0.832947-0.832947 2.02287 0.317313 4.04574 0.317313 4.52171 0.317313 4.95803 0.237985 5.11669 0.118992L8.32947-2.06254 8.17081 0.0793283C8.84512 0.0396641 9.51939 0 10.1937 0 10.8283 0 11.4629 0.0396641 12.0976 0.0793283L12.0976-0.67429 11.106-0.713955C10.4713-0.753619 10.3524-0.951939 10.3524-2.18153L10.3524-6.78258C10.3524-10.4713 9.28141-11.7803 6.30661-11.7803 5.19602-11.7803 4.16475-11.5026 3.21281-10.9473L1.86421-10.154 1.86421-8.48813 2.49884-8.32947 2.85582-9.12275C3.37146-10.273 3.6491-10.4713 4.83903-10.4713 7.21887-10.4713 8.25014-9.51939 8.32947-7.25855L5.79096-6.78258C2.30052-6.14795 0.832947-4.99768 0.832947-2.77649ZM3.01447-3.13348C3.01447-4.08542 3.53012-4.95803 4.3234-5.434 4.95803-5.79096 6.34626-6.14795 8.32947-6.42559L8.32947-3.13348C7.57586-2.1022 5.94962-1.15026 4.95803-1.15026 3.92676-1.15026 3.01447-2.06254 3.01447-3.13348Z" fill="#000000" fill-rule="nonzero" fill-opacity="1" transform="matrix(1 0 0 1.00162 573.841 417.478)"/><path d="M0.555298 0.0793283C1.62623 0.0396641 2.65751 0 3.72843 0 4.83903 0 5.87029 0.0396641 6.94124 0.0793283L6.94124-0.67429 5.79096-0.753619C4.91835-0.793283 4.83903-0.991604 4.83903-2.57818L4.83903-18.0472 4.60104-18.2455C3.45079-17.8489 2.61783-17.6109 0.594962-17.3332L0.594962-16.6193 2.02287-16.6193C2.49884-16.6193 2.65751-16.3416 2.65751-15.588L2.65751-2.57818C2.65751-0.991604 2.57818-0.793283 1.70556-0.753619L0.555298-0.67429Z" fill="#000000" fill-rule="nonzero" fill-opacity="1" transform="matrix(1 0 0 1.00162 586.671 417.478)"/><path d="M0.47597-10.0747 1.42791-10.0747C2.41951-10.0747 2.53851-9.87638 2.53851-8.21049L2.53851-4.00609C2.53851-2.22119 2.69716-1.46757 3.17313-0.832947 3.72843-0.0793283 4.68037 0.317313 6.14795 0.317313 7.2982 0.317313 8.32947-0.0396641 9.04342-0.67429L10.749-2.22119C10.749-1.50724 10.7093-1.1106 10.6697 0.0793283 11.3836 0.0396641 12.0579 0 12.7719 0 13.4858 0 14.1998 0.0396641 14.9137 0.0793283L14.9137-0.67429 13.8428-0.753619C12.9702-0.793283 12.8909-0.951939 12.8909-2.57818L12.8909-11.7009 12.6925-11.7803C11.3836-11.2646 10.035-10.9077 8.68646-10.749L8.68646-10.0747 9.6384-10.0747C10.6697-10.0747 10.749-9.87638 10.749-8.21049L10.749-4.12507C10.749-3.56977 10.392-2.85582 9.79706-2.30052 9.0831-1.58657 8.25014-1.22959 7.25855-1.22959 6.34626-1.22959 5.63231-1.50724 5.23567-1.98321 4.8787-2.37985 4.68037-3.17313 4.68037-4.28373L4.68037-11.7009 4.48206-11.7803C3.17313-11.2646 1.82455-10.9077 0.47597-10.749Z" fill="#000000" fill-rule="nonzero" fill-opacity="1" transform="matrix(1 0 0 1.00162 594.139 417.478)"/><path d="M0.832947-2.77649C0.832947-0.832947 2.02287 0.317313 4.04574 0.317313 4.52171 0.317313 4.95803 0.237985 5.11669 0.118992L8.32947-2.06254 8.17081 0.0793283C8.84512 0.0396641 9.51939 0 10.1937 0 10.8283 0 11.4629 0.0396641 12.0976 0.0793283L12.0976-0.67429 11.106-0.713955C10.4713-0.753619 10.3524-0.951939 10.3524-2.18153L10.3524-6.78258C10.3524-10.4713 9.28141-11.7803 6.30661-11.7803 5.19602-11.7803 4.16475-11.5026 3.21281-10.9473L1.86421-10.154 1.86421-8.48813 2.49884-8.32947 2.85582-9.12275C3.37146-10.273 3.6491-10.4713 4.83903-10.4713 7.21887-10.4713 8.25014-9.51939 8.32947-7.25855L5.79096-6.78258C2.30052-6.14795 0.832947-4.99768 0.832947-2.77649ZM3.01447-3.13348C3.01447-4.08542 3.53012-4.95803 4.3234-5.434 4.95803-5.79096 6.34626-6.14795 8.32947-6.42559L8.32947-3.13348C7.57586-2.1022 5.94962-1.15026 4.95803-1.15026 3.92676-1.15026 3.01447-2.06254 3.01447-3.13348Z" fill="#000000" fill-rule="nonzero" fill-opacity="1" transform="matrix(1 0 0 1.00162 609.609 417.478)"/><path d="M0.555298-9.51939 2.49884-9.59872 2.49884-2.37985C2.49884-0.515634 3.37146 0.317313 5.35467 0.317313 5.90997 0.317313 6.5446 0.158657 6.70325 0L7.93283-1.34858 7.61552-1.74522C6.94124-1.42791 6.58425-1.26925 6.06863-1.26925 5.07701-1.26925 4.68037-1.78489 4.68037-3.01447L4.68037-9.59872 7.97251-9.59872 8.17081-10.9473 4.68037-10.8283 4.68037-11.7803C4.68037-12.8115 4.7597-13.7238 4.95803-15.35L4.64072-15.6277C4.04574-15.231 3.25246-14.9137 2.45918-14.6757 2.53851-13.9221 2.57818-13.4462 2.57818-12.6925L2.57818-10.9077 0.555298-10.035Z" fill="#000000" fill-rule="nonzero" fill-opacity="1" transform="matrix(1 0 0 1.00162 622.439 417.478)"/><path d="M0.67429-5.51333C0.67429-3.92676 1.03127-2.57818 1.74522-1.62623 2.73684-0.277649 4.48206 0.515634 6.42559 0.515634 7.37753 0.515634 8.32947 0.317313 9.36074-0.158657 10.0747-0.436306 10.5903-0.753619 10.7093-0.912275L11.225-1.74522 10.868-2.02287C9.24176-1.07093 8.64678-0.832947 7.53619-0.832947 5.87029-0.832947 4.48206-1.5469 3.76811-2.77649 3.29214-3.60945 3.0938-4.3234 3.05415-5.79096L6.78258-5.79096C8.56745-5.79096 9.67805-5.87029 11.4629-6.14795 11.4629-6.50492 11.5026-6.70325 11.5026-7.02057 11.5026-9.91604 9.59872-11.7803 6.7429-11.7803 5.79096-11.7803 4.68037-11.4629 3.60945-10.868 1.50724-9.67805 0.67429-8.13116 0.67429-5.51333ZM3.0938-6.78258C3.0938-7.97251 3.21281-8.5278 3.53012-9.16243 4.08542-10.273 5.19602-10.9473 6.42559-10.9473 7.25855-10.9473 7.93283-10.63 8.4088-9.95571 8.9641-9.12275 9.20208-8.4088 9.20208-6.70325L6.34626-6.62392C5.15634-6.62392 4.48206-6.66358 3.0938-6.78258Z" fill="#000000" fill-rule="nonzero" fill-opacity="1" transform="matrix(1 0 0 1.00162 630.803 417.478)"/><path d="M0.555298 0.0793283C1.82455 0.0396641 3.05415 0 4.3234 0 5.55298 0 6.82223 0.0396641 8.09149 0.0793283L8.09149-0.67429 6.86191-0.753619C5.67199-0.832947 5.55298-1.03127 5.55298-3.01447L5.55298-16.1433C6.42559-16.3416 7.17922-16.4606 8.05183-16.4606 10.8283-16.4606 12.3356-15.1914 12.3356-12.8115 12.3356-10.5507 10.749-8.9641 8.5278-8.9641 7.97251-8.9641 7.61552-9.00377 6.94124-9.20208L7.17922-8.28982C7.81385-8.17081 8.17081-8.13116 8.68646-8.13116 12.1769-8.13116 14.8741-10.4713 14.8741-13.4858 14.8741-15.9053 12.8909-17.4126 9.6384-17.4126 8.17081-17.4126 6.7429-17.3332 5.27534-17.3332 3.68878-17.3332 2.14186-17.3332 0.594962-17.4126L0.594962-16.6589 1.74522-16.5796C2.8955-16.5003 3.0938-16.183 3.0938-14.3188L3.0938-3.01447C3.0938-1.03127 2.97482-0.832947 1.78489-0.753619L0.555298-0.67429Z" fill="#000000" fill-rule="nonzero" fill-opacity="1" transform="matrix(1 0 0 1.00162 522.117 452.75)"/><path d="M0.67429-5.51333C0.67429-3.92676 1.03127-2.57818 1.74522-1.62623 2.73684-0.277649 4.48206 0.515634 6.42559 0.515634 7.37753 0.515634 8.32947 0.317313 9.36074-0.158657 10.0747-0.436306 10.5903-0.753619 10.7093-0.912275L11.225-1.74522 10.868-2.02287C9.24176-1.07093 8.64678-0.832947 7.53619-0.832947 5.87029-0.832947 4.48206-1.5469 3.76811-2.77649 3.29214-3.60945 3.0938-4.3234 3.05415-5.79096L6.78258-5.79096C8.56745-5.79096 9.67805-5.87029 11.4629-6.14795 11.4629-6.50492 11.5026-6.70325 11.5026-7.02057 11.5026-9.91604 9.59872-11.7803 6.7429-11.7803 5.79096-11.7803 4.68037-11.4629 3.60945-10.868 1.50724-9.67805 0.67429-8.13116 0.67429-5.51333ZM3.0938-6.78258C3.0938-7.97251 3.21281-8.5278 3.53012-9.16243 4.08542-10.273 5.19602-10.9473 6.42559-10.9473 7.25855-10.9473 7.93283-10.63 8.4088-9.95571 8.9641-9.12275 9.20208-8.4088 9.20208-6.70325L6.34626-6.62392C5.15634-6.62392 4.48206-6.66358 3.0938-6.78258Z" fill="#000000" fill-rule="nonzero" fill-opacity="1" transform="matrix(1 0 0 1.00162 536.333 452.75)"/><path d="M0.555298 0.0793283C1.58657 0.0396641 2.65751 0 3.68878 0 4.91835 0 6.14795 0.0396641 7.37753 0.0793283L7.37753-0.67429 6.02895-0.753619C4.8787-0.832947 4.83903-0.912275 4.83903-2.57818L4.83903-6.90156C4.83903-8.4088 5.87029-9.6384 7.09989-9.6384 7.89318-9.6384 8.4088-9.32109 8.84512-8.48813L9.36074-8.48813 9.59872-11.5026C9.32109-11.7009 8.84512-11.7803 8.4088-11.7803 7.61552-11.7803 6.78258-11.3836 6.26693-10.749L4.83903-9.12275 4.83903-11.7009 4.60104-11.7803C3.29214-11.2646 1.94354-10.9077 0.594962-10.749L0.594962-10.0747 1.5469-10.0747C2.57818-10.0747 2.65751-9.87638 2.65751-8.21049L2.65751-2.57818C2.65751-0.991604 2.57818-0.793283 1.70556-0.753619L0.555298-0.67429Z" fill="#000000" fill-rule="nonzero" fill-opacity="1" transform="matrix(1 0 0 1.00162 548.621 452.75)"/><path d="M0.594962 0.0793283C1.66589 0.0396641 2.73684 0 3.80776 0 4.8787 0 5.90997 0.0396641 7.02057 0.0793283L7.02057-0.67429 5.83064-0.753619C4.95803-0.793283 4.8787-0.991604 4.8787-2.57818L4.8787-9.67805 8.05183-9.67805 8.25014-11.0266C7.09989-10.9473 5.9893-10.9077 4.8787-10.9077L4.8787-13.0495C4.8787-15.945 5.19602-16.6589 6.66358-16.6589 7.37753-16.6589 7.81385-16.4606 8.44847-15.945L8.76579-16.1036 8.76579-18.0472C8.21049-18.2455 7.89318-18.3248 7.57586-18.3248 6.7429-18.3248 5.87029-17.8885 5.27534-17.2539L3.80776-15.588C3.05415-14.7551 2.73684-13.6445 2.73684-11.9786L2.73684-10.9077 0.951939-10.154 0.951939-9.59872 2.73684-9.67805 2.73684-2.57818C2.73684-0.991604 2.65751-0.793283 1.78489-0.753619L0.594962-0.67429Z" fill="#000000" fill-rule="nonzero" fill-opacity="1" transform="matrix(1 0 0 1.00162 558.758 452.75)"/><path d="M0.832947-5.47365C0.832947-1.90388 3.0938 0.515634 6.42559 0.515634 10.3524 0.515634 13.2082-2.18153 13.2082-5.94962 13.2082-9.36074 10.6697-11.7803 7.17922-11.7803 3.41112-11.7803 0.832947-9.20208 0.832947-5.47365ZM3.21281-6.30661C3.21281-9.32109 4.44238-10.9473 6.70325-10.9473 9.04342-10.9473 10.7886-8.44847 10.7886-5.03736 10.7886-2.14186 9.47974-0.317313 7.41721-0.317313 4.91835-0.317313 3.21281-2.73684 3.21281-6.30661Z" fill="#000000" fill-rule="nonzero" fill-opacity="1" transform="matrix(1 0 0 1.00162 566.916 452.75)"/><path d="M0.555298 0.0793283C1.58657 0.0396641 2.65751 0 3.68878 0 4.91835 0 6.14795 0.0396641 7.37753 0.0793283L7.37753-0.67429 6.02895-0.753619C4.8787-0.832947 4.83903-0.912275 4.83903-2.57818L4.83903-6.90156C4.83903-8.4088 5.87029-9.6384 7.09989-9.6384 7.89318-9.6384 8.4088-9.32109 8.84512-8.48813L9.36074-8.48813 9.59872-11.5026C9.32109-11.7009 8.84512-11.7803 8.4088-11.7803 7.61552-11.7803 6.78258-11.3836 6.26693-10.749L4.83903-9.12275 4.83903-11.7009 4.60104-11.7803C3.29214-11.2646 1.94354-10.9077 0.594962-10.749L0.594962-10.0747 1.5469-10.0747C2.57818-10.0747 2.65751-9.87638 2.65751-8.21049L2.65751-2.57818C2.65751-0.991604 2.57818-0.793283 1.70556-0.753619L0.555298-0.67429Z" fill="#000000" fill-rule="nonzero" fill-opacity="1" transform="matrix(1 0 0 1.00162 580.926 452.75)"/><path d="M0.396641 0.0793283C1.50724 0.0396641 2.57818 0 3.68878 0 4.68037 0 5.71164 0.0396641 6.7429 0.0793283L6.7429-0.67429 5.63231-0.753619C4.7597-0.793283 4.68037-0.991604 4.68037-2.57818L4.68037-7.89318C4.68037-9.04342 6.38594-10.273 7.93283-10.273 9.32109-10.273 10.273-8.9641 10.273-7.06022L10.273-2.57818C10.273-0.991604 10.1937-0.793283 9.32109-0.753619L8.13116-0.67429 8.13116 0.0793283C9.20208 0.0396641 10.273 0 11.3439 0 12.4149 0 13.4858 0.0396641 14.5568 0.0793283L14.5568-0.67429 13.3668-0.753619C12.4942-0.793283 12.4149-0.991604 12.4149-2.57818L12.4149-7.89318C12.4149-9.04342 14.1204-10.273 15.6673-10.273 17.0556-10.273 18.0075-8.9641 18.0075-7.06022L18.0075 0.0793283C18.6421 0.0396641 19.3561 0 20.0304 0 20.784 0 21.5376 0.0396641 22.2912 0.0793283L22.2912-0.67429 21.1013-0.753619C20.2287-0.793283 20.1494-0.991604 20.1494-2.57818L20.1494-7.73452C20.1494-10.2333 18.6421-11.7803 16.302-11.7803 15.3897-11.7803 14.6361-11.5819 14.1998-11.1456L12.2562-9.44007C11.4233-11.106 10.3524-11.7803 8.60713-11.7803 7.65519-11.7803 6.94124-11.5819 6.46527-11.1456L4.68037-9.55907 4.68037-11.7009 4.48206-11.7803C3.17313-11.2646 1.82455-10.9077 0.47597-10.749L0.47597-10.0747 1.42791-10.0747C2.41951-10.0747 2.53851-9.87638 2.53851-8.21049L2.53851-2.57818C2.53851-0.991604 2.45918-0.793283 1.58657-0.753619L0.396641-0.67429Z" fill="#000000" fill-rule="nonzero" fill-opacity="1" transform="matrix(1 0 0 1.00162 591.291 452.75)"/><path d="M0.832947-2.77649C0.832947-0.832947 2.02287 0.317313 4.04574 0.317313 4.52171 0.317313 4.95803 0.237985 5.11669 0.118992L8.32947-2.06254 8.17081 0.0793283C8.84512 0.0396641 9.51939 0 10.1937 0 10.8283 0 11.4629 0.0396641 12.0976 0.0793283L12.0976-0.67429 11.106-0.713955C10.4713-0.753619 10.3524-0.951939 10.3524-2.18153L10.3524-6.78258C10.3524-10.4713 9.28141-11.7803 6.30661-11.7803 5.19602-11.7803 4.16475-11.5026 3.21281-10.9473L1.86421-10.154 1.86421-8.48813 2.49884-8.32947 2.85582-9.12275C3.37146-10.273 3.6491-10.4713 4.83903-10.4713 7.21887-10.4713 8.25014-9.51939 8.32947-7.25855L5.79096-6.78258C2.30052-6.14795 0.832947-4.99768 0.832947-2.77649ZM3.01447-3.13348C3.01447-4.08542 3.53012-4.95803 4.3234-5.434 4.95803-5.79096 6.34626-6.14795 8.32947-6.42559L8.32947-3.13348C7.57586-2.1022 5.94962-1.15026 4.95803-1.15026 3.92676-1.15026 3.01447-2.06254 3.01447-3.13348Z" fill="#000000" fill-rule="nonzero" fill-opacity="1" transform="matrix(1 0 0 1.00162 613.95 452.75)"/><path d="M0.158657 0.0793283C1.18992 0.0396641 2.30052 0 3.33179 0 4.40273 0 5.47365 0.0396641 6.50492 0.0793283L6.50492-0.67429 5.35467-0.753619C4.48206-0.793283 4.40273-0.991604 4.40273-2.57818L4.40273-7.89318C4.40273-9.04342 6.10828-10.273 7.65519-10.273 9.40041-10.273 10.511-9.00377 10.511-7.06022L10.511 0.0793283C11.1853 0.0396641 11.8992 0 12.5339 0 13.2875 0 13.9618 0.0396641 14.6757 0.0793283L14.6757-0.67429 13.6445-0.753619C12.7719-0.793283 12.6925-0.951939 12.6925-2.57818L12.6925-7.41721C12.6925-10.3524 11.2646-11.7803 8.4088-11.7803 7.45686-11.7803 6.90156-11.6216 6.34626-11.1456L4.40273-9.51939 4.40273-11.7009 4.16475-11.7803C2.85582-11.2646 1.5469-10.9077 0.198321-10.749L0.198321-10.0747 1.1106-10.0747C2.14186-10.0747 2.26086-9.87638 2.26086-8.21049L2.26086-2.57818C2.26086-0.991604 2.18153-0.793283 1.30892-0.753619L0.158657-0.67429Z" fill="#000000" fill-rule="nonzero" fill-opacity="1" transform="matrix(1 0 0 1.00162 626.777 452.75)"/><path d="M0.67429-5.27534C0.67429-1.90388 3.0938 0.515634 6.5446 0.515634 7.89318 0.515634 9.79706 0.0396641 10.0747-0.356977L10.5903-1.15026 10.3524-1.5469C9.40041-1.03127 8.56745-0.793283 7.65519-0.793283 4.79937-0.793283 2.93515-2.97482 2.93515-6.30661 2.93515-8.9641 4.2044-10.4713 6.50492-10.4713 7.65519-10.4713 8.88477-9.99536 9.36074-9.36074L9.51939-7.81385 10.2333-7.81385C10.2333-8.9641 10.3524-9.99536 10.5903-10.9077 9.55907-11.5026 8.68646-11.7803 7.61552-11.7803 6.38594-11.7803 4.95803-11.3043 3.41112-10.3524 1.62623-9.24176 0.67429-7.49654 0.67429-5.27534Z" fill="#000000" fill-rule="nonzero" fill-opacity="1" transform="matrix(1 0 0 1.00162 641.711 452.75)"/><path d="M0.67429-5.51333C0.67429-3.92676 1.03127-2.57818 1.74522-1.62623 2.73684-0.277649 4.48206 0.515634 6.42559 0.515634 7.37753 0.515634 8.32947 0.317313 9.36074-0.158657 10.0747-0.436306 10.5903-0.753619 10.7093-0.912275L11.225-1.74522 10.868-2.02287C9.24176-1.07093 8.64678-0.832947 7.53619-0.832947 5.87029-0.832947 4.48206-1.5469 3.76811-2.77649 3.29214-3.60945 3.0938-4.3234 3.05415-5.79096L6.78258-5.79096C8.56745-5.79096 9.67805-5.87029 11.4629-6.14795 11.4629-6.50492 11.5026-6.70325 11.5026-7.02057 11.5026-9.91604 9.59872-11.7803 6.7429-11.7803 5.79096-11.7803 4.68037-11.4629 3.60945-10.868 1.50724-9.67805 0.67429-8.13116 0.67429-5.51333ZM3.0938-6.78258C3.0938-7.97251 3.21281-8.5278 3.53012-9.16243 4.08542-10.273 5.19602-10.9473 6.42559-10.9473 7.25855-10.9473 7.93283-10.63 8.4088-9.95571 8.9641-9.12275 9.20208-8.4088 9.20208-6.70325L6.34626-6.62392C5.15634-6.62392 4.48206-6.66358 3.0938-6.78258Z" fill="#000000" fill-rule="nonzero" fill-opacity="1" transform="matrix(1 0 0 1.00162 653.104 452.75)"/><path d="M668.86 187.896 580.519 187.896C560.757 187.896 544.731 171.872 544.731 152.109L544.731 146.318C544.731 126.556 560.757 110.531 580.519 110.531L668.86 110.531C688.623 110.531 704.646 126.556 704.646 146.318L704.646 152.109C704.646 171.872 688.623 187.896 668.86 187.896Z" stroke="#000000" stroke-width="3.57887" stroke-linecap="butt" stroke-linejoin="miter" stroke-miterlimit="10" stroke-opacity="1" fill="#FFFFFF" fill-rule="nonzero" fill-opacity="1" transform="matrix(1 0 0 -1.00162 168.364 426.221)"/><path d="M0.555298-8.60713C0.555298-3.17313 4.60104 0.515634 10.6697 0.515634 12.7719 0.515634 14.7154 0.0396641 16.4606-0.872611L17.1746-2.1022 16.9763-2.37985C15.3897-1.34858 13.6048-0.872611 11.6613-0.872611 6.66358-0.872611 3.29214-4.12507 3.29214-9.0831 3.29214-13.7238 6.22728-16.7779 10.6697-16.7779 13.1685-16.7779 15.7467-15.7863 15.7467-14.7947L15.7467-12.9702 16.54-12.9702C16.5796-14.2394 16.6986-15.1517 17.0556-16.8176 14.8741-17.4919 12.9702-17.8489 11.106-17.8489 8.88477-17.8489 6.7429-17.2936 5.03736-16.302 2.1022-14.6361 0.555298-11.9786 0.555298-8.60713Z" fill="#000000" fill-rule="nonzero" fill-opacity="1" transform="matrix(1 0 0 1.00162 749.582 264.711)"/><path d="M0.158657 0.0793283C1.18992 0.0396641 2.30052 0 3.33179 0 4.40273 0 5.47365 0.0396641 6.50492 0.0793283L6.50492-0.67429 5.35467-0.753619C4.48206-0.793283 4.40273-0.991604 4.40273-2.57818L4.40273-7.89318C4.40273-9.04342 6.10828-10.273 7.65519-10.273 9.40041-10.273 10.511-9.00377 10.511-7.06022L10.511 0.0793283C11.1853 0.0396641 11.8992 0 12.5339 0 13.2875 0 13.9618 0.0396641 14.6757 0.0793283L14.6757-0.67429 13.6445-0.753619C12.7719-0.793283 12.6925-0.951939 12.6925-2.57818L12.6925-7.41721C12.6925-10.3524 11.2646-11.7803 8.4088-11.7803 7.45686-11.7803 6.90156-11.6216 6.34626-11.1456L4.40273-9.51939 4.40273-18.0472 4.16475-18.2455C3.05415-17.8489 2.22119-17.6109 0.198321-17.3332L0.198321-16.6193 1.62623-16.6193C2.06254-16.6193 2.26086-16.3416 2.26086-15.588L2.26086-2.57818C2.26086-0.991604 2.18153-0.793283 1.30892-0.753619L0.158657-0.67429Z" fill="#000000" fill-rule="nonzero" fill-opacity="1" transform="matrix(1 0 0 1.00162 767.776 264.711)"/><path d="M0.832947-2.77649C0.832947-0.832947 2.02287 0.317313 4.04574 0.317313 4.52171 0.317313 4.95803 0.237985 5.11669 0.118992L8.32947-2.06254 8.17081 0.0793283C8.84512 0.0396641 9.51939 0 10.1937 0 10.8283 0 11.4629 0.0396641 12.0976 0.0793283L12.0976-0.67429 11.106-0.713955C10.4713-0.753619 10.3524-0.951939 10.3524-2.18153L10.3524-6.78258C10.3524-10.4713 9.28141-11.7803 6.30661-11.7803 5.19602-11.7803 4.16475-11.5026 3.21281-10.9473L1.86421-10.154 1.86421-8.48813 2.49884-8.32947 2.85582-9.12275C3.37146-10.273 3.6491-10.4713 4.83903-10.4713 7.21887-10.4713 8.25014-9.51939 8.32947-7.25855L5.79096-6.78258C2.30052-6.14795 0.832947-4.99768 0.832947-2.77649ZM3.01447-3.13348C3.01447-4.08542 3.53012-4.95803 4.3234-5.434 4.95803-5.79096 6.34626-6.14795 8.32947-6.42559L8.32947-3.13348C7.57586-2.1022 5.94962-1.15026 4.95803-1.15026 3.92676-1.15026 3.01447-2.06254 3.01447-3.13348Z" fill="#000000" fill-rule="nonzero" fill-opacity="1" transform="matrix(1 0 0 1.00162 782.707 264.711)"/><path d="M0.158657 0.0793283C1.18992 0.0396641 2.30052 0 3.33179 0 4.40273 0 5.47365 0.0396641 6.50492 0.0793283L6.50492-0.67429 5.35467-0.753619C4.48206-0.793283 4.40273-0.991604 4.40273-2.57818L4.40273-7.89318C4.40273-9.04342 6.10828-10.273 7.65519-10.273 9.40041-10.273 10.511-9.00377 10.511-7.06022L10.511 0.0793283C11.1853 0.0396641 11.8992 0 12.5339 0 13.2875 0 13.9618 0.0396641 14.6757 0.0793283L14.6757-0.67429 13.6445-0.753619C12.7719-0.793283 12.6925-0.951939 12.6925-2.57818L12.6925-7.41721C12.6925-10.3524 11.2646-11.7803 8.4088-11.7803 7.45686-11.7803 6.90156-11.6216 6.34626-11.1456L4.40273-9.51939 4.40273-11.7009 4.16475-11.7803C2.85582-11.2646 1.5469-10.9077 0.198321-10.749L0.198321-10.0747 1.1106-10.0747C2.14186-10.0747 2.26086-9.87638 2.26086-8.21049L2.26086-2.57818C2.26086-0.991604 2.18153-0.793283 1.30892-0.753619L0.158657-0.67429Z" fill="#000000" fill-rule="nonzero" fill-opacity="1" transform="matrix(1 0 0 1.00162 795.537 264.711)"/><path d="M0.832947 3.25246C0.832947 5.51333 3.0938 7.09989 6.34626 7.09989 10.2333 7.09989 13.2875 4.72005 13.2875 1.66589 13.2875-0.158657 12.0579-1.42791 10.273-1.42791L6.14795-1.42791C4.83903-1.42791 4.2044-1.70556 4.2044-2.37985 4.2044-2.69716 4.40273-2.97482 5.07701-3.53012 5.23567-3.68878 5.27534-3.72843 5.39432-3.80776 5.63231-3.80776 5.79096-3.76811 5.9893-3.76811 7.09989-3.76811 8.48813-4.24408 9.51939-4.99768 10.6697-5.79096 11.225-6.82223 11.225-8.13116 11.225-8.64678 11.1456-8.9641 10.9473-9.51939L13.3272-9.51939 13.9618-10.5507 13.8428-10.8283 10.2333-10.749C9.28141-11.5026 8.32947-11.7803 7.09989-11.7803 5.94962-11.7803 4.64072-11.4233 3.60945-10.8283 2.14186-10.035 1.42791-8.80544 1.42791-7.25855 1.42791-5.39432 2.57818-4.12507 4.48206-3.92676L2.45918-2.37985C2.22119-2.02287 2.06254-1.66589 2.06254-1.30892 2.06254-0.594962 2.53851-0.198321 3.76811 0.158657L1.5469 1.34858C1.18992 1.5469 0.832947 2.45918 0.832947 3.25246ZM2.77649 3.21281C2.77649 2.06254 3.45079 1.07093 4.48206 0.594962 4.8787 0.436306 5.59266 0.356977 7.37753 0.356977 10.273 0.356977 11.2646 0.912275 11.2646 2.57818 11.2646 4.72005 9.24176 6.34626 6.5446 6.34626 4.3234 6.34626 2.77649 5.03736 2.77649 3.21281ZM3.56977-7.8535C3.56977-9.79706 4.52171-10.9473 6.14795-10.9473 7.89318-10.9473 9.0831-9.51939 9.0831-7.37753 9.0831-5.75131 8.01216-4.64072 6.42559-4.64072 4.72005-4.64072 3.56977-5.94962 3.56977-7.8535Z" fill="#000000" fill-rule="nonzero" fill-opacity="1" transform="matrix(1 0 0 1.00162 810.471 264.711)"/><path d="M0.67429-5.51333C0.67429-3.92676 1.03127-2.57818 1.74522-1.62623 2.73684-0.277649 4.48206 0.515634 6.42559 0.515634 7.37753 0.515634 8.32947 0.317313 9.36074-0.158657 10.0747-0.436306 10.5903-0.753619 10.7093-0.912275L11.225-1.74522 10.868-2.02287C9.24176-1.07093 8.64678-0.832947 7.53619-0.832947 5.87029-0.832947 4.48206-1.5469 3.76811-2.77649 3.29214-3.60945 3.0938-4.3234 3.05415-5.79096L6.78258-5.79096C8.56745-5.79096 9.67805-5.87029 11.4629-6.14795 11.4629-6.50492 11.5026-6.70325 11.5026-7.02057 11.5026-9.91604 9.59872-11.7803 6.7429-11.7803 5.79096-11.7803 4.68037-11.4629 3.60945-10.868 1.50724-9.67805 0.67429-8.13116 0.67429-5.51333ZM3.0938-6.78258C3.0938-7.97251 3.21281-8.5278 3.53012-9.16243 4.08542-10.273 5.19602-10.9473 6.42559-10.9473 7.25855-10.9473 7.93283-10.63 8.4088-9.95571 8.9641-9.12275 9.20208-8.4088 9.20208-6.70325L6.34626-6.62392C5.15634-6.62392 4.48206-6.66358 3.0938-6.78258Z" fill="#000000" fill-rule="nonzero" fill-opacity="1" transform="matrix(1 0 0 1.00162 824.222 264.711)"/><path d="M0.555298-16.6589 1.58657-16.5796C2.77649-16.5003 2.8955-16.2623 2.8955-14.3188L2.8955-2.37985C2.8955-1.66589 2.65751-1.1106 2.26086-0.912275L1.46757-0.515634 1.46757 0.0793283C2.65751 0.0396641 3.84743 0 5.03736 0 6.26693 0 7.53619 0.0793283 8.76579 0.0793283 12.0182 0.0793283 14.5171-0.753619 16.302-2.49884 18.1265-4.28373 19.2768-6.98089 19.2768-9.67805 19.2768-14.3584 15.7467-17.4126 10.3127-17.4126 8.84512-17.4126 7.33788-17.3332 5.87029-17.3332 4.08542-17.3332 2.34018-17.3332 0.555298-17.4126ZM5.35467-1.22959 5.35467-16.183C5.9893-16.302 6.90156-16.3813 8.17081-16.3813 11.0266-16.3813 13.3272-15.9053 14.7154-14.5568 15.945-13.3668 16.54-11.5423 16.54-9.04342 16.54-6.22728 15.6673-4.04574 13.9618-2.69716 12.4149-1.46757 10.868-1.03127 7.97251-1.03127 6.78258-1.03127 5.9893-1.07093 5.35467-1.22959Z" fill="#000000" fill-rule="nonzero" fill-opacity="1" transform="matrix(1 0 0 1.00162 753.253 299.983)"/><path d="M0.67429-5.51333C0.67429-3.92676 1.03127-2.57818 1.74522-1.62623 2.73684-0.277649 4.48206 0.515634 6.42559 0.515634 7.37753 0.515634 8.32947 0.317313 9.36074-0.158657 10.0747-0.436306 10.5903-0.753619 10.7093-0.912275L11.225-1.74522 10.868-2.02287C9.24176-1.07093 8.64678-0.832947 7.53619-0.832947 5.87029-0.832947 4.48206-1.5469 3.76811-2.77649 3.29214-3.60945 3.0938-4.3234 3.05415-5.79096L6.78258-5.79096C8.56745-5.79096 9.67805-5.87029 11.4629-6.14795 11.4629-6.50492 11.5026-6.70325 11.5026-7.02057 11.5026-9.91604 9.59872-11.7803 6.7429-11.7803 5.79096-11.7803 4.68037-11.4629 3.60945-10.868 1.50724-9.67805 0.67429-8.13116 0.67429-5.51333ZM3.0938-6.78258C3.0938-7.97251 3.21281-8.5278 3.53012-9.16243 4.08542-10.273 5.19602-10.9473 6.42559-10.9473 7.25855-10.9473 7.93283-10.63 8.4088-9.95571 8.9641-9.12275 9.20208-8.4088 9.20208-6.70325L6.34626-6.62392C5.15634-6.62392 4.48206-6.66358 3.0938-6.78258Z" fill="#000000" fill-rule="nonzero" fill-opacity="1" transform="matrix(1 0 0 1.00162 773.112 299.983)"/><path d="M0.753619-0.118992C2.1022 0.317313 3.0938 0.515634 4.28373 0.515634 7.65519 0.515634 10.035-1.26925 10.035-3.72843 10.035-4.48206 9.83671-5.07701 9.32109-5.59266 8.64678-6.22728 7.81385-6.50492 5.55298-6.94124 3.45079-7.33788 2.73684-7.8535 2.73684-9.00377 2.73684-10.273 3.6491-10.9473 5.19602-10.9473 6.94124-10.9473 8.25014-10.0747 8.25014-8.88477L8.25014-8.32947 8.9641-8.32947C8.9641-9.79706 9.00377-10.392 9.0831-11.1456 7.73452-11.6216 6.78258-11.7803 5.75131-11.7803 2.77649-11.7803 0.951939-10.392 0.951939-8.13116 0.951939-6.94124 1.50724-6.06863 2.69716-5.55298 3.37146-5.27534 4.7597-4.83903 6.50492-4.48206 7.65519-4.24408 8.13116-3.68878 8.13116-2.73684 8.13116-1.38824 6.86191-0.436306 5.03736-0.436306 3.17313-0.436306 1.82455-1.30892 1.82455-2.57818L1.82455-3.60945 1.07093-3.60945C1.07093-1.86421 0.991604-1.1106 0.753619-0.118992Z" fill="#000000" fill-rule="nonzero" fill-opacity="1" transform="matrix(1 0 0 1.00162 785.401 299.983)"/><path d="M0.555298 0.0793283C1.62623 0.0396641 2.65751 0 3.72843 0 4.83903 0 5.87029 0.0396641 6.94124 0.0793283L6.94124-0.67429 5.79096-0.753619C4.91835-0.793283 4.83903-0.991604 4.83903-2.57818L4.83903-11.7009 4.60104-11.7803C3.29214-11.2646 1.94354-10.9077 0.594962-10.749L0.594962-10.0747 1.5469-10.0747C2.57818-10.0747 2.65751-9.87638 2.65751-8.21049L2.65751-2.57818C2.65751-0.991604 2.57818-0.793283 1.70556-0.753619L0.555298-0.67429ZM2.45918-14.8741C2.45918-14.1204 2.97482-13.6445 3.72843-13.6445 4.52171-13.6445 5.03736-14.1204 5.03736-14.8741 5.03736-15.6277 4.52171-16.1433 3.76811-16.1433 2.97482-16.1433 2.45918-15.6277 2.45918-14.8741Z" fill="#000000" fill-rule="nonzero" fill-opacity="1" transform="matrix(1 0 0 1.00162 796.281 299.983)"/><path d="M0.832947 3.25246C0.832947 5.51333 3.0938 7.09989 6.34626 7.09989 10.2333 7.09989 13.2875 4.72005 13.2875 1.66589 13.2875-0.158657 12.0579-1.42791 10.273-1.42791L6.14795-1.42791C4.83903-1.42791 4.2044-1.70556 4.2044-2.37985 4.2044-2.69716 4.40273-2.97482 5.07701-3.53012 5.23567-3.68878 5.27534-3.72843 5.39432-3.80776 5.63231-3.80776 5.79096-3.76811 5.9893-3.76811 7.09989-3.76811 8.48813-4.24408 9.51939-4.99768 10.6697-5.79096 11.225-6.82223 11.225-8.13116 11.225-8.64678 11.1456-8.9641 10.9473-9.51939L13.3272-9.51939 13.9618-10.5507 13.8428-10.8283 10.2333-10.749C9.28141-11.5026 8.32947-11.7803 7.09989-11.7803 5.94962-11.7803 4.64072-11.4233 3.60945-10.8283 2.14186-10.035 1.42791-8.80544 1.42791-7.25855 1.42791-5.39432 2.57818-4.12507 4.48206-3.92676L2.45918-2.37985C2.22119-2.02287 2.06254-1.66589 2.06254-1.30892 2.06254-0.594962 2.53851-0.198321 3.76811 0.158657L1.5469 1.34858C1.18992 1.5469 0.832947 2.45918 0.832947 3.25246ZM2.77649 3.21281C2.77649 2.06254 3.45079 1.07093 4.48206 0.594962 4.8787 0.436306 5.59266 0.356977 7.37753 0.356977 10.273 0.356977 11.2646 0.912275 11.2646 2.57818 11.2646 4.72005 9.24176 6.34626 6.5446 6.34626 4.3234 6.34626 2.77649 5.03736 2.77649 3.21281ZM3.56977-7.8535C3.56977-9.79706 4.52171-10.9473 6.14795-10.9473 7.89318-10.9473 9.0831-9.51939 9.0831-7.37753 9.0831-5.75131 8.01216-4.64072 6.42559-4.64072 4.72005-4.64072 3.56977-5.94962 3.56977-7.8535Z" fill="#000000" fill-rule="nonzero" fill-opacity="1" transform="matrix(1 0 0 1.00162 803.645 299.983)"/><path d="M0.158657 0.0793283C1.18992 0.0396641 2.30052 0 3.33179 0 4.40273 0 5.47365 0.0396641 6.50492 0.0793283L6.50492-0.67429 5.35467-0.753619C4.48206-0.793283 4.40273-0.991604 4.40273-2.57818L4.40273-7.89318C4.40273-9.04342 6.10828-10.273 7.65519-10.273 9.40041-10.273 10.511-9.00377 10.511-7.06022L10.511 0.0793283C11.1853 0.0396641 11.8992 0 12.5339 0 13.2875 0 13.9618 0.0396641 14.6757 0.0793283L14.6757-0.67429 13.6445-0.753619C12.7719-0.793283 12.6925-0.951939 12.6925-2.57818L12.6925-7.41721C12.6925-10.3524 11.2646-11.7803 8.4088-11.7803 7.45686-11.7803 6.90156-11.6216 6.34626-11.1456L4.40273-9.51939 4.40273-11.7009 4.16475-11.7803C2.85582-11.2646 1.5469-10.9077 0.198321-10.749L0.198321-10.0747 1.1106-10.0747C2.14186-10.0747 2.26086-9.87638 2.26086-8.21049L2.26086-2.57818C2.26086-0.991604 2.18153-0.793283 1.30892-0.753619L0.158657-0.67429Z" fill="#000000" fill-rule="nonzero" fill-opacity="1" transform="matrix(1 0 0 1.00162 817.911 299.983)"/><path d="M922.906 211.301 860.891 149.286 798.875 211.301 860.891 273.306Z" fill="#FFFFFF" fill-rule="nonzero" fill-opacity="1" transform="matrix(1 0 0 1.00162 76 214.58)"/><g><path d="M830.54-0.00274422 768.527 62.0121 706.512-0.00274422 768.527-62.0078Z" stroke="#000000" stroke-width="3.57887" stroke-linecap="butt" stroke-linejoin="miter" stroke-miterlimit="10" stroke-opacity="1" fill="none" fill-rule="nonzero" transform="matrix(1 0 0 -1.00162 168.364 426.221)"/></g><path d="M0.555298-8.56745C0.555298-6.02895 1.42791-3.80776 2.97482-2.22119 4.7597-0.515634 7.45686 0.515634 10.3524 0.515634 12.1372 0.515634 13.8825 0.158657 17.2936-0.793283L17.2936-4.99768C17.2936-5.79096 17.3332-5.83064 17.5712-5.94962L18.3248-6.18761 18.2059-6.82223C17.1746-6.78258 16.1433-6.7429 15.1121-6.7429 14.0808-6.7429 13.0892-6.78258 12.0579-6.82223L12.0579-6.06863 14.1204-5.87029C14.7551-5.83064 14.993-5.59266 14.993-4.99768L14.993-2.45918C14.993-1.86421 14.9534-1.5469 14.8344-1.38824 14.5568-0.912275 13.0495-0.555298 11.3836-0.555298 6.42559-0.555298 3.25246-3.88709 3.25246-9.12275 3.25246-13.9618 5.94962-16.7779 10.6697-16.7779 11.9786-16.7779 13.0892-16.6193 14.0411-16.302 15.5087-15.826 16.1036-15.2707 16.1036-14.3188L16.1036-12.9702 16.8969-12.9702C16.8969-14.2394 17.0556-15.4294 17.4126-16.8176 14.5964-17.6109 13.3272-17.8489 11.3043-17.8489 4.83903-17.8489 0.555298-14.1601 0.555298-8.56745Z" fill="#000000" fill-rule="nonzero" fill-opacity="1" transform="matrix(1 0 0 1.00162 900.281 435.113)"/><path d="M0.793283-5.47365C0.793283-1.90388 3.05415 0.515634 6.30661 0.515634 10.154 0.515634 12.9305-2.18153 12.9305-5.94962 12.9305-9.36074 10.4713-11.7803 7.02057-11.7803 3.33179-11.7803 0.793283-9.20208 0.793283-5.47365ZM3.13348-6.30661C3.13348-9.32109 4.36306-10.9473 6.5446-10.9473 8.88477-10.9473 10.5903-8.44847 10.5903-5.03736 10.5903-2.14186 9.32109-0.317313 7.25855-0.317313 4.79937-0.317313 3.13348-2.73684 3.13348-6.30661Z" fill="#000000" fill-rule="nonzero" fill-opacity="1" transform="matrix(1 0 0 1.00162 919.474 435.113)"/><path d="M0.793283-5.47365C0.793283-1.90388 3.05415 0.515634 6.30661 0.515634 10.154 0.515634 12.9305-2.18153 12.9305-5.94962 12.9305-9.36074 10.4713-11.7803 7.02057-11.7803 3.33179-11.7803 0.793283-9.20208 0.793283-5.47365ZM3.13348-6.30661C3.13348-9.32109 4.36306-10.9473 6.5446-10.9473 8.88477-10.9473 10.5903-8.44847 10.5903-5.03736 10.5903-2.14186 9.32109-0.317313 7.25855-0.317313 4.79937-0.317313 3.13348-2.73684 3.13348-6.30661Z" fill="#000000" fill-rule="nonzero" fill-opacity="1" transform="matrix(1 0 0 1.00162 933.208 435.113)"/><path d="M0.872611-5.434C0.872611-3.41112 1.5469-1.74522 2.77649-0.753619 3.6491-0.0396641 4.83903 0.317313 6.46527 0.317313 6.98089 0.317313 7.53619 0.198321 7.65519 0.118992L10.4713-2.22119 10.3524 0.0793283C10.987 0.0396641 11.6216 0 12.2562 0 13.0098 0 13.8031 0.0396641 14.5568 0.0793283L14.5568-0.67429 13.4065-0.753619C12.5339-0.793283 12.4545-0.991604 12.4545-2.57818L12.4545-18.0472 12.2562-18.2455C11.1456-17.8489 10.3127-17.6109 8.32947-17.3332L8.32947-16.6193 9.71773-16.6193C10.1937-16.6193 10.3524-16.3416 10.3524-15.588L10.3524-10.987C8.9641-11.5819 8.25014-11.7803 7.37753-11.7803 6.70325-11.7803 6.06863-11.6613 5.47365-11.3043L3.25246-10.154C1.82455-9.40041 0.872611-7.57586 0.872611-5.434ZM3.05415-6.26693C3.05415-9.00377 4.44238-10.63 6.70325-10.63 7.65519-10.63 8.64678-10.273 9.51939-9.67805 10.0747-9.32109 10.3524-9.00377 10.3524-8.80544L10.3524-5.55298C10.3524-3.92676 10.3127-3.68878 9.99536-3.0938 9.28141-1.90388 8.05183-1.15026 6.86191-1.15026 4.64072-1.15026 3.05415-3.25246 3.05415-6.26693Z" fill="#000000" fill-rule="nonzero" fill-opacity="1" transform="matrix(1 0 0 1.00162 946.943 435.113)"/><path d="M1.07093-13.7238 1.82455-13.5255 2.30052-14.7551C2.57818-15.4294 3.37146-15.7863 4.48206-15.7863 6.30661-15.7863 7.57586-14.6757 7.57586-13.0495 7.57586-12.0579 7.13955-11.225 5.67199-9.59872 4.12507-7.93283 3.72843-7.25855 3.72843-6.38594 3.72843-5.63231 4.08542-5.03736 4.83903-4.56139L5.35467-4.91835C4.95803-5.39432 4.79937-5.71164 4.79937-6.10828 4.79937-6.94124 5.11669-7.37753 7.17922-9.20208 9.32109-11.1456 9.91604-12.1372 9.91604-13.5651 9.91604-15.7863 7.93283-17.4522 5.35467-17.4522 4.24408-17.4522 3.37146-17.2142 2.02287-16.5796ZM3.53012-1.34858C3.53012-0.594962 4.24408 0.118992 4.95803 0.118992 5.75131 0.118992 6.46527-0.555298 6.46527-1.34858 6.46527-2.1022 5.75131-2.77649 4.99768-2.77649 4.24408-2.77649 3.53012-2.1022 3.53012-1.34858Z" fill="#000000" fill-rule="nonzero" fill-opacity="1" transform="matrix(1 0 0 1.00162 962.311 435.113)"/><path d="M0.594962 0.0793283C1.66589 0.0396641 2.73684 0 3.80776 0 4.8787 0 5.90997 0.0396641 7.02057 0.0793283L7.02057-0.67429 5.83064-0.753619C4.95803-0.793283 4.8787-0.991604 4.8787-2.57818L4.8787-9.67805 8.05183-9.67805 8.25014-11.0266C7.09989-10.9473 5.9893-10.9077 4.8787-10.9077L4.8787-13.0495C4.8787-15.945 5.19602-16.6589 6.66358-16.6589 7.37753-16.6589 7.81385-16.4606 8.44847-15.945L8.76579-16.1036 8.76579-18.0472C8.21049-18.2455 7.89318-18.3248 7.57586-18.3248 6.7429-18.3248 5.87029-17.8885 5.27534-17.2539L3.80776-15.588C3.05415-14.7551 2.73684-13.6445 2.73684-11.9786L2.73684-10.9077 0.951939-10.154 0.951939-9.59872 2.73684-9.67805 2.73684-2.57818C2.73684-0.991604 2.65751-0.793283 1.78489-0.753619L0.594962-0.67429ZM8.64678 0.0793283C9.71773 0.0396641 10.7886 0 11.8596 0 12.9305 0 14.0015 0.0396641 15.0724 0.0793283L15.0724-0.67429 13.8825-0.753619C13.0098-0.793283 12.9305-0.991604 12.9305-2.57818L12.9305-11.6216 12.6925-11.7803C11.5819-11.225 10.2333-10.9077 8.68646-10.7093L8.68646-9.99536 9.6384-9.99536C10.6697-9.99536 10.7886-9.83671 10.7886-8.17081L10.7886-2.57818C10.7886-0.991604 10.7093-0.793283 9.83671-0.753619L8.64678-0.67429ZM10.7093-14.8741C10.7093-14.1204 11.225-13.6445 11.9786-13.6445 12.7719-13.6445 13.2875-14.1204 13.2875-14.8741 13.2875-15.6277 12.7719-16.1433 12.0182-16.1433 11.225-16.1433 10.7093-15.6277 10.7093-14.8741Z" fill="#000000" fill-rule="nonzero" fill-opacity="1" transform="matrix(1 0 0 1.00162 1111.47 414.187)"/><path d="M0.158657 0.0793283C1.18992 0.0396641 2.30052 0 3.33179 0 4.40273 0 5.47365 0.0396641 6.50492 0.0793283L6.50492-0.67429 5.35467-0.753619C4.48206-0.793283 4.40273-0.991604 4.40273-2.57818L4.40273-7.89318C4.40273-9.04342 6.10828-10.273 7.65519-10.273 9.40041-10.273 10.511-9.00377 10.511-7.06022L10.511 0.0793283C11.1853 0.0396641 11.8992 0 12.5339 0 13.2875 0 13.9618 0.0396641 14.6757 0.0793283L14.6757-0.67429 13.6445-0.753619C12.7719-0.793283 12.6925-0.951939 12.6925-2.57818L12.6925-7.41721C12.6925-10.3524 11.2646-11.7803 8.4088-11.7803 7.45686-11.7803 6.90156-11.6216 6.34626-11.1456L4.40273-9.51939 4.40273-11.7009 4.16475-11.7803C2.85582-11.2646 1.5469-10.9077 0.198321-10.749L0.198321-10.0747 1.1106-10.0747C2.14186-10.0747 2.26086-9.87638 2.26086-8.21049L2.26086-2.57818C2.26086-0.991604 2.18153-0.793283 1.30892-0.753619L0.158657-0.67429Z" fill="#000000" fill-rule="nonzero" fill-opacity="1" transform="matrix(1 0 0 1.00162 1127 414.187)"/><path d="M0.832947-2.77649C0.832947-0.832947 2.02287 0.317313 4.04574 0.317313 4.52171 0.317313 4.95803 0.237985 5.11669 0.118992L8.32947-2.06254 8.17081 0.0793283C8.84512 0.0396641 9.51939 0 10.1937 0 10.8283 0 11.4629 0.0396641 12.0976 0.0793283L12.0976-0.67429 11.106-0.713955C10.4713-0.753619 10.3524-0.951939 10.3524-2.18153L10.3524-6.78258C10.3524-10.4713 9.28141-11.7803 6.30661-11.7803 5.19602-11.7803 4.16475-11.5026 3.21281-10.9473L1.86421-10.154 1.86421-8.48813 2.49884-8.32947 2.85582-9.12275C3.37146-10.273 3.6491-10.4713 4.83903-10.4713 7.21887-10.4713 8.25014-9.51939 8.32947-7.25855L5.79096-6.78258C2.30052-6.14795 0.832947-4.99768 0.832947-2.77649ZM3.01447-3.13348C3.01447-4.08542 3.53012-4.95803 4.3234-5.434 4.95803-5.79096 6.34626-6.14795 8.32947-6.42559L8.32947-3.13348C7.57586-2.1022 5.94962-1.15026 4.95803-1.15026 3.92676-1.15026 3.01447-2.06254 3.01447-3.13348Z" fill="#000000" fill-rule="nonzero" fill-opacity="1" transform="matrix(1 0 0 1.00162 1141.93 414.187)"/><path d="M0.555298 0.0793283C1.62623 0.0396641 2.65751 0 3.72843 0 4.83903 0 5.87029 0.0396641 6.94124 0.0793283L6.94124-0.67429 5.79096-0.753619C4.91835-0.793283 4.83903-0.991604 4.83903-2.57818L4.83903-18.0472 4.60104-18.2455C3.45079-17.8489 2.61783-17.6109 0.594962-17.3332L0.594962-16.6193 2.02287-16.6193C2.49884-16.6193 2.65751-16.3416 2.65751-15.588L2.65751-2.57818C2.65751-0.991604 2.57818-0.793283 1.70556-0.753619L0.555298-0.67429Z" fill="#000000" fill-rule="nonzero" fill-opacity="1" transform="matrix(1 0 0 1.00162 1154.76 414.187)"/><path d="M0.912275-5.434C0.912275-3.41112 1.58657-1.74522 2.85582-0.753619 3.72843-0.0396641 4.91835 0.317313 6.58425 0.317313 7.09989 0.317313 7.69484 0.198321 7.81385 0.118992L10.6697-2.22119 10.5507 0.0793283C11.225 0.0396641 11.8596 0 12.5339 0 13.2875 0 14.0808 0.0396641 14.8741 0.0793283L14.8741-0.67429 13.6841-0.753619C12.8115-0.793283 12.7322-0.991604 12.7322-2.57818L12.7322-18.0472 12.4942-18.2455C11.3836-17.8489 10.511-17.6109 8.48813-17.3332L8.48813-16.6193 9.91604-16.6193C10.392-16.6193 10.5903-16.3416 10.5903-15.588L10.5903-10.987C9.12275-11.5819 8.4088-11.7803 7.53619-11.7803 6.82223-11.7803 6.22728-11.6613 5.55298-11.3043L3.29214-10.154C1.86421-9.40041 0.912275-7.57586 0.912275-5.434ZM3.13348-6.26693C3.13348-9.00377 4.52171-10.63 6.82223-10.63 7.81385-10.63 8.84512-10.273 9.71773-9.67805 10.273-9.32109 10.5903-9.00377 10.5903-8.80544L10.5903-5.55298C10.5903-3.92676 10.511-3.68878 10.1937-3.0938 9.47974-1.90388 8.21049-1.15026 7.02057-1.15026 4.7597-1.15026 3.13348-3.25246 3.13348-6.26693Z" fill="#000000" fill-rule="nonzero" fill-opacity="1" transform="matrix(1 0 0 1.00162 1098.96 449.462)"/><path d="M0.67429-5.51333C0.67429-3.92676 1.03127-2.57818 1.74522-1.62623 2.73684-0.277649 4.48206 0.515634 6.42559 0.515634 7.37753 0.515634 8.32947 0.317313 9.36074-0.158657 10.0747-0.436306 10.5903-0.753619 10.7093-0.912275L11.225-1.74522 10.868-2.02287C9.24176-1.07093 8.64678-0.832947 7.53619-0.832947 5.87029-0.832947 4.48206-1.5469 3.76811-2.77649 3.29214-3.60945 3.0938-4.3234 3.05415-5.79096L6.78258-5.79096C8.56745-5.79096 9.67805-5.87029 11.4629-6.14795 11.4629-6.50492 11.5026-6.70325 11.5026-7.02057 11.5026-9.91604 9.59872-11.7803 6.7429-11.7803 5.79096-11.7803 4.68037-11.4629 3.60945-10.868 1.50724-9.67805 0.67429-8.13116 0.67429-5.51333ZM3.0938-6.78258C3.0938-7.97251 3.21281-8.5278 3.53012-9.16243 4.08542-10.273 5.19602-10.9473 6.42559-10.9473 7.25855-10.9473 7.93283-10.63 8.4088-9.95571 8.9641-9.12275 9.20208-8.4088 9.20208-6.70325L6.34626-6.62392C5.15634-6.62392 4.48206-6.66358 3.0938-6.78258Z" fill="#000000" fill-rule="nonzero" fill-opacity="1" transform="matrix(1 0 0 1.00162 1114.63 449.462)"/><path d="M0.753619-0.118992C2.1022 0.317313 3.0938 0.515634 4.28373 0.515634 7.65519 0.515634 10.035-1.26925 10.035-3.72843 10.035-4.48206 9.83671-5.07701 9.32109-5.59266 8.64678-6.22728 7.81385-6.50492 5.55298-6.94124 3.45079-7.33788 2.73684-7.8535 2.73684-9.00377 2.73684-10.273 3.6491-10.9473 5.19602-10.9473 6.94124-10.9473 8.25014-10.0747 8.25014-8.88477L8.25014-8.32947 8.9641-8.32947C8.9641-9.79706 9.00377-10.392 9.0831-11.1456 7.73452-11.6216 6.78258-11.7803 5.75131-11.7803 2.77649-11.7803 0.951939-10.392 0.951939-8.13116 0.951939-6.94124 1.50724-6.06863 2.69716-5.55298 3.37146-5.27534 4.7597-4.83903 6.50492-4.48206 7.65519-4.24408 8.13116-3.68878 8.13116-2.73684 8.13116-1.38824 6.86191-0.436306 5.03736-0.436306 3.17313-0.436306 1.82455-1.30892 1.82455-2.57818L1.82455-3.60945 1.07093-3.60945C1.07093-1.86421 0.991604-1.1106 0.753619-0.118992Z" fill="#000000" fill-rule="nonzero" fill-opacity="1" transform="matrix(1 0 0 1.00162 1126.92 449.462)"/><path d="M0.555298 0.0793283C1.62623 0.0396641 2.65751 0 3.72843 0 4.83903 0 5.87029 0.0396641 6.94124 0.0793283L6.94124-0.67429 5.79096-0.753619C4.91835-0.793283 4.83903-0.991604 4.83903-2.57818L4.83903-11.7009 4.60104-11.7803C3.29214-11.2646 1.94354-10.9077 0.594962-10.749L0.594962-10.0747 1.5469-10.0747C2.57818-10.0747 2.65751-9.87638 2.65751-8.21049L2.65751-2.57818C2.65751-0.991604 2.57818-0.793283 1.70556-0.753619L0.555298-0.67429ZM2.45918-14.8741C2.45918-14.1204 2.97482-13.6445 3.72843-13.6445 4.52171-13.6445 5.03736-14.1204 5.03736-14.8741 5.03736-15.6277 4.52171-16.1433 3.76811-16.1433 2.97482-16.1433 2.45918-15.6277 2.45918-14.8741Z" fill="#000000" fill-rule="nonzero" fill-opacity="1" transform="matrix(1 0 0 1.00162 1137.8 449.462)"/><path d="M0.832947 3.25246C0.832947 5.51333 3.0938 7.09989 6.34626 7.09989 10.2333 7.09989 13.2875 4.72005 13.2875 1.66589 13.2875-0.158657 12.0579-1.42791 10.273-1.42791L6.14795-1.42791C4.83903-1.42791 4.2044-1.70556 4.2044-2.37985 4.2044-2.69716 4.40273-2.97482 5.07701-3.53012 5.23567-3.68878 5.27534-3.72843 5.39432-3.80776 5.63231-3.80776 5.79096-3.76811 5.9893-3.76811 7.09989-3.76811 8.48813-4.24408 9.51939-4.99768 10.6697-5.79096 11.225-6.82223 11.225-8.13116 11.225-8.64678 11.1456-8.9641 10.9473-9.51939L13.3272-9.51939 13.9618-10.5507 13.8428-10.8283 10.2333-10.749C9.28141-11.5026 8.32947-11.7803 7.09989-11.7803 5.94962-11.7803 4.64072-11.4233 3.60945-10.8283 2.14186-10.035 1.42791-8.80544 1.42791-7.25855 1.42791-5.39432 2.57818-4.12507 4.48206-3.92676L2.45918-2.37985C2.22119-2.02287 2.06254-1.66589 2.06254-1.30892 2.06254-0.594962 2.53851-0.198321 3.76811 0.158657L1.5469 1.34858C1.18992 1.5469 0.832947 2.45918 0.832947 3.25246ZM2.77649 3.21281C2.77649 2.06254 3.45079 1.07093 4.48206 0.594962 4.8787 0.436306 5.59266 0.356977 7.37753 0.356977 10.273 0.356977 11.2646 0.912275 11.2646 2.57818 11.2646 4.72005 9.24176 6.34626 6.5446 6.34626 4.3234 6.34626 2.77649 5.03736 2.77649 3.21281ZM3.56977-7.8535C3.56977-9.79706 4.52171-10.9473 6.14795-10.9473 7.89318-10.9473 9.0831-9.51939 9.0831-7.37753 9.0831-5.75131 8.01216-4.64072 6.42559-4.64072 4.72005-4.64072 3.56977-5.94962 3.56977-7.8535Z" fill="#000000" fill-rule="nonzero" fill-opacity="1" transform="matrix(1 0 0 1.00162 1145.17 449.462)"/><path d="M0.158657 0.0793283C1.18992 0.0396641 2.30052 0 3.33179 0 4.40273 0 5.47365 0.0396641 6.50492 0.0793283L6.50492-0.67429 5.35467-0.753619C4.48206-0.793283 4.40273-0.991604 4.40273-2.57818L4.40273-7.89318C4.40273-9.04342 6.10828-10.273 7.65519-10.273 9.40041-10.273 10.511-9.00377 10.511-7.06022L10.511 0.0793283C11.1853 0.0396641 11.8992 0 12.5339 0 13.2875 0 13.9618 0.0396641 14.6757 0.0793283L14.6757-0.67429 13.6445-0.753619C12.7719-0.793283 12.6925-0.951939 12.6925-2.57818L12.6925-7.41721C12.6925-10.3524 11.2646-11.7803 8.4088-11.7803 7.45686-11.7803 6.90156-11.6216 6.34626-11.1456L4.40273-9.51939 4.40273-11.7009 4.16475-11.7803C2.85582-11.2646 1.5469-10.9077 0.198321-10.749L0.198321-10.0747 1.1106-10.0747C2.14186-10.0747 2.26086-9.87638 2.26086-8.21049L2.26086-2.57818C2.26086-0.991604 2.18153-0.793283 1.30892-0.753619L0.158657-0.67429Z" fill="#000000" fill-rule="nonzero" fill-opacity="1" transform="matrix(1 0 0 1.00162 1159.43 449.462)"/><path d="M90.6958-0.00274422 121.138-0.00274422" stroke="#000000" stroke-width="3.57887" stroke-linecap="butt" stroke-linejoin="miter" stroke-miterlimit="10" stroke-opacity="1" fill="none" fill-rule="nonzero" transform="matrix(1 0 0 -1.00162 168.364 426.221)"/><path d="M3.55132-0.00274422C-0.891068 0.8897-5.33346 2.66468-10.6683 5.7783-5.33346 1.78214-5.33346-1.77772-10.6683-5.77388-5.33346-2.67016-0.891068-0.885271 3.55132-0.00274422Z" stroke="#000000" stroke-width="3.57887" stroke-linecap="butt" stroke-linejoin="round" stroke-miterlimit="10" stroke-opacity="1" fill="#000000" fill-rule="nonzero" fill-opacity="1" transform="matrix(1 0 0 -1.00162 289.501 426.221)"/><path d="M289.978-0.00274422 320.421-0.00274422" stroke="#000000" stroke-width="3.57887" stroke-linecap="butt" stroke-linejoin="miter" stroke-miterlimit="10" stroke-opacity="1" fill="none" fill-rule="nonzero" transform="matrix(1 0 0 -1.00162 168.364 426.221)"/><path d="M3.56056-0.00274422C-0.891727 0.8897-5.33411 2.66468-10.6689 5.7783-5.33411 1.78214-5.33411-1.77772-10.6689-5.77388-5.33411-2.67016-0.891727-0.885271 3.56056-0.00274422Z" stroke="#000000" stroke-width="3.57887" stroke-linecap="butt" stroke-linejoin="round" stroke-miterlimit="10" stroke-opacity="1" fill="#000000" fill-rule="nonzero" fill-opacity="1" transform="matrix(1 0 0 -1.00162 488.784 426.221)"/><path d="M525.049-0.00274422 698.629-0.00274422" stroke="#000000" stroke-width="3.57887" stroke-linecap="butt" stroke-linejoin="miter" stroke-miterlimit="10" stroke-opacity="1" fill="none" fill-rule="nonzero" transform="matrix(1 0 0 -1.00162 168.364 426.221)"/><path d="M3.55493-0.00274422C-0.887445 0.8897-5.32982 2.66468-10.6647 5.7783-5.32982 1.78214-5.32982-1.77772-10.6647-5.77388-5.32982-2.67016-0.887445-0.885271 3.55493-0.00274422Z" stroke="#000000" stroke-width="3.57887" stroke-linecap="butt" stroke-linejoin="round" stroke-miterlimit="10" stroke-opacity="1" fill="#000000" fill-rule="nonzero" fill-opacity="1" transform="matrix(1 0 0 -1.00162 866.998 426.221)"/><path d="M768.527 64.5507 768.527 113.427C768.527 133.189 752.501 149.214 732.739 149.214L711.787 149.214" stroke="#000000" stroke-width="3.57887" stroke-linecap="butt" stroke-linejoin="miter" stroke-miterlimit="10" stroke-opacity="1" fill="none" fill-rule="nonzero" transform="matrix(1 0 0 -1.00162 168.364 426.221)"/><path d="M3.55677-0.000375077C-0.885609 0.892068-5.3379 2.66703-10.6727 5.78068-5.3379 1.77459-5.3379-1.77535-10.6727-5.78143-5.3379-2.66779-0.885609-0.892818 3.55677-0.000375077Z" stroke="#000000" stroke-width="3.57887" stroke-linecap="butt" stroke-linejoin="round" stroke-miterlimit="10" stroke-opacity="1" fill="#000000" fill-rule="nonzero" fill-opacity="1" transform="matrix(-1 0 0 1.00162 880.148 276.765)"/><path d="M0.158657 0.0793283C1.18992 0.0396641 2.22119 0 3.25246 0 4.28373 0 5.35467 0.0396641 6.38594 0.0793283L6.38594-0.67429 5.27534-0.753619C4.40273-0.793283 4.3234-0.991604 4.3234-2.57818L4.3234-7.89318C4.3234-9.04342 5.9893-10.273 7.53619-10.273 9.20208-10.273 10.3127-9.00377 10.3127-7.06022L10.3127 0.0793283C10.9473 0.0396641 11.6613 0 12.2959 0 13.0098 0 13.6841 0.0396641 14.3981 0.0793283L14.3981-0.67429 13.3668-0.753619C12.4942-0.793283 12.4149-0.951939 12.4149-2.57818L12.4149-7.41721C12.4149-10.3524 11.0266-11.7803 8.21049-11.7803 7.2982-11.7803 6.78258-11.6216 6.22728-11.1456L4.3234-9.51939 4.3234-11.7009 4.08542-11.7803C2.81617-11.2646 1.50724-10.9077 0.158657-10.749L0.158657-10.0747 1.1106-10.0747C2.1022-10.0747 2.22119-9.87638 2.22119-8.21049L2.22119-2.57818C2.22119-0.991604 2.14186-0.793283 1.26925-0.753619L0.158657-0.67429Z" fill="#000000" fill-rule="nonzero" fill-opacity="1" transform="matrix(1 0 0 1.00162 947.055 282.422)"/><path d="M0.793283-5.47365C0.793283-1.90388 3.05415 0.515634 6.30661 0.515634 10.154 0.515634 12.9305-2.18153 12.9305-5.94962 12.9305-9.36074 10.4713-11.7803 7.02057-11.7803 3.33179-11.7803 0.793283-9.20208 0.793283-5.47365ZM3.13348-6.30661C3.13348-9.32109 4.36306-10.9473 6.5446-10.9473 8.88477-10.9473 10.5903-8.44847 10.5903-5.03736 10.5903-2.14186 9.32109-0.317313 7.25855-0.317313 4.79937-0.317313 3.13348-2.73684 3.13348-6.30661Z" fill="#000000" fill-rule="nonzero" fill-opacity="1" transform="matrix(1 0 0 1.00162 961.695 282.422)"/><path d="M542.945 149.214 461.198 149.214C441.425 149.214 425.412 133.189 425.412 113.427L425.412 42.5073" stroke="#000000" stroke-width="3.57887" stroke-linecap="butt" stroke-linejoin="miter" stroke-miterlimit="10" stroke-opacity="1" fill="none" fill-rule="nonzero" transform="matrix(1 0 0 -1.00162 168.364 426.221)"/><path d="M3.55362 0.0046625C-0.888773 0.88719-5.33116 2.66216-10.666 5.7758-5.33116 1.77963-5.33116-1.78023-10.666-5.77638-5.33116-2.66274-0.888773-0.887781 3.55362 0.0046625Z" stroke="#000000" stroke-width="3.57887" stroke-linecap="butt" stroke-linejoin="round" stroke-miterlimit="10" stroke-opacity="1" fill="#000000" fill-rule="nonzero" fill-opacity="1" transform="matrix(0 1.00162 1 0 593.771 383.641)"/><path d="M833.08-0.00274422 899.3-0.00274422" stroke="#000000" stroke-width="3.57887" stroke-linecap="butt" stroke-linejoin="miter" stroke-miterlimit="10" stroke-opacity="1" fill="none" fill-rule="nonzero" transform="matrix(1 0 0 -1.00162 168.364 426.221)"/><path d="M3.55119-0.00274422C-0.891202 0.8897-5.33358 2.66468-10.6684 5.7783-5.33358 1.78214-5.33358-1.77772-10.6684-5.77388-5.33358-2.67016-0.891202-0.885271 3.55119-0.00274422Z" stroke="#000000" stroke-width="3.57887" stroke-linecap="butt" stroke-linejoin="round" stroke-miterlimit="10" stroke-opacity="1" fill="#000000" fill-rule="nonzero" fill-opacity="1" transform="matrix(1 0 0 -1.00162 1067.66 426.221)"/><path d="M0.317313-10.8283 0.753619-10.7886C1.38824-10.7093 1.70556-10.4317 2.06254-9.55907L6.22728 0.594962 5.63231 2.14186C4.83903 4.24408 3.84743 5.434 2.8955 5.434 2.49884 5.434 2.02287 5.23567 1.62623 4.83903L1.26925 4.83903 0.67429 6.7429C1.15026 6.98089 1.5469 7.09989 2.02287 7.09989 3.72843 7.09989 4.79937 6.22728 5.75131 4.00609L10.868-7.73452C11.8596-10.035 12.3356-10.749 12.9702-10.7886L13.6841-10.8283 13.6841-11.5423C12.8909-11.5026 12.0976-11.4629 11.3043-11.4629 10.4713-11.4629 9.71773-11.5026 8.88477-11.5423L8.88477-10.8283 9.55907-10.7886C10.63-10.7093 10.8283-10.392 10.4713-9.51939L7.45686-2.18153C6.90156-3.13348 6.66358-3.68878 6.18761-4.91835L4.56139-9.16243C4.16475-10.273 4.2044-10.749 5.19602-10.7886L6.14795-10.8283 6.14795-11.5423C5.15634-11.5026 4.2044-11.4629 3.21281-11.4629 2.22119-11.4629 1.26925-11.5026 0.317313-11.5423Z" fill="#000000" fill-rule="nonzero" fill-opacity="1" transform="matrix(1 0 0 1.00162 1019.3 408.899)"/><path d="M0.634626-5.51333C0.634626-3.92676 0.991604-2.57818 1.70556-1.62623 2.69716-0.277649 4.40273 0.515634 6.30661 0.515634 7.21887 0.515634 8.13116 0.317313 9.16243-0.158657 9.87638-0.436306 10.392-0.753619 10.4713-0.912275L10.987-1.74522 10.6697-2.02287C9.04342-1.07093 8.48813-0.832947 7.37753-0.832947 5.75131-0.832947 4.40273-1.5469 3.68878-2.77649 3.21281-3.60945 3.05415-4.3234 2.97482-5.79096L6.66358-5.79096C8.4088-5.79096 9.47974-5.87029 11.225-6.14795 11.225-6.50492 11.2646-6.70325 11.2646-7.02057 11.2646-9.91604 9.40041-11.7803 6.58425-11.7803 5.67199-11.7803 4.56139-11.4629 3.53012-10.868 1.46757-9.67805 0.634626-8.13116 0.634626-5.51333ZM3.05415-6.78258C3.05415-7.97251 3.13348-8.5278 3.45079-9.16243 4.00609-10.273 5.07701-10.9473 6.30661-10.9473 7.09989-10.9473 7.77417-10.63 8.21049-9.95571 8.76579-9.12275 9.04342-8.4088 9.04342-6.70325L6.22728-6.62392C5.03736-6.62392 4.40273-6.66358 3.05415-6.78258Z" fill="#000000" fill-rule="nonzero" fill-opacity="1" transform="matrix(1 0 0 1.00162 1032.41 408.899)"/><path d="M0.753619-0.118992C2.06254 0.317313 3.05415 0.515634 4.2044 0.515634 7.49654 0.515634 9.83671-1.26925 9.83671-3.72843 9.83671-4.48206 9.6384-5.07701 9.12275-5.59266 8.48813-6.22728 7.65519-6.50492 5.434-6.94124 3.37146-7.33788 2.69716-7.8535 2.69716-9.00377 2.69716-10.273 3.56977-10.9473 5.11669-10.9473 6.78258-10.9473 8.09149-10.0747 8.09149-8.88477L8.09149-8.32947 8.76579-8.32947C8.80544-9.79706 8.84512-10.392 8.88477-11.1456 7.57586-11.6216 6.66358-11.7803 5.63231-11.7803 2.69716-11.7803 0.912275-10.392 0.912275-8.13116 0.912275-6.94124 1.46757-6.06863 2.65751-5.55298 3.33179-5.27534 4.64072-4.83903 6.34626-4.48206 7.49654-4.24408 7.97251-3.68878 7.97251-2.73684 7.97251-1.38824 6.70325-0.436306 4.91835-0.436306 3.0938-0.436306 1.78489-1.30892 1.78489-2.57818L1.78489-3.60945 1.03127-3.60945C1.03127-1.86421 0.951939-1.1106 0.753619-0.118992Z" fill="#000000" fill-rule="nonzero" fill-opacity="1" transform="matrix(1 0 0 1.00162 1044.46 408.899)"/></g></g></g></g></g></svg>