<svg width="1104" height="278" xmlns="http://www.w3.org/2000/svg" xmlns:xlink="http://www.w3.org/1999/xlink" xml:space="preserve" overflow="hidden"><defs><clipPath id="clip0"><rect x="88" y="354" width="1104" height="278"/></clipPath><clipPath id="clip1"><rect x="88" y="354" width="1104" height="278"/></clipPath><clipPath id="clip2"><rect x="88" y="355" width="1104" height="277"/></clipPath><clipPath id="clip3"><rect x="88" y="355" width="1104" height="277"/></clipPath><clipPath id="clip4"><rect x="88" y="355" width="1104" height="277"/></clipPath><clipPath id="clip5"><rect x="110" y="366" width="249" height="213"/></clipPath><clipPath id="clip6"><rect x="919" y="366" width="250" height="213"/></clipPath></defs><g clip-path="url(#clip0)" transform="translate(-88 -354)"><g clip-path="url(#clip1)"><g clip-path="url(#clip2)"><g clip-path="url(#clip3)"><g clip-path="url(#clip4)"><path d="M14.4735 223.284 279.854 223.284 279.854 11.2859 14.4735 11.2859Z" fill="#FFFFFF" fill-rule="nonzero" fill-opacity="1" transform="matrix(1.002 0 0 1 88 355.205)"/><path d="M-0.0035493 0.000888266 259.098 0.000888266" stroke="#000000" stroke-width="1.63697" stroke-linecap="butt" stroke-linejoin="miter" stroke-miterlimit="10" stroke-opacity="1" fill="none" fill-rule="nonzero" transform="matrix(1.002 0 0 -1 102.506 578.49)"/><path d="M279.854 223.284 269.806 218.265 273.575 223.284 269.806 228.302" fill="#000000" fill-rule="nonzero" fill-opacity="1" transform="matrix(1.002 0 0 1 88 355.205)"/><path d="M-0.0035493 0.000888266-0.0035493 205.72" stroke="#000000" stroke-width="1.63697" stroke-linecap="butt" stroke-linejoin="miter" stroke-miterlimit="10" stroke-opacity="1" fill="none" fill-rule="nonzero" transform="matrix(1.002 0 0 -1 102.506 578.49)"/><path d="M14.4735 11.2859 9.45515 21.3225 14.4735 17.5642 19.4918 21.3225" fill="#000000" fill-rule="nonzero" fill-opacity="1" transform="matrix(1.002 0 0 1 88 355.205)"/><g clip-path="url(#clip5)"><path d="M33.1757-105.998 232.197 211.999" stroke="#000000" stroke-width="1.63697" stroke-linecap="butt" stroke-linejoin="miter" stroke-miterlimit="10" stroke-opacity="1" fill="none" fill-rule="nonzero" transform="matrix(1.002 0 0 -1 102.506 578.49)"/></g><path d="M0.559986-2.41225C0.559986-1.85226 0.51691-1.50765 0.344607-0.646137 0.301531-0.301531 0.258455-0.215379 0.258455-0.0430758 0.646137 0.172303 1.0769 0.301531 1.4215 0.301531 2.3261 0.301531 3.35992-0.473834 4.22143-1.76611L6.28907-4.95373 6.59062-3.10146C6.93522-0.775365 7.58135 0.301531 8.5721 0.301531 9.17517 0.301531 10.0367-0.172303 10.8982-0.947668L12.2335-2.15379 12.0182-2.6707C11.0274-1.85226 10.3382-1.46458 9.90744-1.46458 9.47668-1.46458 9.13208-1.72303 8.87362-2.28302 8.61517-2.79994 8.31365-3.79067 8.18441-4.56604L7.71059-7.32289 8.65826-8.65826C9.90744-10.4244 10.6828-11.0705 11.5013-11.0705 11.932-11.0705 12.2766-10.8551 12.4058-10.4244L12.7935-10.5536 13.1812-12.8797C12.8797-13.052 12.6212-13.1381 12.3628-13.1381 11.2859-13.1381 10.209-12.1474 8.48595-9.64899L7.49519-8.14135 7.32289-9.47668C7.02137-12.1474 6.28907-13.1381 4.65219-13.1381 3.96298-13.1381 3.35992-12.9228 3.10146-12.5781L1.50765-10.2951 1.98149-10.0367C2.79994-10.9413 3.35992-11.329 3.87683-11.329 4.78143-11.329 5.38449-10.209 5.81525-7.53828L6.11677-5.85831 5.03989-4.17837C3.87683-2.3261 2.92916-1.46458 2.19687-1.46458 1.76611-1.46458 1.46458-1.59381 1.4215-1.72303L1.11997-2.4984Z" fill="#000000" fill-rule="nonzero" fill-opacity="1" transform="matrix(1.002 0 0 1 246.195 555.333)"/><path d="M5.94447-9.21823C5.98755-9.51977 5.98755-10.0367 5.38449-10.0367 5.03989-10.0367 4.78143-9.77823 4.82449-9.47668L4.82449-9.21823 5.12604-5.85831 2.36917-7.88289C2.19687-7.96904 2.15379-8.0121 1.98149-8.0121 1.67996-8.0121 1.4215-7.71059 1.4215-7.40904 1.4215-7.06444 1.63688-6.97828 1.85226-6.89213L4.91065-5.38449 1.93841-3.96298C1.59381-3.79067 1.4215-3.70452 1.4215-3.35992 1.4215-3.0584 1.67996-2.75685 1.98149-2.75685 2.15379-2.75685 2.19687-2.75685 2.71378-3.18761L5.12604-4.91065 4.82449-1.29227C4.82449-0.861517 5.21219-0.732289 5.38449-0.732289 5.64295-0.732289 5.98755-0.904593 5.98755-1.29227L5.64295-4.91065 8.3998-2.92916C8.61517-2.79994 8.65826-2.75685 8.78747-2.75685 9.08902-2.75685 9.39053-3.0584 9.39053-3.35992 9.39053-3.70452 9.17517-3.79067 8.91671-3.91991 7.62444-4.56604 7.58135-4.56604 5.9014-5.38449L8.87362-6.84907C9.21823-7.02137 9.39053-7.10753 9.39053-7.40904 9.39053-7.75365 9.08902-8.0121 8.78747-8.0121 8.65826-8.0121 8.61517-8.0121 8.05519-7.62444L5.64295-5.85831Z" fill="#000000" fill-rule="nonzero" fill-opacity="1" transform="matrix(1.002 0 0 1 260.738 545.428)"/><path d="M138.141 52.9949C138.141 56.0102 135.696 58.4549 132.681 58.4549 129.666 58.4549 127.232 56.0102 127.232 52.9949 127.232 49.9904 129.666 47.5458 132.681 47.5458 135.696 47.5458 138.141 49.9904 138.141 52.9949Z" stroke="#000000" stroke-width="1.63697" stroke-linecap="butt" stroke-linejoin="miter" stroke-miterlimit="10" stroke-opacity="1" fill="#000000" fill-rule="nonzero" fill-opacity="1" transform="matrix(1.002 0 0 -1 102.506 578.49)"/><path d="M417.749 223.284 683.118 223.284 683.118 11.2859 417.749 11.2859Z" fill="#FFFFFF" fill-rule="nonzero" fill-opacity="1" transform="matrix(1.002 0 0 1 88 355.205)"/><path d="M0.00205443 0.000888266 259.093 0.000888266" stroke="#000000" stroke-width="1.63697" stroke-linecap="butt" stroke-linejoin="miter" stroke-miterlimit="10" stroke-opacity="1" fill="none" fill-rule="nonzero" transform="matrix(1.002 0 0 -1 506.583 578.49)"/><path d="M683.118 223.284 673.08 218.265 676.841 223.284 673.08 228.302" fill="#000000" fill-rule="nonzero" fill-opacity="1" transform="matrix(1.002 0 0 1 88 355.205)"/><path d="M0.00205443 0.000888266 0.00205443 205.72" stroke="#000000" stroke-width="1.63697" stroke-linecap="butt" stroke-linejoin="miter" stroke-miterlimit="10" stroke-opacity="1" fill="none" fill-rule="nonzero" transform="matrix(1.002 0 0 -1 506.583 578.49)"/><path d="M417.749 11.2859 412.731 21.3225 417.749 17.5642 422.769 21.3225" fill="#000000" fill-rule="nonzero" fill-opacity="1" transform="matrix(1.002 0 0 1 88 355.205)"/><path d="M33.1705 70.6668 232.192 70.6668" stroke="#000000" stroke-width="1.63697" stroke-linecap="butt" stroke-linejoin="miter" stroke-miterlimit="10" stroke-opacity="1" fill="none" fill-rule="nonzero" transform="matrix(1.002 0 0 -1 506.583 578.49)"/><path d="M0.559986-2.41225C0.559986-1.85226 0.51691-1.50765 0.344607-0.646137 0.301531-0.301531 0.258455-0.215379 0.258455-0.0430758 0.646137 0.172303 1.0769 0.301531 1.4215 0.301531 2.3261 0.301531 3.35992-0.473834 4.22143-1.76611L6.28907-4.95373 6.59062-3.10146C6.93522-0.775365 7.58135 0.301531 8.5721 0.301531 9.17517 0.301531 10.0367-0.172303 10.8982-0.947668L12.2335-2.15379 12.0182-2.6707C11.0274-1.85226 10.3382-1.46458 9.90744-1.46458 9.47668-1.46458 9.13208-1.72303 8.87362-2.28302 8.61517-2.79994 8.31365-3.79067 8.18441-4.56604L7.71059-7.32289 8.65826-8.65826C9.90744-10.4244 10.6828-11.0705 11.5013-11.0705 11.932-11.0705 12.2766-10.8551 12.4058-10.4244L12.7935-10.5536 13.1812-12.8797C12.8797-13.052 12.6212-13.1381 12.3628-13.1381 11.2859-13.1381 10.209-12.1474 8.48595-9.64899L7.49519-8.14135 7.32289-9.47668C7.02137-12.1474 6.28907-13.1381 4.65219-13.1381 3.96298-13.1381 3.35992-12.9228 3.10146-12.5781L1.50765-10.2951 1.98149-10.0367C2.79994-10.9413 3.35992-11.329 3.87683-11.329 4.78143-11.329 5.38449-10.209 5.81525-7.53828L6.11677-5.85831 5.03989-4.17837C3.87683-2.3261 2.92916-1.46458 2.19687-1.46458 1.76611-1.46458 1.46458-1.59381 1.4215-1.72303L1.11997-2.4984Z" fill="#000000" fill-rule="nonzero" fill-opacity="1" transform="matrix(1.002 0 0 1 650.268 537.667)"/><path d="M5.94447-9.21823C5.98755-9.51977 5.98755-10.0367 5.38449-10.0367 5.03989-10.0367 4.78143-9.77823 4.82449-9.47668L4.82449-9.21823 5.12604-5.85831 2.36917-7.88289C2.19687-7.96904 2.15379-8.0121 1.98149-8.0121 1.67996-8.0121 1.4215-7.71059 1.4215-7.40904 1.4215-7.06444 1.63688-6.97828 1.85226-6.89213L4.91065-5.38449 1.93841-3.96298C1.59381-3.79067 1.4215-3.70452 1.4215-3.35992 1.4215-3.0584 1.67996-2.75685 1.98149-2.75685 2.15379-2.75685 2.19687-2.75685 2.71378-3.18761L5.12604-4.91065 4.82449-1.29227C4.82449-0.861517 5.21219-0.732289 5.38449-0.732289 5.64295-0.732289 5.98755-0.904593 5.98755-1.29227L5.64295-4.91065 8.3998-2.92916C8.61517-2.79994 8.65826-2.75685 8.78747-2.75685 9.08902-2.75685 9.39053-3.0584 9.39053-3.35992 9.39053-3.70452 9.17517-3.79067 8.91671-3.91991 7.62444-4.56604 7.58135-4.56604 5.9014-5.38449L8.87362-6.84907C9.21823-7.02137 9.39053-7.10753 9.39053-7.40904 9.39053-7.75365 9.08902-8.0121 8.78747-8.0121 8.65826-8.0121 8.61517-8.0121 8.05519-7.62444L5.64295-5.85831Z" fill="#000000" fill-rule="nonzero" fill-opacity="1" transform="matrix(1.002 0 0 1 664.812 527.762)"/><path d="M138.135 70.6668C138.135 73.6821 135.702 76.1268 132.686 76.1268 129.671 76.1268 127.227 73.6821 127.227 70.6668 127.227 67.6517 129.671 65.207 132.686 65.207 135.702 65.207 138.135 67.6517 138.135 70.6668Z" stroke="#000000" stroke-width="1.63697" stroke-linecap="butt" stroke-linejoin="miter" stroke-miterlimit="10" stroke-opacity="1" fill="#000000" fill-rule="nonzero" fill-opacity="1" transform="matrix(1.002 0 0 -1 506.583 578.49)"/><path d="M821.016 223.294 1086.38 223.294 1086.38 11.2751 821.016 11.2751Z" fill="#FFFFFF" fill-rule="nonzero" fill-opacity="1" transform="matrix(1.002 0 0 1 88 355.205)"/><path d="M-0.000372293-0.00166516 259.101-0.00166516" stroke="#000000" stroke-width="1.63697" stroke-linecap="butt" stroke-linejoin="miter" stroke-miterlimit="10" stroke-opacity="1" fill="none" fill-rule="nonzero" transform="matrix(1.002 0 0 -1 910.656 578.498)"/><path d="M1086.38 223.294 1076.35 218.276 1080.12 223.294 1076.35 228.313" fill="#000000" fill-rule="nonzero" fill-opacity="1" transform="matrix(1.002 0 0 1 88 355.205)"/><path d="M-0.000372293-0.00166516-0.000372293 205.739" stroke="#000000" stroke-width="1.63697" stroke-linecap="butt" stroke-linejoin="miter" stroke-miterlimit="10" stroke-opacity="1" fill="none" fill-rule="nonzero" transform="matrix(1.002 0 0 -1 910.656 578.498)"/><path d="M821.016 11.2751 815.996 21.3225 821.016 17.5534 826.033 21.3225" fill="#000000" fill-rule="nonzero" fill-opacity="1" transform="matrix(1.002 0 0 1 88 355.205)"/><g clip-path="url(#clip6)"><path d="M33.168-54.245 35.1819-46.3299 37.1956-38.7483 39.1988-31.4685 41.2124-24.5011 43.2263-17.8351 45.2293-11.4599 47.2432-5.37537 49.2568 0.439863 51.26 5.9751 53.2736 11.2411 55.2875 16.2487 57.2905 21.0086 59.3044 25.5208 61.318 29.7852 63.3212 33.8236 65.3349 37.625 67.3488 41.211 69.3517 44.5819 71.3656 47.7479 73.3792 50.7093 75.3825 53.4878 77.3961 56.0615 79.41 58.4631 81.413 60.6923 83.4268 62.7492 85.4405 64.6445 87.4437 66.3889 89.4573 67.9827 91.4712 69.4366 93.4742 70.7612 95.4881 71.9459 97.5017 73.012 99.5156 73.9702 101.519 74.8104 103.532 75.5534 105.546 76.1996 107.549 76.7487 109.563 77.2225 111.577 77.6209 113.58 77.9548 115.594 78.224 117.608 78.4288 119.611 78.6011 121.624 78.7194 123.638 78.7949 125.641 78.8486 127.655 78.8809 129.669 78.8919 131.672 78.9026 135.699 78.9026 137.702 78.9132 139.716 78.9455 141.73 78.9995 143.733 79.0748 145.747 79.1934 147.761 79.355 149.763 79.5702 151.777 79.8394 153.791 80.1625 155.794 80.561 157.808 81.0454 159.822 81.5948 161.825 82.2408 163.839 82.984 165.853 83.8239 167.855 84.7824 169.869 85.8485 171.883 87.0332 173.886 88.3469 175.9 89.8007 177.914 91.3945 179.917 93.139 181.931 95.0343 183.944 97.0912 185.947 99.3204 187.961 101.722 189.975 104.307 191.989 107.074 193.992 110.036 196.005 113.202 198.019 116.572 200.022 120.159 202.036 123.96 204.05 127.998 206.053 132.263 208.067 136.775 210.081 141.524 212.084 146.532 214.097 151.798 216.111 157.333 218.114 163.148 220.128 169.233 222.142 175.608 224.145 182.274 226.159 189.241 228.173 196.521 230.175 204.102 232.189 212.007" stroke="#000000" stroke-width="1.63697" stroke-linecap="butt" stroke-linejoin="miter" stroke-miterlimit="10" stroke-opacity="1" fill="none" fill-rule="nonzero" transform="matrix(1.002 0 0 -1 910.656 578.498)"/></g><path d="M0.559986-2.41225C0.559986-1.85226 0.51691-1.50765 0.344607-0.646137 0.301531-0.301531 0.258455-0.215379 0.258455-0.0430758 0.646137 0.172303 1.0769 0.301531 1.4215 0.301531 2.3261 0.301531 3.35992-0.473834 4.22143-1.76611L6.28907-4.95373 6.59062-3.10146C6.93522-0.775365 7.58135 0.301531 8.5721 0.301531 9.17517 0.301531 10.0367-0.172303 10.8982-0.947668L12.2335-2.15379 12.0182-2.6707C11.0274-1.85226 10.3382-1.46458 9.90744-1.46458 9.47668-1.46458 9.13208-1.72303 8.87362-2.28302 8.61517-2.79994 8.31365-3.79067 8.18441-4.56604L7.71059-7.32289 8.65826-8.65826C9.90744-10.4244 10.6828-11.0705 11.5013-11.0705 11.932-11.0705 12.2766-10.8551 12.4058-10.4244L12.7935-10.5536 13.1812-12.8797C12.8797-13.052 12.6212-13.1381 12.3628-13.1381 11.2859-13.1381 10.209-12.1474 8.48595-9.64899L7.49519-8.14135 7.32289-9.47668C7.02137-12.1474 6.28907-13.1381 4.65219-13.1381 3.96298-13.1381 3.35992-12.9228 3.10146-12.5781L1.50765-10.2951 1.98149-10.0367C2.79994-10.9413 3.35992-11.329 3.87683-11.329 4.78143-11.329 5.38449-10.209 5.81525-7.53828L6.11677-5.85831 5.03989-4.17837C3.87683-2.3261 2.92916-1.46458 2.19687-1.46458 1.76611-1.46458 1.46458-1.59381 1.4215-1.72303L1.11997-2.4984Z" fill="#000000" fill-rule="nonzero" fill-opacity="1" transform="matrix(1.002 0 0 1 1054.34 529.44)"/><path d="M5.94447-9.21823C5.98755-9.51977 5.98755-10.0367 5.38449-10.0367 5.03989-10.0367 4.78143-9.77823 4.82449-9.47668L4.82449-9.21823 5.12604-5.85831 2.36917-7.88289C2.19687-7.96904 2.15379-8.0121 1.98149-8.0121 1.67996-8.0121 1.4215-7.71059 1.4215-7.40904 1.4215-7.06444 1.63688-6.97828 1.85226-6.89213L4.91065-5.38449 1.93841-3.96298C1.59381-3.79067 1.4215-3.70452 1.4215-3.35992 1.4215-3.0584 1.67996-2.75685 1.98149-2.75685 2.15379-2.75685 2.19687-2.75685 2.71378-3.18761L5.12604-4.91065 4.82449-1.29227C4.82449-0.861517 5.21219-0.732289 5.38449-0.732289 5.64295-0.732289 5.98755-0.904593 5.98755-1.29227L5.64295-4.91065 8.3998-2.92916C8.61517-2.79994 8.65826-2.75685 8.78747-2.75685 9.08902-2.75685 9.39053-3.0584 9.39053-3.35992 9.39053-3.70452 9.17517-3.79067 8.91671-3.91991 7.62444-4.56604 7.58135-4.56604 5.9014-5.38449L8.87362-6.84907C9.21823-7.02137 9.39053-7.10753 9.39053-7.40904 9.39053-7.75365 9.08902-8.0121 8.78747-8.0121 8.65826-8.0121 8.61517-8.0121 8.05519-7.62444L5.64295-5.85831Z" fill="#000000" fill-rule="nonzero" fill-opacity="1" transform="matrix(1.002 0 0 1 1068.89 519.538)"/><path d="M138.144 78.9026C138.144 81.907 135.699 84.3516 132.684 84.3516 129.669 84.3516 127.224 81.907 127.224 78.9026 127.224 75.8872 129.669 73.4428 132.684 73.4428 135.699 73.4428 138.144 75.8872 138.144 78.9026Z" stroke="#000000" stroke-width="1.63697" stroke-linecap="butt" stroke-linejoin="miter" stroke-miterlimit="10" stroke-opacity="1" fill="#000000" fill-rule="nonzero" fill-opacity="1" transform="matrix(1.002 0 0 -1 910.656 578.498)"/><path d="M0.646137-13.1812C0.646137-11.8459 0.990744-10.8982 1.80919-10.1228 2.71378-9.30438 3.96298-8.87362 6.63368-8.48595 8.74441-8.2275 9.69208-7.88289 10.3813-7.27983 11.1136-6.67677 11.4151-5.9014 11.4151-4.86758 11.4151-2.41225 9.39053-0.646137 6.54753-0.646137 4.35067-0.646137 2.23994-1.72303 2.11072-2.843L1.89534-4.65219 0.990744-4.65219C1.03382-4.17837 1.03382-3.74761 1.03382-3.57531 1.03382-2.3261 0.990744-1.72303 0.818441-0.473834 2.36917 0.172303 3.96298 0.559986 5.51371 0.559986 10.2951 0.559986 13.6981-2.3261 13.6981-6.28907 13.6981-7.53828 13.3535-8.44286 12.5781-9.17517 11.6305-10.0797 10.5105-10.4244 7.45213-10.812 4.13528-11.2428 2.92916-12.1474 2.92916-14.2581 2.92916-16.5411 4.65219-18.178 7.06444-18.178 8.14135-18.178 9.13208-17.9626 9.86438-17.5749 10.769-17.1011 11.0705-16.6704 11.1567-15.895L11.329-14.3443 12.1905-14.3443C12.1905-15.8088 12.2766-16.7134 12.5781-18.178 10.3813-19.0395 9.17517-19.3411 7.6675-19.3411 3.61837-19.3411 0.646137-16.7565 0.646137-13.1812Z" fill="#000000" fill-rule="nonzero" fill-opacity="1" transform="matrix(1.002 0 0 1 108.01 618.94)"/><path d="M0.603062-9.30438C0.603062-3.57531 4.56604 0.559986 10.0797 0.559986 16.1965 0.559986 20.8487-4.00607 20.8487-9.99359 20.8487-15.7227 17.015-19.3411 10.9413-19.3411 4.73834-19.3411 0.603062-15.2919 0.603062-9.30438ZM3.53222-10.2951C3.53222-15.335 6.03062-18.178 10.5105-18.178 15.1627-18.178 17.9195-14.8612 17.9195-9.17517 17.9195-3.79067 15.4211-0.603062 11.1997-0.603062 6.59062-0.603062 3.53222-4.47989 3.53222-10.2951Z" fill="#000000" fill-rule="nonzero" fill-opacity="1" transform="matrix(1.002 0 0 1 122.362 618.94)"/><path d="M0.473834 0.0861517C1.50765 0.0430758 2.58455 0 3.61837 0 4.73834 0 5.81525 0.0430758 6.89213 0.0861517L6.89213-0.732289 5.68601-0.818441C4.43682-0.904593 4.30758-1.16305 4.30758-3.27376L4.30758-15.895 17.1873 0.129228 19.6426 0.559986C19.6426 0.258455 19.5564-0.172303 19.5564-0.473834L19.5564-15.5073C19.5564-17.6611 19.7287-17.8765 20.9779-17.9626L22.1841-18.0488 22.1841-18.8672C21.0641-18.8242 19.9872-18.7811 18.9103-18.7811 17.8334-18.7811 16.7996-18.8242 15.7227-18.8672L15.7227-18.0488 16.9288-17.9626C18.178-17.8765 18.3072-17.6611 18.3072-15.5073L18.3072-2.6707 5.21219-18.8672C5.21219-18.8672 4.30758-18.7811 3.74761-18.7811 2.45532-18.7811 0.473834-18.8672 0.473834-18.8672L0.473834-18.0488 1.67996-17.9626C2.92916-17.8765 3.0584-17.6611 3.0584-15.5073L3.0584-3.27376C3.0584-1.16305 2.92916-0.904593 1.67996-0.818441L0.473834-0.732289Z" fill="#000000" fill-rule="nonzero" fill-opacity="1" transform="matrix(1.002 0 0 1 143.85 618.94)"/><path d="M0.603062-9.30438C0.603062-3.44607 4.91065 0.559986 11.329 0.559986 13.5689 0.559986 15.6365 0.0430758 17.4888-0.947668L18.2642-2.28302 18.0057-2.58455C16.3258-1.46458 14.4304-0.947668 12.3628-0.947668 7.06444-0.947668 3.53222-4.47989 3.53222-9.86438 3.53222-14.8612 6.63368-18.178 11.329-18.178 13.9997-18.178 16.7565-17.1011 16.7565-16.0242L16.7565-14.0858 17.5749-14.0858C17.618-15.4211 17.7042-16.4119 18.0919-18.2211 15.8088-18.9965 13.7843-19.3411 11.8028-19.3411 9.43362-19.3411 7.15059-18.7811 5.3414-17.7042 2.23994-15.8519 0.603062-13.0089 0.603062-9.30438Z" fill="#000000" fill-rule="nonzero" fill-opacity="1" transform="matrix(1.002 0 0 1 165.747 618.94)"/><path d="M-0.387682-18.0057 1.11997-18.0057C1.59381-18.0057 1.80919-17.7042 1.80919-16.8857L1.80919-4.17837C1.80919-2.4984 1.76611-1.76611 1.59381 0.172303L2.02456 0.344607 3.10146-0.646137C4.17837 0.0430758 5.1691 0.344607 6.63368 0.344607 7.71059 0.344607 8.3998 0.129228 8.95977-0.258455L11.7166-2.23994C12.8797-3.10146 13.8704-5.38449 13.8704-7.36598 13.8704-10.5105 11.8028-12.7935 8.91671-12.7935 7.62444-12.7935 6.28907-12.2766 5.59986-11.5874L4.09222-10.0797 4.09222-19.5564 3.83376-19.8149C2.62763-19.3411 1.76611-19.1257-0.387682-18.7811ZM4.09222-2.54147 4.09222-8.3998C4.09222-8.78747 4.35067-9.26132 4.78143-9.77823 5.5568-10.5536 6.63368-11.0274 7.75365-11.0274 10.0367-11.0274 11.4582-9.17517 11.4582-6.24601 11.4582-3.18761 9.86438-1.0769 7.53828-1.0769 6.11677-1.0769 4.09222-1.93841 4.09222-2.54147Z" fill="#000000" fill-rule="nonzero" fill-opacity="1" transform="matrix(1.002 0 0 1 191.963 618.94)"/><path d="M0.473834-10.8982 1.50765-10.8982C2.58455-10.8982 2.71378-10.7259 2.71378-8.91671L2.71378-4.35067C2.71378-2.41225 2.843-1.59381 3.35992-0.904593 3.96298-0.0861517 4.9968 0.344607 6.54753 0.344607 7.75365 0.344607 8.87362-0.0430758 9.60592-0.732289L11.4151-2.41225C11.4151-1.63688 11.4151-1.20612 11.329 0.0861517 12.0612 0.0430758 12.8366 0 13.5689 0 14.3443 0 15.0765 0.0430758 15.8519 0.0861517L15.8519-0.732289 14.7319-0.818441C13.7843-0.861517 13.6981-1.03382 13.6981-2.79994L13.6981-12.6643 13.4827-12.7935C12.0612-12.2335 10.6828-11.8459 9.21823-11.6736L9.21823-10.8982 10.209-10.8982C11.329-10.8982 11.4151-10.7259 11.4151-8.91671L11.4151-4.47989C11.4151-3.87683 11.0274-3.10146 10.4244-2.4984 9.64899-1.72303 8.78747-1.33535 7.71059-1.33535 6.76292-1.33535 5.98755-1.63688 5.5568-2.15379 5.1691-2.58455 4.9968-3.44607 4.9968-4.65219L4.9968-12.6643 4.73834-12.7935C3.35992-12.2335 1.93841-11.8459 0.473834-11.6736Z" fill="#000000" fill-rule="nonzero" fill-opacity="1" transform="matrix(1.002 0 0 1 207.081 618.94)"/><path d="M0.603062-10.2951 2.6707-10.4244 2.6707-2.58455C2.6707-0.559986 3.57531 0.344607 5.68601 0.344607 6.28907 0.344607 6.93522 0.172303 7.10753 0L8.44286-1.46458 8.05519-1.89534C7.40904-1.50765 6.97828-1.37843 6.46138-1.37843 5.38449-1.37843 4.95373-1.93841 4.95373-3.27376L4.95373-10.4244 8.44286-10.4244 8.70132-11.8889 4.95373-11.7166 4.95373-12.7504C4.95373-13.9135 5.03989-14.9042 5.25525-16.6273L4.95373-16.9288C4.26452-16.5411 3.44607-16.1535 2.62763-15.895 2.71378-15.0765 2.71378-14.5596 2.71378-13.7412L2.71378-11.8459 0.603062-10.8982Z" fill="#000000" fill-rule="nonzero" fill-opacity="1" transform="matrix(1.002 0 0 1 223.565 618.94)"/><path d="M0.172303 0.0861517C1.29227 0.0430758 2.41225 0 3.53222 0 4.65219 0 5.81525 0.0430758 6.93522 0.0861517L6.93522-0.732289 5.68601-0.818441C4.78143-0.861517 4.69528-1.0769 4.69528-2.79994L4.69528-8.5721C4.69528-9.77823 6.50446-11.1136 8.14135-11.1136 9.99359-11.1136 11.1997-9.77823 11.1997-7.6675L11.1997 0.0861517C11.8889 0.0430758 12.6212 0 13.3535 0 14.0858 0 14.8181 0.0430758 15.5935 0.0861517L15.5935-0.732289 14.4735-0.818441C13.5689-0.861517 13.4827-1.03382 13.4827-2.79994L13.4827-8.05519C13.4827-11.2428 11.9751-12.7935 8.91671-12.7935 7.92595-12.7935 7.32289-12.5781 6.76292-12.1043L4.69528-10.2951 4.69528-12.6643 4.43682-12.7935C3.0584-12.2335 1.63688-11.8459 0.172303-11.6736L0.172303-10.8982 1.20612-10.8982C2.28302-10.8982 2.41225-10.7259 2.41225-8.91671L2.41225-2.79994C2.41225-1.0769 2.3261-0.861517 1.37843-0.818441L0.172303-0.732289Z" fill="#000000" fill-rule="nonzero" fill-opacity="1" transform="matrix(1.002 0 0 1 239.311 618.94)"/><path d="M0.861517-5.9014C0.861517-2.06764 3.31685 0.559986 6.80598 0.559986 11.0274 0.559986 13.9997-2.36917 13.9997-6.46138 13.9997-10.1228 11.329-12.7935 7.62444-12.7935 3.61837-12.7935 0.861517-9.99359 0.861517-5.9014ZM3.403-6.84907C3.403-10.1228 4.73834-11.8889 7.10753-11.8889 9.60592-11.8889 11.4582-9.17517 11.4582-5.47064 11.4582-2.3261 10.0797-0.344607 7.88289-0.344607 5.21219-0.344607 3.403-2.97225 3.403-6.84907Z" fill="#000000" fill-rule="nonzero" fill-opacity="1" transform="matrix(1.002 0 0 1 255.222 618.94)"/><path d="M0.603062-10.2951 2.6707-10.4244 2.6707-2.58455C2.6707-0.559986 3.57531 0.344607 5.68601 0.344607 6.28907 0.344607 6.93522 0.172303 7.10753 0L8.44286-1.46458 8.05519-1.89534C7.40904-1.50765 6.97828-1.37843 6.46138-1.37843 5.38449-1.37843 4.95373-1.93841 4.95373-3.27376L4.95373-10.4244 8.44286-10.4244 8.70132-11.8889 4.95373-11.7166 4.95373-12.7504C4.95373-13.9135 5.03989-14.9042 5.25525-16.6273L4.95373-16.9288C4.26452-16.5411 3.44607-16.1535 2.62763-15.895 2.71378-15.0765 2.71378-14.5596 2.71378-13.7412L2.71378-11.8459 0.603062-10.8982Z" fill="#000000" fill-rule="nonzero" fill-opacity="1" transform="matrix(1.002 0 0 1 269.738 618.94)"/><path d="M0.603062 0.0861517C1.93841 0.0430758 3.2307 0 4.56604 0 5.9014 0 7.23674 0.0430758 8.5721 0.0861517L8.5721-0.732289 7.27983-0.818441C6.03062-0.904593 5.9014-1.11997 5.9014-3.27376L5.9014-8.91671 10.252-9.00286C11.4582-9.00286 11.9751-8.87362 12.1474-7.96904 12.2766-7.40904 12.2766-6.37522 12.2766-6.37522L13.0951-6.37522C13.052-7.40904 13.052-8.3998 13.052-9.39053 13.052-10.4674 13.052-11.5013 13.0951-12.5781L12.2766-12.5781 12.1474-11.1567C12.0612-10.209 11.4151-10.1228 10.209-10.1228 8.74441-10.1228 7.10753-10.1228 5.9014-10.209L5.9014-17.4888C6.71983-17.7042 7.19368-17.7042 8.78747-17.7042 10.1228-17.7042 11.6305-17.5749 12.492-17.3596 13.1381-17.1873 13.2243-17.058 13.2243-16.4119L13.2243-14.6458 14.172-14.6458C14.172-16.2827 14.3012-17.5749 14.6027-18.7811L11.2859-18.8672C9.30438-18.8242 7.36598-18.7811 5.38449-18.7811 3.79067-18.7811 2.19687-18.8242 0.603062-18.8672L0.603062-18.0488 1.89534-17.9626C3.14455-17.8765 3.31685-17.6611 3.31685-15.5073L3.31685-3.27376C3.31685-1.11997 3.14455-0.904593 1.89534-0.818441L0.603062-0.732289Z" fill="#000000" fill-rule="nonzero" fill-opacity="1" transform="matrix(1.002 0 0 1 285.484 618.94)"/><path d="M0.603062-9.30438C0.603062-3.57531 4.56604 0.559986 10.0797 0.559986 16.1965 0.559986 20.8487-4.00607 20.8487-9.99359 20.8487-15.7227 17.015-19.3411 10.9413-19.3411 4.73834-19.3411 0.603062-15.2919 0.603062-9.30438ZM3.53222-10.2951C3.53222-15.335 6.03062-18.178 10.5105-18.178 15.1627-18.178 17.9195-14.8612 17.9195-9.17517 17.9195-3.79067 15.4211-0.603062 11.1997-0.603062 6.59062-0.603062 3.53222-4.47989 3.53222-10.2951Z" fill="#000000" fill-rule="nonzero" fill-opacity="1" transform="matrix(1.002 0 0 1 300.137 618.94)"/><path d="M0.473834 0.0861517C1.50765 0.0430758 2.58455 0 3.61837 0 4.73834 0 5.81525 0.0430758 6.89213 0.0861517L6.89213-0.732289 5.68601-0.818441C4.43682-0.904593 4.30758-1.16305 4.30758-3.27376L4.30758-15.895 17.1873 0.129228 19.6426 0.559986C19.6426 0.258455 19.5564-0.172303 19.5564-0.473834L19.5564-15.5073C19.5564-17.6611 19.7287-17.8765 20.9779-17.9626L22.1841-18.0488 22.1841-18.8672C21.0641-18.8242 19.9872-18.7811 18.9103-18.7811 17.8334-18.7811 16.7996-18.8242 15.7227-18.8672L15.7227-18.0488 16.9288-17.9626C18.178-17.8765 18.3072-17.6611 18.3072-15.5073L18.3072-2.6707 5.21219-18.8672C5.21219-18.8672 4.30758-18.7811 3.74761-18.7811 2.45532-18.7811 0.473834-18.8672 0.473834-18.8672L0.473834-18.0488 1.67996-17.9626C2.92916-17.8765 3.0584-17.6611 3.0584-15.5073L3.0584-3.27376C3.0584-1.16305 2.92916-0.904593 1.67996-0.818441L0.473834-0.732289Z" fill="#000000" fill-rule="nonzero" fill-opacity="1" transform="matrix(1.002 0 0 1 321.624 618.94)"/><path d="M0.603062-9.30438C0.603062-3.44607 4.91065 0.559986 11.329 0.559986 13.5689 0.559986 15.6365 0.0430758 17.4888-0.947668L18.2642-2.28302 18.0057-2.58455C16.3258-1.46458 14.4304-0.947668 12.3628-0.947668 7.06444-0.947668 3.53222-4.47989 3.53222-9.86438 3.53222-14.8612 6.63368-18.178 11.329-18.178 13.9997-18.178 16.7565-17.1011 16.7565-16.0242L16.7565-14.0858 17.5749-14.0858C17.618-15.4211 17.7042-16.4119 18.0919-18.2211 15.8088-18.9965 13.7843-19.3411 11.8028-19.3411 9.43362-19.3411 7.15059-18.7811 5.3414-17.7042 2.23994-15.8519 0.603062-13.0089 0.603062-9.30438Z" fill="#000000" fill-rule="nonzero" fill-opacity="1" transform="matrix(1.002 0 0 1 343.521 618.94)"/><path d="M0.603062 0.0861517C1.93841 0.0430758 3.2307 0 4.56604 0 5.9014 0 7.23674 0.0430758 8.5721 0.0861517L8.5721-0.732289 7.27983-0.818441C6.03062-0.904593 5.9014-1.11997 5.9014-3.27376L5.9014-8.91671 10.252-9.00286C11.4582-9.00286 11.9751-8.87362 12.1474-7.96904 12.2766-7.40904 12.2766-6.37522 12.2766-6.37522L13.0951-6.37522C13.052-7.40904 13.052-8.3998 13.052-9.39053 13.052-10.4674 13.052-11.5013 13.0951-12.5781L12.2766-12.5781 12.1474-11.1567C12.0612-10.209 11.4151-10.1228 10.209-10.1228 8.74441-10.1228 7.10753-10.1228 5.9014-10.209L5.9014-17.4888C6.71983-17.7042 7.19368-17.7042 8.78747-17.7042 10.1228-17.7042 11.6305-17.5749 12.492-17.3596 13.1381-17.1873 13.2243-17.058 13.2243-16.4119L13.2243-14.6458 14.172-14.6458C14.172-16.2827 14.3012-17.5749 14.6027-18.7811L11.2859-18.8672C9.30438-18.8242 7.36598-18.7811 5.38449-18.7811 3.79067-18.7811 2.19687-18.8242 0.603062-18.8672L0.603062-18.0488 1.89534-17.9626C3.14455-17.8765 3.31685-17.6611 3.31685-15.5073L3.31685-3.27376C3.31685-1.11997 3.14455-0.904593 1.89534-0.818441L0.603062-0.732289Z" fill="#000000" fill-rule="nonzero" fill-opacity="1" transform="matrix(1.002 0 0 1 532.287 618.94)"/><path d="M0.603062-9.30438C0.603062-3.57531 4.56604 0.559986 10.0797 0.559986 16.1965 0.559986 20.8487-4.00607 20.8487-9.99359 20.8487-15.7227 17.015-19.3411 10.9413-19.3411 4.73834-19.3411 0.603062-15.2919 0.603062-9.30438ZM3.53222-10.2951C3.53222-15.335 6.03062-18.178 10.5105-18.178 15.1627-18.178 17.9195-14.8612 17.9195-9.17517 17.9195-3.79067 15.4211-0.603062 11.1997-0.603062 6.59062-0.603062 3.53222-4.47989 3.53222-10.2951Z" fill="#000000" fill-rule="nonzero" fill-opacity="1" transform="matrix(1.002 0 0 1 546.942 618.94)"/><path d="M0.473834 0.0861517C1.50765 0.0430758 2.58455 0 3.61837 0 4.73834 0 5.81525 0.0430758 6.89213 0.0861517L6.89213-0.732289 5.68601-0.818441C4.43682-0.904593 4.30758-1.16305 4.30758-3.27376L4.30758-15.895 17.1873 0.129228 19.6426 0.559986C19.6426 0.258455 19.5564-0.172303 19.5564-0.473834L19.5564-15.5073C19.5564-17.6611 19.7287-17.8765 20.9779-17.9626L22.1841-18.0488 22.1841-18.8672C21.0641-18.8242 19.9872-18.7811 18.9103-18.7811 17.8334-18.7811 16.7996-18.8242 15.7227-18.8672L15.7227-18.0488 16.9288-17.9626C18.178-17.8765 18.3072-17.6611 18.3072-15.5073L18.3072-2.6707 5.21219-18.8672C5.21219-18.8672 4.30758-18.7811 3.74761-18.7811 2.45532-18.7811 0.473834-18.8672 0.473834-18.8672L0.473834-18.0488 1.67996-17.9626C2.92916-17.8765 3.0584-17.6611 3.0584-15.5073L3.0584-3.27376C3.0584-1.16305 2.92916-0.904593 1.67996-0.818441L0.473834-0.732289Z" fill="#000000" fill-rule="nonzero" fill-opacity="1" transform="matrix(1.002 0 0 1 568.427 618.94)"/><path d="M0.603062-9.30438C0.603062-3.44607 4.91065 0.559986 11.329 0.559986 13.5689 0.559986 15.6365 0.0430758 17.4888-0.947668L18.2642-2.28302 18.0057-2.58455C16.3258-1.46458 14.4304-0.947668 12.3628-0.947668 7.06444-0.947668 3.53222-4.47989 3.53222-9.86438 3.53222-14.8612 6.63368-18.178 11.329-18.178 13.9997-18.178 16.7565-17.1011 16.7565-16.0242L16.7565-14.0858 17.5749-14.0858C17.618-15.4211 17.7042-16.4119 18.0919-18.2211 15.8088-18.9965 13.7843-19.3411 11.8028-19.3411 9.43362-19.3411 7.15059-18.7811 5.3414-17.7042 2.23994-15.8519 0.603062-13.0089 0.603062-9.30438Z" fill="#000000" fill-rule="nonzero" fill-opacity="1" transform="matrix(1.002 0 0 1 590.324 618.94)"/><path d="M0.861517-3.01531C0.861517-0.904593 2.15379 0.344607 4.30758 0.344607 4.78143 0.344607 5.25525 0.258455 5.47064 0.129228L8.83056-2.23994 8.70132 0.0861517C9.39053 0.0430758 10.1228 0 10.812 0 11.5013 0 12.1474 0.0430758 12.8366 0.0861517L12.8366-0.732289 11.7597-0.775365C11.1136-0.818441 11.0274-1.03382 11.0274-2.36917L11.0274-7.36598C11.0274-11.329 9.86438-12.7935 6.71983-12.7935 5.51371-12.7935 4.43682-12.492 3.403-11.8459L1.98149-10.9844 1.98149-9.21823 2.6707-9.04593 3.01531-9.86438C3.57531-11.1567 3.87683-11.329 5.12604-11.329 7.71059-11.329 8.74441-10.3382 8.83056-7.8398L6.11677-7.36598C2.41225-6.67677 0.861517-5.38449 0.861517-3.01531ZM3.2307-3.403C3.2307-4.43682 3.74761-5.38449 4.56604-5.9014 5.25525-6.28907 6.76292-6.67677 8.83056-6.97828L8.83056-3.35992C8.05519-2.28302 6.33216-1.20612 5.25525-1.20612 4.17837-1.20612 3.2307-2.23994 3.2307-3.403Z" fill="#000000" fill-rule="nonzero" fill-opacity="1" transform="matrix(1.002 0 0 1 616.542 618.94)"/><path d="M0.172303 0.0861517C1.29227 0.0430758 2.41225 0 3.53222 0 4.65219 0 5.81525 0.0430758 6.93522 0.0861517L6.93522-0.732289 5.68601-0.818441C4.78143-0.861517 4.69528-1.0769 4.69528-2.79994L4.69528-8.5721C4.69528-9.77823 6.50446-11.1136 8.14135-11.1136 9.99359-11.1136 11.1997-9.77823 11.1997-7.6675L11.1997 0.0861517C11.8889 0.0430758 12.6212 0 13.3535 0 14.0858 0 14.8181 0.0430758 15.5935 0.0861517L15.5935-0.732289 14.4735-0.818441C13.5689-0.861517 13.4827-1.03382 13.4827-2.79994L13.4827-8.05519C13.4827-11.2428 11.9751-12.7935 8.91671-12.7935 7.92595-12.7935 7.32289-12.5781 6.76292-12.1043L4.69528-10.2951 4.69528-12.6643 4.43682-12.7935C3.0584-12.2335 1.63688-11.8459 0.172303-11.6736L0.172303-10.8982 1.20612-10.8982C2.28302-10.8982 2.41225-10.7259 2.41225-8.91671L2.41225-2.79994C2.41225-1.0769 2.3261-0.861517 1.37843-0.818441L0.172303-0.732289Z" fill="#000000" fill-rule="nonzero" fill-opacity="1" transform="matrix(1.002 0 0 1 630.21 618.94)"/><path d="M0.947668-5.9014C0.947668-3.70452 1.67996-1.89534 3.01531-0.818441 3.96298-0.0430758 5.25525 0.344607 7.02137 0.344607 7.53828 0.344607 8.18441 0.215379 8.31365 0.129228L11.329-2.41225 11.1997 0.0861517C11.932 0.0430758 12.5781 0 13.3104 0 14.1289 0 14.9904 0.0430758 15.8088 0.0861517L15.8088-0.732289 14.5166-0.818441C13.612-0.861517 13.5258-1.0769 13.5258-2.79994L13.5258-19.5564 13.2674-19.8149C12.0612-19.3411 11.1997-19.1257 9.04593-18.7811L9.04593-18.0057 10.5536-18.0057C11.0274-18.0057 11.2428-17.7042 11.2428-16.8857L11.2428-11.932C9.69208-12.5781 8.95977-12.7935 7.96904-12.7935 7.23674-12.7935 6.59062-12.6212 5.9014-12.2766L3.53222-11.0274C1.98149-10.209 0.947668-8.2275 0.947668-5.9014ZM3.31685-6.80598C3.31685-9.77823 4.78143-11.5013 7.23674-11.5013 8.27056-11.5013 9.39053-11.1567 10.3382-10.5105 10.8982-10.1228 11.2428-9.77823 11.2428-9.56283L11.2428-6.03062C11.2428-4.26452 11.1997-3.96298 10.812-3.35992 10.0797-2.06764 8.74441-1.20612 7.45213-1.20612 5.03989-1.20612 3.31685-3.53222 3.31685-6.80598Z" fill="#000000" fill-rule="nonzero" fill-opacity="1" transform="matrix(1.002 0 0 1 646.121 618.94)"/><path d="M0.646137-13.1812C0.646137-11.8459 0.990744-10.8982 1.80919-10.1228 2.71378-9.30438 3.96298-8.87362 6.63368-8.48595 8.74441-8.2275 9.69208-7.88289 10.3813-7.27983 11.1136-6.67677 11.4151-5.9014 11.4151-4.86758 11.4151-2.41225 9.39053-0.646137 6.54753-0.646137 4.35067-0.646137 2.23994-1.72303 2.11072-2.843L1.89534-4.65219 0.990744-4.65219C1.03382-4.17837 1.03382-3.74761 1.03382-3.57531 1.03382-2.3261 0.990744-1.72303 0.818441-0.473834 2.36917 0.172303 3.96298 0.559986 5.51371 0.559986 10.2951 0.559986 13.6981-2.3261 13.6981-6.28907 13.6981-7.53828 13.3535-8.44286 12.5781-9.17517 11.6305-10.0797 10.5105-10.4244 7.45213-10.812 4.13528-11.2428 2.92916-12.1474 2.92916-14.2581 2.92916-16.5411 4.65219-18.178 7.06444-18.178 8.14135-18.178 9.13208-17.9626 9.86438-17.5749 10.769-17.1011 11.0705-16.6704 11.1567-15.895L11.329-14.3443 12.1905-14.3443C12.1905-15.8088 12.2766-16.7134 12.5781-18.178 10.3813-19.0395 9.17517-19.3411 7.6675-19.3411 3.61837-19.3411 0.646137-16.7565 0.646137-13.1812Z" fill="#000000" fill-rule="nonzero" fill-opacity="1" transform="matrix(1.002 0 0 1 669.657 618.94)"/><path d="M0.603062-9.30438C0.603062-3.57531 4.56604 0.559986 10.0797 0.559986 16.1965 0.559986 20.8487-4.00607 20.8487-9.99359 20.8487-15.7227 17.015-19.3411 10.9413-19.3411 4.73834-19.3411 0.603062-15.2919 0.603062-9.30438ZM3.53222-10.2951C3.53222-15.335 6.03062-18.178 10.5105-18.178 15.1627-18.178 17.9195-14.8612 17.9195-9.17517 17.9195-3.79067 15.4211-0.603062 11.1997-0.603062 6.59062-0.603062 3.53222-4.47989 3.53222-10.2951Z" fill="#000000" fill-rule="nonzero" fill-opacity="1" transform="matrix(1.002 0 0 1 684.01 618.94)"/><path d="M0.473834 0.0861517C1.50765 0.0430758 2.58455 0 3.61837 0 4.73834 0 5.81525 0.0430758 6.89213 0.0861517L6.89213-0.732289 5.68601-0.818441C4.43682-0.904593 4.30758-1.16305 4.30758-3.27376L4.30758-15.895 17.1873 0.129228 19.6426 0.559986C19.6426 0.258455 19.5564-0.172303 19.5564-0.473834L19.5564-15.5073C19.5564-17.6611 19.7287-17.8765 20.9779-17.9626L22.1841-18.0488 22.1841-18.8672C21.0641-18.8242 19.9872-18.7811 18.9103-18.7811 17.8334-18.7811 16.7996-18.8242 15.7227-18.8672L15.7227-18.0488 16.9288-17.9626C18.178-17.8765 18.3072-17.6611 18.3072-15.5073L18.3072-2.6707 5.21219-18.8672C5.21219-18.8672 4.30758-18.7811 3.74761-18.7811 2.45532-18.7811 0.473834-18.8672 0.473834-18.8672L0.473834-18.0488 1.67996-17.9626C2.92916-17.8765 3.0584-17.6611 3.0584-15.5073L3.0584-3.27376C3.0584-1.16305 2.92916-0.904593 1.67996-0.818441L0.473834-0.732289Z" fill="#000000" fill-rule="nonzero" fill-opacity="1" transform="matrix(1.002 0 0 1 705.496 618.94)"/><path d="M0.603062-9.30438C0.603062-3.44607 4.91065 0.559986 11.329 0.559986 13.5689 0.559986 15.6365 0.0430758 17.4888-0.947668L18.2642-2.28302 18.0057-2.58455C16.3258-1.46458 14.4304-0.947668 12.3628-0.947668 7.06444-0.947668 3.53222-4.47989 3.53222-9.86438 3.53222-14.8612 6.63368-18.178 11.329-18.178 13.9997-18.178 16.7565-17.1011 16.7565-16.0242L16.7565-14.0858 17.5749-14.0858C17.618-15.4211 17.7042-16.4119 18.0919-18.2211 15.8088-18.9965 13.7843-19.3411 11.8028-19.3411 9.43362-19.3411 7.15059-18.7811 5.3414-17.7042 2.23994-15.8519 0.603062-13.0089 0.603062-9.30438Z" fill="#000000" fill-rule="nonzero" fill-opacity="1" transform="matrix(1.002 0 0 1 727.393 618.94)"/><path d="M0.603062 0.0861517C1.93841 0.0430758 3.2307 0 4.56604 0 5.9014 0 7.23674 0.0430758 8.5721 0.0861517L8.5721-0.732289 7.27983-0.818441C6.03062-0.904593 5.9014-1.11997 5.9014-3.27376L5.9014-8.91671 10.252-9.00286C11.4582-9.00286 11.9751-8.87362 12.1474-7.96904 12.2766-7.40904 12.2766-6.37522 12.2766-6.37522L13.0951-6.37522C13.052-7.40904 13.052-8.3998 13.052-9.39053 13.052-10.4674 13.052-11.5013 13.0951-12.5781L12.2766-12.5781 12.1474-11.1567C12.0612-10.209 11.4151-10.1228 10.209-10.1228 8.74441-10.1228 7.10753-10.1228 5.9014-10.209L5.9014-17.4888C6.71983-17.7042 7.19368-17.7042 8.78747-17.7042 10.1228-17.7042 11.6305-17.5749 12.492-17.3596 13.1381-17.1873 13.2243-17.058 13.2243-16.4119L13.2243-14.6458 14.172-14.6458C14.172-16.2827 14.3012-17.5749 14.6027-18.7811L11.2859-18.8672C9.30438-18.8242 7.36598-18.7811 5.38449-18.7811 3.79067-18.7811 2.19687-18.8242 0.603062-18.8672L0.603062-18.0488 1.89534-17.9626C3.14455-17.8765 3.31685-17.6611 3.31685-15.5073L3.31685-3.27376C3.31685-1.11997 3.14455-0.904593 1.89534-0.818441L0.603062-0.732289Z" fill="#000000" fill-rule="nonzero" fill-opacity="1" transform="matrix(1.002 0 0 1 936.36 618.946)"/><path d="M0.603062-9.30438C0.603062-3.57531 4.56604 0.559986 10.0797 0.559986 16.1965 0.559986 20.8487-4.00607 20.8487-9.99359 20.8487-15.7227 17.015-19.3411 10.9413-19.3411 4.73834-19.3411 0.603062-15.2919 0.603062-9.30438ZM3.53222-10.2951C3.53222-15.335 6.03062-18.178 10.5105-18.178 15.1627-18.178 17.9195-14.8612 17.9195-9.17517 17.9195-3.79067 15.4211-0.603062 11.1997-0.603062 6.59062-0.603062 3.53222-4.47989 3.53222-10.2951Z" fill="#000000" fill-rule="nonzero" fill-opacity="1" transform="matrix(1.002 0 0 1 951.014 618.946)"/><path d="M0.473834 0.0861517C1.50765 0.0430758 2.58455 0 3.61837 0 4.73834 0 5.81525 0.0430758 6.89213 0.0861517L6.89213-0.732289 5.68601-0.818441C4.43682-0.904593 4.30758-1.16305 4.30758-3.27376L4.30758-15.895 17.1873 0.129228 19.6426 0.559986C19.6426 0.258455 19.5564-0.172303 19.5564-0.473834L19.5564-15.5073C19.5564-17.6611 19.7287-17.8765 20.9779-17.9626L22.1841-18.0488 22.1841-18.8672C21.0641-18.8242 19.9872-18.7811 18.9103-18.7811 17.8334-18.7811 16.7996-18.8242 15.7227-18.8672L15.7227-18.0488 16.9288-17.9626C18.178-17.8765 18.3072-17.6611 18.3072-15.5073L18.3072-2.6707 5.21219-18.8672C5.21219-18.8672 4.30758-18.7811 3.74761-18.7811 2.45532-18.7811 0.473834-18.8672 0.473834-18.8672L0.473834-18.0488 1.67996-17.9626C2.92916-17.8765 3.0584-17.6611 3.0584-15.5073L3.0584-3.27376C3.0584-1.16305 2.92916-0.904593 1.67996-0.818441L0.473834-0.732289Z" fill="#000000" fill-rule="nonzero" fill-opacity="1" transform="matrix(1.002 0 0 1 972.5 618.946)"/><path d="M0.603062-9.30438C0.603062-3.44607 4.91065 0.559986 11.329 0.559986 13.5689 0.559986 15.6365 0.0430758 17.4888-0.947668L18.2642-2.28302 18.0057-2.58455C16.3258-1.46458 14.4304-0.947668 12.3628-0.947668 7.06444-0.947668 3.53222-4.47989 3.53222-9.86438 3.53222-14.8612 6.63368-18.178 11.329-18.178 13.9997-18.178 16.7565-17.1011 16.7565-16.0242L16.7565-14.0858 17.5749-14.0858C17.618-15.4211 17.7042-16.4119 18.0919-18.2211 15.8088-18.9965 13.7843-19.3411 11.8028-19.3411 9.43362-19.3411 7.15059-18.7811 5.3414-17.7042 2.23994-15.8519 0.603062-13.0089 0.603062-9.30438Z" fill="#000000" fill-rule="nonzero" fill-opacity="1" transform="matrix(1.002 0 0 1 994.397 618.946)"/><path d="M0.861517-3.01531C0.861517-0.904593 2.15379 0.344607 4.30758 0.344607 4.78143 0.344607 5.25525 0.258455 5.47064 0.129228L8.83056-2.23994 8.70132 0.0861517C9.39053 0.0430758 10.1228 0 10.812 0 11.5013 0 12.1474 0.0430758 12.8366 0.0861517L12.8366-0.732289 11.7597-0.775365C11.1136-0.818441 11.0274-1.03382 11.0274-2.36917L11.0274-7.36598C11.0274-11.329 9.86438-12.7935 6.71983-12.7935 5.51371-12.7935 4.43682-12.492 3.403-11.8459L1.98149-10.9844 1.98149-9.21823 2.6707-9.04593 3.01531-9.86438C3.57531-11.1567 3.87683-11.329 5.12604-11.329 7.71059-11.329 8.74441-10.3382 8.83056-7.8398L6.11677-7.36598C2.41225-6.67677 0.861517-5.38449 0.861517-3.01531ZM3.2307-3.403C3.2307-4.43682 3.74761-5.38449 4.56604-5.9014 5.25525-6.28907 6.76292-6.67677 8.83056-6.97828L8.83056-3.35992C8.05519-2.28302 6.33216-1.20612 5.25525-1.20612 4.17837-1.20612 3.2307-2.23994 3.2307-3.403Z" fill="#000000" fill-rule="nonzero" fill-opacity="1" transform="matrix(1.002 0 0 1 1020.61 618.946)"/><path d="M0.172303 0.0861517C1.29227 0.0430758 2.41225 0 3.53222 0 4.65219 0 5.81525 0.0430758 6.93522 0.0861517L6.93522-0.732289 5.68601-0.818441C4.78143-0.861517 4.69528-1.0769 4.69528-2.79994L4.69528-8.5721C4.69528-9.77823 6.50446-11.1136 8.14135-11.1136 9.99359-11.1136 11.1997-9.77823 11.1997-7.6675L11.1997 0.0861517C11.8889 0.0430758 12.6212 0 13.3535 0 14.0858 0 14.8181 0.0430758 15.5935 0.0861517L15.5935-0.732289 14.4735-0.818441C13.5689-0.861517 13.4827-1.03382 13.4827-2.79994L13.4827-8.05519C13.4827-11.2428 11.9751-12.7935 8.91671-12.7935 7.92595-12.7935 7.32289-12.5781 6.76292-12.1043L4.69528-10.2951 4.69528-12.6643 4.43682-12.7935C3.0584-12.2335 1.63688-11.8459 0.172303-11.6736L0.172303-10.8982 1.20612-10.8982C2.28302-10.8982 2.41225-10.7259 2.41225-8.91671L2.41225-2.79994C2.41225-1.0769 2.3261-0.861517 1.37843-0.818441L0.172303-0.732289Z" fill="#000000" fill-rule="nonzero" fill-opacity="1" transform="matrix(1.002 0 0 1 1034.28 618.946)"/><path d="M0.947668-5.9014C0.947668-3.70452 1.67996-1.89534 3.01531-0.818441 3.96298-0.0430758 5.25525 0.344607 7.02137 0.344607 7.53828 0.344607 8.18441 0.215379 8.31365 0.129228L11.329-2.41225 11.1997 0.0861517C11.932 0.0430758 12.5781 0 13.3104 0 14.1289 0 14.9904 0.0430758 15.8088 0.0861517L15.8088-0.732289 14.5166-0.818441C13.612-0.861517 13.5258-1.0769 13.5258-2.79994L13.5258-19.5564 13.2674-19.8149C12.0612-19.3411 11.1997-19.1257 9.04593-18.7811L9.04593-18.0057 10.5536-18.0057C11.0274-18.0057 11.2428-17.7042 11.2428-16.8857L11.2428-11.932C9.69208-12.5781 8.95977-12.7935 7.96904-12.7935 7.23674-12.7935 6.59062-12.6212 5.9014-12.2766L3.53222-11.0274C1.98149-10.209 0.947668-8.2275 0.947668-5.9014ZM3.31685-6.80598C3.31685-9.77823 4.78143-11.5013 7.23674-11.5013 8.27056-11.5013 9.39053-11.1567 10.3382-10.5105 10.8982-10.1228 11.2428-9.77823 11.2428-9.56283L11.2428-6.03062C11.2428-4.26452 11.1997-3.96298 10.812-3.35992 10.0797-2.06764 8.74441-1.20612 7.45213-1.20612 5.03989-1.20612 3.31685-3.53222 3.31685-6.80598Z" fill="#000000" fill-rule="nonzero" fill-opacity="1" transform="matrix(1.002 0 0 1 1050.19 618.946)"/><path d="M0.646137-13.1812C0.646137-11.8459 0.990744-10.8982 1.80919-10.1228 2.71378-9.30438 3.96298-8.87362 6.63368-8.48595 8.74441-8.2275 9.69208-7.88289 10.3813-7.27983 11.1136-6.67677 11.4151-5.9014 11.4151-4.86758 11.4151-2.41225 9.39053-0.646137 6.54753-0.646137 4.35067-0.646137 2.23994-1.72303 2.11072-2.843L1.89534-4.65219 0.990744-4.65219C1.03382-4.17837 1.03382-3.74761 1.03382-3.57531 1.03382-2.3261 0.990744-1.72303 0.818441-0.473834 2.36917 0.172303 3.96298 0.559986 5.51371 0.559986 10.2951 0.559986 13.6981-2.3261 13.6981-6.28907 13.6981-7.53828 13.3535-8.44286 12.5781-9.17517 11.6305-10.0797 10.5105-10.4244 7.45213-10.812 4.13528-11.2428 2.92916-12.1474 2.92916-14.2581 2.92916-16.5411 4.65219-18.178 7.06444-18.178 8.14135-18.178 9.13208-17.9626 9.86438-17.5749 10.769-17.1011 11.0705-16.6704 11.1567-15.895L11.329-14.3443 12.1905-14.3443C12.1905-15.8088 12.2766-16.7134 12.5781-18.178 10.3813-19.0395 9.17517-19.3411 7.6675-19.3411 3.61837-19.3411 0.646137-16.7565 0.646137-13.1812Z" fill="#000000" fill-rule="nonzero" fill-opacity="1" transform="matrix(1.002 0 0 1 1073.73 618.946)"/><path d="M0.603062-9.30438C0.603062-3.57531 4.56604 0.559986 10.0797 0.559986 16.1965 0.559986 20.8487-4.00607 20.8487-9.99359 20.8487-15.7227 17.015-19.3411 10.9413-19.3411 4.73834-19.3411 0.603062-15.2919 0.603062-9.30438ZM3.53222-10.2951C3.53222-15.335 6.03062-18.178 10.5105-18.178 15.1627-18.178 17.9195-14.8612 17.9195-9.17517 17.9195-3.79067 15.4211-0.603062 11.1997-0.603062 6.59062-0.603062 3.53222-4.47989 3.53222-10.2951Z" fill="#000000" fill-rule="nonzero" fill-opacity="1" transform="matrix(1.002 0 0 1 1088.08 618.946)"/><path d="M0.473834 0.0861517C1.50765 0.0430758 2.58455 0 3.61837 0 4.73834 0 5.81525 0.0430758 6.89213 0.0861517L6.89213-0.732289 5.68601-0.818441C4.43682-0.904593 4.30758-1.16305 4.30758-3.27376L4.30758-15.895 17.1873 0.129228 19.6426 0.559986C19.6426 0.258455 19.5564-0.172303 19.5564-0.473834L19.5564-15.5073C19.5564-17.6611 19.7287-17.8765 20.9779-17.9626L22.1841-18.0488 22.1841-18.8672C21.0641-18.8242 19.9872-18.7811 18.9103-18.7811 17.8334-18.7811 16.7996-18.8242 15.7227-18.8672L15.7227-18.0488 16.9288-17.9626C18.178-17.8765 18.3072-17.6611 18.3072-15.5073L18.3072-2.6707 5.21219-18.8672C5.21219-18.8672 4.30758-18.7811 3.74761-18.7811 2.45532-18.7811 0.473834-18.8672 0.473834-18.8672L0.473834-18.0488 1.67996-17.9626C2.92916-17.8765 3.0584-17.6611 3.0584-15.5073L3.0584-3.27376C3.0584-1.16305 2.92916-0.904593 1.67996-0.818441L0.473834-0.732289Z" fill="#000000" fill-rule="nonzero" fill-opacity="1" transform="matrix(1.002 0 0 1 1109.57 618.946)"/><path d="M0.603062-9.30438C0.603062-3.44607 4.91065 0.559986 11.329 0.559986 13.5689 0.559986 15.6365 0.0430758 17.4888-0.947668L18.2642-2.28302 18.0057-2.58455C16.3258-1.46458 14.4304-0.947668 12.3628-0.947668 7.06444-0.947668 3.53222-4.47989 3.53222-9.86438 3.53222-14.8612 6.63368-18.178 11.329-18.178 13.9997-18.178 16.7565-17.1011 16.7565-16.0242L16.7565-14.0858 17.5749-14.0858C17.618-15.4211 17.7042-16.4119 18.0919-18.2211 15.8088-18.9965 13.7843-19.3411 11.8028-19.3411 9.43362-19.3411 7.15059-18.7811 5.3414-17.7042 2.23994-15.8519 0.603062-13.0089 0.603062-9.30438Z" fill="#000000" fill-rule="nonzero" fill-opacity="1" transform="matrix(1.002 0 0 1 1131.47 618.946)"/></g></g></g></g></g></svg>